SplineFontDB: 3.0
FontName: Karumbi-Regular
FullName: Karumbi Regular
FamilyName: Karumbi
Weight: Regular
Copyright: Digitized data copyright (c) 2005-2016 Kevin & Siji (c) 2016 Santhosh Thottingal (c) 2015-2016 Swathanthra Malayalam Computing(http://smc.org.in) with Reserved Font Name Karumbi.
Version: 1.0
ItalicAngle: 0
UnderlinePosition: -59
UnderlineWidth: 8
Ascent: 800
Descent: 200
InvalidEm: 0
sfntRevision: 0x0000cccc
LayerCount: 2
Layer: 0 1 "Back" 1
Layer: 1 1 "Fore" 0
XUID: [1021 505 1187139440 3708997]
FSType: 0
OS2Version: 2
OS2_WeightWidthSlopeOnly: 0
OS2_UseTypoMetrics: 1
CreationTime: 1201144321
ModificationTime: 1496761996
PfmFamily: 17
TTFWeight: 400
TTFWidth: 5
LineGap: 0
VLineGap: 0
Panose: 2 0 6 3 0 0 0 0 0 0
OS2TypoAscent: 0
OS2TypoAOffset: 1
OS2TypoDescent: -337
OS2TypoDOffset: 1
OS2TypoLinegap: 0
OS2WinAscent: -60
OS2WinAOffset: 1
OS2WinDescent: -8
OS2WinDOffset: 1
HheadAscent: -60
HheadAOffset: 1
HheadDescent: 8
HheadDOffset: 1
OS2SubXSize: 649
OS2SubYSize: 600
OS2SubXOff: 0
OS2SubYOff: 74
OS2SupXSize: 649
OS2SupYSize: 698
OS2SupXOff: 0
OS2SupYOff: 479
OS2StrikeYSize: 50
OS2StrikeYPos: 250
OS2Vendor: 'SMC '
OS2CodePages: 00000001.00000000
OS2UnicodeRanges: 80800001.00002000.00000000.00000000
Lookup: 260 0 0 "'abvm' Above Base Mark in Malay+AQEA-lam/Malay+AQEA-lam2 lookup 0" { "'abvm' Above Base Mark in Malay+AQEA-lam/Malay+AQEA-lam2 lookup 0 subtable"  } ['abvm' ('mlm2' <'dflt' > 'mlym' <'dflt' > ) ]
MarkAttachClasses: 1
DEI: 91125
LangName: 1100 "" "" "" "" "" "" "" "" "" "" "" "" "" "" "" "" "" "" "+DRUNMQ1BDS4NTQ0qDT8A"

StartChar: .notdef
Encoding: 256 -1 0
Width: 500
GlyphClass: 2
Flags: W
LayerCount: 2
Fore
SplineSet
401 -43 m 1,0,1
 373 -60 373 -60 367 -20 c 1,2,3
 353 -19 353 -19 340 -18 c 0,4,5
 327 -18 327 -18 302 -18 c 0,6,7
 190 -20 190 -20 137 -33 c 0,8,9
 80 -47 80 -47 66 -43 c 1,10,11
 51 -36 51 -36 52.5 -23.5 c 128,-1,12
 54 -11 54 -11 65 -6 c 1,13,14
 67 0 67 0 69 4 c 1,15,16
 76 49 76 49 75 95.5 c 128,-1,17
 74 142 74 142 75 178 c 128,-1,18
 76 214 76 214 78 246 c 0,19,20
 80 279 80 279 80 310 c 0,21,22
 81 392 81 392 73 434 c 0,23,24
 71 448 71 448 79 454 c 128,-1,25
 87 460 87 460 96 458 c 1,26,27
 102 459 102 459 108 458 c 128,-1,28
 114 457 114 457 134 456.5 c 128,-1,29
 154 456 154 456 183 457 c 128,-1,30
 212 458 212 458 244.5 459 c 128,-1,31
 277 460 277 460 305.5 461 c 128,-1,32
 334 462 334 462 353 463 c 128,-1,33
 372 464 372 464 374 464 c 2,34,-1
 390 464 l 1,35,36
 400 462 400 462 406 453 c 1,37,38
 431 406 431 406 411 302 c 0,39,40
 406 276 406 276 403 253 c 1,41,-1
 403 267 l 1,42,43
 396 131 396 131 405 23 c 1,44,-1
 412 23 l 2,45,46
 420 23 420 23 422 21 c 1,47,48
 435 25 435 25 445 12 c 0,49,50
 445 11 445 11 445.5 11 c 128,-1,51
 446 11 446 11 446 10 c 0,52,53
 453 -8 453 -8 435 -17 c 0,54,55
 430 -19 430 -19 423 -19.5 c 128,-1,56
 416 -20 416 -20 408 -21 c 1,57,58
 408 -27 408 -27 409 -31 c 1,59,60
 408 -31 408 -31 408 -30.5 c 128,-1,61
 408 -30 408 -30 407 -30 c 1,62,63
 407 -36 407 -36 402 -43 c 1,64,-1
 401 -43 l 1,0,1
376 424 m 1,65,-1
 175 420 l 2,66,67
 159 420 159 420 144.5 417.5 c 128,-1,68
 130 415 130 415 116 417 c 1,69,70
 123 361 123 361 120 301 c 128,-1,71
 117 241 117 241 115.5 193 c 128,-1,72
 114 145 114 145 115 97.5 c 128,-1,73
 116 50 116 50 109 5 c 1,74,75
 114 5 114 5 128 8 c 0,76,77
 198 23 198 23 364 23 c 1,78,79
 359 90 359 90 359 157.5 c 128,-1,80
 359 225 359 225 363 263 c 128,-1,81
 367 301 367 301 371 320 c 0,82,83
 375 340 375 340 378 360 c 0,84,85
 385 410 385 410 376 424 c 1,65,-1
172 251 m 1,86,87
 194 265 194 265 195.5 274.5 c 128,-1,88
 197 284 197 284 204 288.5 c 128,-1,89
 211 293 211 293 218 292 c 128,-1,90
 225 291 225 291 230 285 c 128,-1,91
 235 279 235 279 234 269 c 0,92,93
 231 243 231 243 210.5 227.5 c 128,-1,94
 190 212 190 212 169.5 211 c 128,-1,95
 149 210 149 210 136 226.5 c 128,-1,96
 123 243 123 243 135 281 c 0,97,98
 154 354 154 354 206 379 c 0,99,100
 214 383 214 383 227 389.5 c 128,-1,101
 240 396 240 396 259.5 397.5 c 128,-1,102
 279 399 279 399 294 391 c 128,-1,103
 309 383 309 383 316 368 c 128,-1,104
 323 353 323 353 323 334 c 128,-1,105
 323 315 323 315 318 295 c 0,106,107
 314 275 314 275 306 256 c 0,108,109
 280 189 280 189 221 156 c 1,110,111
 233 147 233 147 248 140 c 128,-1,112
 263 133 263 133 274 123 c 1,113,114
 281 115 281 115 279.5 107 c 128,-1,115
 278 99 278 99 272.5 94.5 c 128,-1,116
 267 90 267 90 258.5 90 c 128,-1,117
 250 90 250 90 243 97 c 256,118,119
 233 107 233 107 214 117 c 0,120,121
 181 134 181 134 173.5 151 c 128,-1,122
 166 168 166 168 180 178 c 1,123,124
 200 190 200 190 214 198 c 0,125,126
 228 206 228 206 240 222 c 0,127,128
 263 254 263 254 275.5 288 c 128,-1,129
 288 322 288 322 284 339.5 c 128,-1,130
 280 357 280 357 266.5 358.5 c 128,-1,131
 253 360 253 360 234 348.5 c 128,-1,132
 215 337 215 337 199 320.5 c 128,-1,133
 183 304 183 304 174 284.5 c 128,-1,134
 165 265 165 265 172 251 c 1,86,87
274 35 m 1,135,136
 265 36 265 36 259 42 c 1,137,138
 242 50 242 50 246 65 c 0,139,140
 250 79 250 79 268 81 c 1,141,142
 273 80 273 80 277 79 c 128,-1,143
 281 78 281 78 288 76 c 128,-1,144
 295 74 295 74 299 68 c 0,145,146
 302 62 302 62 302 56 c 0,147,148
 301 40 301 40 284 37 c 0,149,150
 282 36 282 36 279 36 c 128,-1,151
 276 36 276 36 274 35 c 1,135,136
EndSplineSet
EndChar

StartChar: exclam
Encoding: 33 33 5
Width: 186
GlyphClass: 2
Flags: W
LayerCount: 2
Fore
SplineSet
110 161 m 2,0,-1
 109 125 l 1,1,2
 107 106 107 106 90 104 c 0,3,4
 83 104 83 104 76.5 108.5 c 128,-1,5
 70 113 70 113 69 124 c 1,6,7
 71 193 71 193 79.5 260.5 c 128,-1,8
 88 328 88 328 90 397 c 1,9,10
 94 415 94 415 109 415 c 128,-1,11
 124 415 124 415 130 398 c 1,12,13
 127 322 127 322 112 188 c 1,14,-1
 112 199 l 1,15,16
 110 165 110 165 110 161 c 2,0,-1
120 41 m 1,17,18
 131 28 131 28 123 17 c 128,-1,19
 115 6 115 6 103 8 c 1,20,21
 99 4 99 4 94.5 0 c 128,-1,22
 90 -4 90 -4 87 -8 c 1,23,24
 71 -16 71 -16 60.5 -5.5 c 128,-1,25
 50 5 50 5 58 21 c 0,26,27
 60 25 60 25 63 28 c 128,-1,28
 66 31 66 31 67.5 33 c 128,-1,29
 69 35 69 35 69 35.5 c 128,-1,30
 69 36 69 36 70 37 c 1,31,-1
 71 37 l 1,32,33
 71 38 71 38 72 39 c 1,34,-1
 72 38 l 1,35,36
 74 39 74 39 80 44 c 0,37,38
 99 60 99 60 120 41 c 1,17,18
111 186 m 1,39,-1
 111 183 l 1,40,-1
 111 186 l 1,39,-1
EndSplineSet
EndChar

StartChar: quotedbl
Encoding: 34 34 6
Width: 245
GlyphClass: 2
Flags: W
LayerCount: 2
Fore
SplineSet
133 264 m 5,0,1
 139 322 l 5,2,3
 128 323 128 323 122.5 332.5 c 132,-1,4
 117 342 117 342 124 354 c 5,5,6
 133 362 133 362 140 366 c 4,7,8
 154 375 154 375 168 366 c 4,9,10
 171 364 171 364 174 359 c 5,11,12
 182 336 182 336 178.5 312.5 c 132,-1,13
 175 289 175 289 173.5 271.5 c 132,-1,14
 172 254 172 254 166.5 249 c 132,-1,15
 161 244 161 244 154 243.5 c 132,-1,16
 147 243 147 243 140.5 248 c 132,-1,17
 134 253 134 253 133 264 c 5,0,1
65 271 m 5,18,-1
 68 311 l 6,19,20
 70 338 70 338 68 344 c 4,21,22
 67 344 67 344 66 345 c 4,23,24
 53 359 53 359 61 372 c 132,-1,25
 69 385 69 385 87 380 c 5,26,27
 116 362 116 362 108 300 c 4,28,29
 106 284 106 284 105 272.5 c 132,-1,30
 104 261 104 261 98.5 256 c 132,-1,31
 93 251 93 251 86 250.5 c 132,-1,32
 79 250 79 250 72.5 255 c 132,-1,33
 66 260 66 260 65 271 c 5,18,-1
EndSplineSet
EndChar

StartChar: numbersign
Encoding: 35 35 7
Width: 488
GlyphClass: 2
Flags: W
LayerCount: 2
Fore
SplineSet
122 54 m 2,0,-1
 78 51 l 1,1,2
 47 51 47 51 43 66 c 0,3,4
 40 80 40 80 62 98 c 0,5,6
 86 117 86 117 97 109 c 128,-1,7
 108 101 108 101 108 91 c 1,8,9
 119 93 119 93 129 94 c 128,-1,10
 139 95 139 95 148 96 c 1,11,12
 151 115 151 115 155 133 c 128,-1,13
 159 151 159 151 163 170 c 1,14,15
 127 165 127 165 104 157 c 1,16,-1
 102 155 l 1,17,18
 86 147 86 147 75.5 157.5 c 128,-1,19
 65 168 65 168 73 184 c 1,20,21
 92 200 92 200 119 203.5 c 128,-1,22
 146 207 146 207 171 211 c 1,23,24
 173 219 173 219 174.5 227.5 c 128,-1,25
 176 236 176 236 180 254 c 0,26,27
 193 319 193 319 189 349 c 1,28,29
 192 367 192 367 208 367 c 0,30,31
 223 367 223 367 229 350 c 1,32,33
 232 323 232 323 227.5 295.5 c 128,-1,34
 223 268 223 268 220 251.5 c 128,-1,35
 217 235 217 235 216.5 230 c 128,-1,36
 216 225 216 225 214 220 c 1,37,38
 240 226 240 226 301 237 c 1,39,40
 324 324 324 324 329 390 c 1,41,42
 331 400 331 400 338 404.5 c 128,-1,43
 345 409 345 409 352 408 c 128,-1,44
 359 407 359 407 364 401 c 0,45,46
 369 396 369 396 367 372 c 0,47,48
 364 335 364 335 343 243 c 1,49,50
 377 247 377 247 412 249 c 1,51,52
 429 242 429 242 429 228 c 0,53,54
 429 212 429 212 411 209 c 1,55,56
 373 207 373 207 332 201 c 1,57,58
 327 181 327 181 321.5 162.5 c 128,-1,59
 316 144 316 144 311 125 c 1,60,61
 386 137 386 137 440 140 c 1,62,63
 457 134 457 134 457 120 c 0,64,65
 457 104 457 104 439 100 c 1,66,67
 369 96 369 96 301 82 c 1,68,69
 287 24 287 24 283 -36 c 0,70,71
 281 -56 281 -56 264 -58 c 0,72,73
 257 -58 257 -58 250.5 -53 c 128,-1,74
 244 -48 244 -48 243 -37 c 1,75,76
 247 20 247 20 259 74 c 1,77,78
 235 69 235 69 182 61 c 1,79,80
 176 25 176 25 173 -7 c 1,81,82
 166 -24 166 -24 151.5 -22 c 128,-1,83
 137 -20 137 -20 134 -2 c 1,84,85
 135 16 135 16 141 56 c 1,86,87
 131 54 131 54 122 54 c 2,0,-1
206 177 m 1,88,89
 201 158 201 158 197.5 139.5 c 128,-1,90
 194 121 194 121 190 103 c 1,91,92
 230 109 230 109 270 117 c 1,93,94
 275 137 275 137 280 155.5 c 128,-1,95
 285 174 285 174 290 194 c 1,96,97
 269 190 269 190 248 186 c 128,-1,98
 227 182 227 182 206 177 c 1,88,89
EndSplineSet
EndChar

StartChar: dollar
Encoding: 36 36 8
Width: 351
GlyphClass: 2
Flags: W
LayerCount: 2
Fore
SplineSet
212 425 m 1,0,1
 210 389 210 389 206 353 c 1,2,3
 237 375 237 375 268 391 c 1,4,-1
 270 391 l 1,5,-1
 271 392 l 1,6,-1
 271 391 l 1,7,8
 288 396 288 396 294.5 384 c 128,-1,9
 301 372 301 372 291 358 c 1,10,-1
 276 349 l 2,11,12
 274 348 274 348 272 348 c 0,13,14
 271 347 271 347 263 342 c 0,15,16
 225 321 225 321 200 304 c 1,17,18
 192 250 192 250 175 160 c 1,19,20
 196 157 196 157 217 154 c 0,21,22
 238 150 238 150 256 144 c 0,23,24
 295 129 295 129 302 84 c 0,25,26
 310 31 310 31 197 -31 c 0,27,28
 166 -48 166 -48 135 -61 c 1,29,30
 127 -126 127 -126 126 -165 c 0,31,32
 124 -184 124 -184 107 -186 c 0,33,34
 100 -186 100 -186 93.5 -181.5 c 128,-1,35
 87 -177 87 -177 86 -166 c 1,36,37
 87 -144 87 -144 89 -122.5 c 128,-1,38
 91 -101 91 -101 93 -79 c 1,39,40
 29 -103 29 -103 6 -107 c 0,41,42
 -17 -112 -17 -112 -31 -110 c 0,43,44
 -63 -107 -63 -107 -75 -80 c 0,45,46
 -83 -60 -83 -60 -68 -52 c 0,47,48
 -52 -43 -52 -43 -40 -59 c 1,49,-1
 -37 -68 l 1,50,51
 -17 -74 -17 -74 6 -67.5 c 128,-1,52
 29 -61 29 -61 41 -57 c 0,53,54
 62 -50 62 -50 87 -40 c 1,55,-1
 88 -40 l 1,56,57
 91 -38 91 -38 99 -34 c 1,58,59
 106 9 106 9 114 51 c 128,-1,60
 122 93 122 93 130 135 c 1,61,62
 78 154 78 154 64 178 c 0,63,64
 46 209 46 209 83 255 c 0,65,66
 113 289 113 289 158 320 c 0,67,68
 159 321 159 321 163 323 c 1,69,70
 169 375 169 375 172 424 c 1,71,72
 176 442 176 442 191 442 c 128,-1,73
 206 442 206 442 212 425 c 1,0,1
259 95 m 1,74,75
 246 103 246 103 221 109.5 c 128,-1,76
 196 116 196 116 168 124 c 1,77,78
 152 42 152 42 142 -14 c 1,79,80
 201 14 201 14 221 30 c 0,81,82
 264 65 264 65 259 95 c 1,74,75
155 271 m 1,83,84
 107 232 107 232 99 202 c 1,85,86
 110 183 110 183 137 171 c 1,87,88
 142 196 142 196 146 220.5 c 128,-1,89
 150 245 150 245 155 271 c 1,83,84
EndSplineSet
EndChar

StartChar: percent
Encoding: 37 37 9
Width: 381
GlyphClass: 2
Flags: W
LayerCount: 2
Fore
SplineSet
243 356 m 1,0,1
 246 374 246 374 262 374 c 0,2,3
 277 374 277 374 283 357 c 1,4,5
 292 300 292 300 177 25 c 0,6,7
 174 18 174 18 164 -2.5 c 128,-1,8
 154 -23 154 -23 144 -46 c 0,9,10
 118 -104 118 -104 119 -111 c 1,11,12
 117 -128 117 -128 102.5 -132 c 128,-1,13
 88 -136 88 -136 80 -119 c 1,14,15
 75 -98 75 -98 85.5 -76 c 128,-1,16
 96 -54 96 -54 103 -42 c 0,17,18
 110 -30 110 -30 126 8 c 0,19,20
 175 118 175 118 214 245 c 0,21,22
 218 257 218 257 224 271.5 c 128,-1,23
 230 286 230 286 234 300 c 0,24,25
 246 336 246 336 243 356 c 1,0,1
273 138 m 1,26,27
 288 159 288 159 301 160.5 c 128,-1,28
 314 162 314 162 320.5 153.5 c 128,-1,29
 327 145 327 145 326.5 134 c 128,-1,30
 326 123 326 123 319.5 117.5 c 128,-1,31
 313 112 313 112 305 113 c 1,32,-1
 304 112 l 1,33,34
 324 88 324 88 330 59 c 128,-1,35
 336 30 336 30 328 6 c 128,-1,36
 320 -18 320 -18 298 -31 c 128,-1,37
 276 -44 276 -44 242 -36 c 0,38,39
 218 -30 218 -30 224 16 c 0,40,41
 229 53 229 53 252 103 c 1,42,43
 250 104 250 104 249.5 104.5 c 128,-1,44
 249 105 249 105 247 106 c 0,45,46
 234 120 234 120 242 133 c 128,-1,47
 250 146 250 146 268 141 c 0,48,49
 270 140 270 140 270.5 139.5 c 128,-1,50
 271 139 271 139 273 138 c 1,26,27
129 292 m 1,51,52
 159 298 159 298 168 281.5 c 128,-1,53
 177 265 177 265 172 241 c 0,54,55
 168 217 168 217 150 190 c 0,56,57
 120 147 120 147 89 155 c 0,58,59
 77 158 77 158 72 159 c 0,60,61
 53 163 53 163 50 185.5 c 128,-1,62
 47 208 47 208 53.5 233.5 c 128,-1,63
 60 259 60 259 73 281.5 c 128,-1,64
 86 304 86 304 98 310 c 1,65,66
 121 319 121 319 128 295 c 0,67,68
 129 294 129 294 129 292 c 1,51,52
262 1 m 1,69,70
 288 -2 288 -2 292 26 c 0,71,72
 295 48 295 48 284 74 c 1,73,74
 262 32 262 32 262 1 c 1,69,70
102 222 m 1,75,76
 96 214 96 214 89 213 c 1,77,78
 87 204 87 204 89 196 c 1,79,80
 108 192 108 192 122 214 c 0,81,82
 135 234 135 234 135 254 c 1,83,84
 121 249 121 249 114.5 242.5 c 128,-1,85
 108 236 108 236 102 222 c 1,75,76
EndSplineSet
EndChar

StartChar: ampersand
Encoding: 38 38 10
Width: 576
GlyphClass: 2
Flags: W
LayerCount: 2
Fore
SplineSet
166 58 m 1,0,1
 120 37 120 37 99 29 c 1,2,3
 79 25 79 25 74 42 c 128,-1,4
 69 59 69 59 88 67 c 0,5,6
 126 83 126 83 142 92 c 1,7,8
 122 122 122 122 101 152 c 128,-1,9
 80 182 80 182 52 207 c 1,10,-1
 51 207 l 1,11,12
 51 206 51 206 52 206 c 1,13,14
 50 206 50 206 50 208 c 1,15,16
 48 208 48 208 46 212.5 c 128,-1,17
 44 217 44 217 45 224.5 c 128,-1,18
 46 232 46 232 50 237 c 0,19,20
 61 249 61 249 78 237 c 0,21,22
 101 217 101 217 126 182.5 c 128,-1,23
 151 148 151 148 178 111 c 1,24,25
 220 134 220 134 286 176 c 1,26,27
 202 255 202 255 268 327 c 0,28,29
 324 390 324 390 417 408 c 0,30,31
 471 419 471 419 495 407 c 0,32,33
 518 398 518 398 526 376 c 0,34,35
 535 350 535 350 508 312 c 0,36,37
 484 278 484 278 451.5 253.5 c 128,-1,38
 419 229 419 229 404 217 c 2,39,-1
 350 175 l 1,40,41
 368 160 368 160 389 143 c 128,-1,42
 410 126 410 126 428 108 c 0,43,44
 469 65 469 65 473 32.5 c 128,-1,45
 477 0 477 0 461 -21 c 0,46,47
 445 -42 445 -42 422 -54 c 0,48,49
 370 -79 370 -79 312 -63 c 0,50,51
 258 -47 258 -47 208 9 c 0,52,53
 194 25 194 25 181 40 c 2,54,-1
 166 58 l 1,0,1
315 150 m 1,55,56
 267 115 267 115 203 77 c 1,57,58
 256 10 256 10 296 -14 c 0,59,60
 350 -46 350 -46 400 -20 c 0,61,62
 460 11 460 11 407 68 c 0,63,64
 380 97 380 97 356 116 c 128,-1,65
 332 135 332 135 315 150 c 1,55,56
320 200 m 1,66,67
 447 290 447 290 486 359 c 1,68,69
 485 361 485 361 484.5 363 c 128,-1,70
 484 365 484 365 483 367 c 1,71,72
 440 384 440 384 364 346 c 0,73,74
 318 323 318 323 299 302 c 128,-1,75
 280 281 280 281 279 267 c 0,76,77
 277 242 277 242 318 203 c 0,78,79
 319 202 319 202 319 201.5 c 128,-1,80
 319 201 319 201 320 200 c 1,66,67
EndSplineSet
EndChar

StartChar: quotesingle
Encoding: 39 39 11
Width: 185
GlyphClass: 2
Flags: W
LayerCount: 2
Fore
SplineSet
114 328 m 0,0,1
 112 340 112 340 105.5 346.5 c 128,-1,2
 99 353 99 353 97.5 355 c 128,-1,3
 96 357 96 357 94 359 c 1,4,5
 84 358 84 358 77 366 c 128,-1,6
 70 374 70 374 72 380.5 c 128,-1,7
 74 387 74 387 74 387.5 c 128,-1,8
 74 388 74 388 75 389 c 0,9,10
 81 401 81 401 96 402 c 1,11,12
 118 397 118 397 137 371 c 0,13,14
 166 336 166 336 150 296 c 0,15,16
 136 263 136 263 95 237 c 0,17,18
 76 227 76 227 66 242 c 0,19,20
 55 259 55 259 72 270 c 1,21,22
 120 296 120 296 114 328 c 0,0,1
EndSplineSet
EndChar

StartChar: parenleft
Encoding: 40 40 12
Width: 218
GlyphClass: 2
Flags: W
LayerCount: 2
Fore
SplineSet
196 424 m 1,0,1
 201 409 201 409 192 397 c 0,2,3
 191 396 191 396 187 390 c 1,4,5
 175 383 175 383 164 389 c 1,6,7
 138 378 138 378 120.5 354 c 128,-1,8
 103 330 103 330 88 305.5 c 128,-1,9
 73 281 73 281 63 251.5 c 128,-1,10
 53 222 53 222 51 192 c 0,11,12
 47 125 47 125 84 76 c 0,13,14
 128 20 128 20 222 0 c 0,15,16
 248 -6 248 -6 266.5 -10 c 128,-1,17
 285 -14 285 -14 289 -21 c 128,-1,18
 293 -28 293 -28 291.5 -35 c 128,-1,19
 290 -42 290 -42 283.5 -47 c 128,-1,20
 277 -52 277 -52 258.5 -48 c 128,-1,21
 240 -44 240 -44 209 -37.5 c 128,-1,22
 178 -31 178 -31 148 -20 c 0,23,24
 80 5 80 5 52 53 c 0,25,26
 18 110 18 110 13.5 135.5 c 128,-1,27
 9 161 9 161 9 187.5 c 128,-1,28
 9 214 9 214 21.5 255 c 128,-1,29
 34 296 34 296 55.5 334 c 128,-1,30
 77 372 77 372 107.5 400 c 128,-1,31
 138 428 138 428 174 434 c 0,32,33
 186 436 186 436 196 424 c 1,0,1
EndSplineSet
EndChar

StartChar: parenright
Encoding: 41 41 13
Width: 205
GlyphClass: 2
Flags: W
LayerCount: 2
Fore
SplineSet
32 421 m 1,0,1
 15 429 15 429 19 443.5 c 128,-1,2
 23 458 23 458 40 460 c 1,3,4
 56 455 56 455 74 452 c 0,5,6
 112 444 112 444 132 418 c 0,7,8
 142 404 142 404 158 385.5 c 128,-1,9
 174 367 174 367 181 335.5 c 128,-1,10
 188 304 188 304 186 270 c 0,11,12
 184 220 184 220 172.5 170 c 128,-1,13
 161 120 161 120 147.5 100 c 128,-1,14
 134 80 134 80 121.5 56.5 c 128,-1,15
 109 33 109 33 91 15.5 c 128,-1,16
 73 -2 73 -2 51.5 -15.5 c 128,-1,17
 30 -29 30 -29 6.5 -40 c 128,-1,18
 -17 -51 -17 -51 -41 -63 c 1,19,20
 -58 -66 -58 -66 -66 -52 c 128,-1,21
 -74 -38 -74 -38 -58 -27 c 1,22,23
 -29 -12 -29 -12 -9.5 -3 c 128,-1,24
 10 6 10 6 26 16 c 0,25,26
 59 37 59 37 90 82 c 1,27,28
 111 110 111 110 127 156 c 0,29,30
 142 202 142 202 146 250 c 0,31,32
 154 364 154 364 86 406 c 1,33,34
 75 414 75 414 60.5 415.5 c 128,-1,35
 46 417 46 417 32 421 c 1,0,1
EndSplineSet
EndChar

StartChar: asterisk
Encoding: 42 42 14
Width: 361
GlyphClass: 2
Flags: W
LayerCount: 2
Fore
SplineSet
306 344 m 1,0,1
 323 338 323 338 323 323 c 128,-1,2
 323 308 323 308 305 304 c 1,3,-1
 228 304 l 1,4,5
 264 268 264 268 293 247 c 0,6,7
 310 235 310 235 300 219 c 0,8,9
 291 204 291 204 272 212 c 1,10,11
 248 229 248 229 196 281 c 1,12,13
 194 234 194 234 190 215 c 1,14,15
 183 198 183 198 168.5 200 c 128,-1,16
 154 202 154 202 151 220 c 1,17,18
 153 228 153 228 154 237 c 128,-1,19
 155 246 155 246 156 255 c 1,20,21
 124 219 124 219 99 196 c 1,22,23
 83 188 83 188 72.5 198.5 c 128,-1,24
 62 209 62 209 70 225 c 1,25,26
 107 258 107 258 144 304 c 1,27,-1
 80 304 l 1,28,29
 69 305 69 305 64 312 c 0,30,31
 60 318 60 318 60 325 c 0,32,33
 61 342 61 342 81 344 c 1,34,-1
 125 344 l 1,35,36
 114 351 114 351 103 356 c 128,-1,37
 92 361 92 361 80 369 c 1,38,39
 67 383 67 383 75 396 c 128,-1,40
 83 409 83 409 101 404 c 1,41,42
 114 395 114 395 127 388.5 c 128,-1,43
 140 382 140 382 153 374 c 1,44,45
 151 384 151 384 150 394 c 128,-1,46
 149 404 149 404 147 414 c 1,47,48
 136 428 136 428 144 440.5 c 128,-1,49
 152 453 152 453 170 448 c 1,50,51
 190 435 190 435 195 374 c 1,52,53
 211 398 211 398 220 420 c 0,54,55
 229 437 229 437 244 432 c 0,56,57
 260 427 260 427 258 409 c 1,58,59
 243 373 243 373 222 344 c 1,60,-1
 306 344 l 1,0,1
EndSplineSet
EndChar

StartChar: plus
Encoding: 43 43 15
Width: 463
GlyphClass: 2
Flags: W
LayerCount: 2
Fore
SplineSet
213 140 m 1,0,1
 102 134 102 134 66 134 c 1,2,3
 55 135 55 135 50 142 c 0,4,5
 46 148 46 148 46 155 c 0,6,7
 47 172 47 172 67 174 c 1,8,9
 103 174 103 174 139.5 176 c 128,-1,10
 176 178 176 178 213 180 c 1,11,12
 214 197 214 197 216 213 c 128,-1,13
 218 229 218 229 220 245 c 2,14,-1
 222 277 l 1,15,16
 222 299 222 299 210 304 c 1,17,18
 197 318 197 318 205 331 c 128,-1,19
 213 344 213 344 231 339 c 1,20,21
 272 320 272 320 260 239 c 0,22,23
 255 206 255 206 255 184 c 1,24,25
 294 186 294 186 333 188 c 128,-1,26
 372 190 372 190 411 191 c 1,27,28
 428 184 428 184 428 170 c 0,29,30
 428 154 428 154 410 151 c 1,31,32
 369 150 369 150 256 144 c 1,33,34
 259 39 259 39 244 -14 c 1,35,36
 236 -33 236 -33 219 -28 c 128,-1,37
 202 -23 202 -23 206 -3 c 1,38,39
 217 32 217 32 216 68 c 128,-1,40
 215 104 215 104 213 140 c 1,0,1
EndSplineSet
EndChar

StartChar: comma
Encoding: 44 44 16
Width: 150
GlyphClass: 2
Flags: W
LayerCount: 2
Fore
SplineSet
94 44 m 1,0,1
 81 36 81 36 68 49 c 1,2,3
 58 67 58 67 67.5 78.5 c 128,-1,4
 77 90 77 90 92 90 c 128,-1,5
 107 90 107 90 122.5 76.5 c 128,-1,6
 138 63 138 63 140 31 c 0,7,8
 142 15 142 15 131 -2 c 0,9,10
 99 -54 99 -54 63 -80 c 0,11,12
 27 -107 27 -107 17.5 -104.5 c 128,-1,13
 8 -102 8 -102 4 -96 c 0,14,15
 -7 -79 -7 -79 10 -68 c 0,16,17
 54 -37 54 -37 69 -21 c 0,18,19
 106 18 106 18 94 44 c 1,0,1
EndSplineSet
EndChar

StartChar: hyphen
Encoding: 45 45 17
Width: 322
GlyphClass: 2
Flags: W
LayerCount: 2
Fore
SplineSet
299 191 m 5,0,1
 316 184 316 184 316 170 c 4,2,3
 316 154 316 154 298 151 c 5,4,5
 234 150 234 150 170 145.5 c 132,-1,6
 106 141 106 141 42 140 c 5,7,8
 31 141 31 141 26 147 c 4,9,10
 22 153 22 153 22 161 c 4,11,12
 23 178 23 178 43 180 c 4,13,14
 108 181 108 181 171.5 185.5 c 132,-1,15
 235 190 235 190 299 191 c 5,0,1
EndSplineSet
EndChar

StartChar: period
Encoding: 46 46 18
Width: 150
GlyphClass: 2
Flags: W
LayerCount: 2
Fore
SplineSet
80 -8 m 1,0,1
 65 -16 65 -16 49 0 c 0,2,3
 37 7 37 7 33 23.5 c 128,-1,4
 29 40 29 40 32.5 56.5 c 128,-1,5
 36 73 36 73 48 84 c 128,-1,6
 60 95 60 95 76.5 92.5 c 128,-1,7
 93 90 93 90 99 83 c 1,8,9
 104 83 104 83 113 77 c 128,-1,10
 122 71 122 71 123 58 c 0,11,12
 124 46 124 46 118 32 c 0,13,14
 106 2 106 2 80 -8 c 1,0,1
EndSplineSet
EndChar

StartChar: slash
Encoding: 47 47 19
Width: 207
GlyphClass: 2
Flags: W
LayerCount: 2
Fore
SplineSet
179 396 m 5,0,1
 188 413 188 413 203 408 c 4,2,3
 219 403 219 403 217 385 c 5,4,5
 180 234 180 234 88 46 c 4,6,7
 68 4 68 4 59.5 -9 c 132,-1,8
 51 -22 51 -22 47.5 -31.5 c 132,-1,9
 44 -41 44 -41 43 -38 c 5,10,11
 34 -49 34 -49 26 -46 c 4,12,13
 9 -41 9 -41 7 -26 c 4,14,15
 7 -12 7 -12 36 39 c 132,-1,16
 65 90 65 90 69 98 c 4,17,18
 148 270 148 270 179 396 c 5,0,1
EndSplineSet
EndChar

StartChar: zero
Encoding: 48 48 20
Width: 382
GlyphClass: 2
Flags: W
LayerCount: 2
Fore
SplineSet
190 316 m 1,0,1
 185 332 185 332 204 339 c 0,2,3
 238 352 238 352 272 362 c 1,4,5
 282 363 282 363 290.5 356 c 128,-1,6
 299 349 299 349 309 343 c 128,-1,7
 319 337 319 337 326 322.5 c 128,-1,8
 333 308 333 308 331.5 281.5 c 128,-1,9
 330 255 330 255 321 224 c 128,-1,10
 312 193 312 193 297 161 c 128,-1,11
 282 129 282 129 266 100 c 0,12,13
 236 46 236 46 215.5 23.5 c 128,-1,14
 195 1 195 1 179 -12 c 0,15,16
 162 -25 162 -25 144 -33 c 0,17,18
 101 -54 101 -54 70 -34 c 0,19,20
 28 -6 28 -6 42 79 c 0,21,22
 54 155 54 155 98 229 c 0,23,24
 144 307 144 307 185 316 c 1,25,-1
 190 316 l 1,0,1
271 320 m 1,26,27
 260 316 260 316 249 312.5 c 128,-1,28
 238 309 238 309 227 305 c 1,29,30
 238 296 238 296 233 282 c 0,31,32
 228 267 228 267 202 273 c 0,33,34
 198 274 198 274 193 275 c 1,35,36
 172 260 172 260 146.5 225 c 128,-1,37
 121 190 121 190 103 149 c 0,38,39
 59 48 59 48 91 3 c 1,40,41
 101 4 101 4 110.5 2 c 128,-1,42
 120 0 120 0 129 4 c 0,43,44
 183 28 183 28 232 114 c 0,45,46
 276 192 276 192 287 260 c 0,47,48
 289 273 289 273 286 307 c 1,49,50
 279 314 279 314 271 320 c 1,26,27
EndSplineSet
EndChar

StartChar: one
Encoding: 49 49 21
Width: 238
GlyphClass: 2
Flags: W
LayerCount: 2
Fore
SplineSet
127 308 m 1,0,1
 131 326 131 326 146 326 c 128,-1,2
 161 326 161 326 167 309 c 1,3,4
 167 299 167 299 164 290 c 1,5,6
 159 242 159 242 148 195.5 c 128,-1,7
 137 149 137 149 132 117 c 128,-1,8
 127 85 127 85 125.5 66.5 c 128,-1,9
 124 48 124 48 122 29 c 0,10,11
 116 -15 116 -15 102 -41 c 1,12,13
 92 -55 92 -55 80 -50 c 128,-1,14
 68 -45 68 -45 65 -30 c 1,15,-1
 65 -26 l 1,16,17
 66 -20 66 -20 70 -15 c 1,18,19
 78 11 78 11 89 89.5 c 128,-1,20
 100 168 100 168 104 190.5 c 128,-1,21
 108 213 108 213 113.5 238 c 128,-1,22
 119 263 119 263 124 289 c 1,23,24
 122 299 122 299 127 307 c 1,25,-1
 127 308 l 1,0,1
EndSplineSet
EndChar

StartChar: two
Encoding: 50 50 22
Width: 344
GlyphClass: 2
Flags: W
LayerCount: 2
Fore
SplineSet
119 230 m 1,0,1
 100 220 100 220 90 235 c 0,2,3
 79 252 79 252 93.5 262 c 128,-1,4
 108 272 108 272 126.5 282 c 128,-1,5
 145 292 145 292 165.5 299.5 c 128,-1,6
 186 307 186 307 206.5 310.5 c 128,-1,7
 227 314 227 314 244 310 c 0,8,9
 282 301 282 301 286 255 c 0,10,11
 291 200 291 200 231 124 c 0,12,13
 189 71 189 71 126 23 c 0,14,15
 125 23 125 23 125 22 c 1,16,17
 128 23 128 23 130 23 c 0,18,19
 133 23 133 23 164 32 c 0,20,21
 247 52 247 52 360 44 c 1,22,23
 368 48 368 48 376.5 44 c 128,-1,24
 385 40 385 40 389 29 c 1,25,-1
 389 28 l 1,26,27
 388 13 388 13 376 7 c 1,28,29
 358 1 358 1 337 5 c 128,-1,30
 316 9 316 9 298 9 c 0,31,32
 237 9 237 9 180 -5 c 128,-1,33
 123 -19 123 -19 99 -25 c 128,-1,34
 75 -31 75 -31 65 -38 c 128,-1,35
 55 -45 55 -45 44.5 -45 c 128,-1,36
 34 -45 34 -45 28 -40 c 128,-1,37
 22 -35 22 -35 20 -28 c 0,38,39
 14 -11 14 -11 29 0 c 0,40,41
 105 55 105 55 132 79 c 0,42,43
 193 132 193 132 221 181 c 128,-1,44
 249 230 249 230 246 251 c 128,-1,45
 243 272 243 272 223 273.5 c 128,-1,46
 203 275 203 275 173.5 261.5 c 128,-1,47
 144 248 144 248 119 230 c 1,0,1
EndSplineSet
EndChar

StartChar: three
Encoding: 51 51 23
Width: 409
GlyphClass: 2
Flags: W
LayerCount: 2
Fore
SplineSet
235 297 m 5,0,-1
 264 298 l 6,1,2
 270 298 270 298 285 292 c 5,3,4
 303 278 303 278 289 258 c 5,5,6
 277 243 277 243 254.5 234 c 132,-1,7
 232 225 232 225 216 212 c 5,8,9
 236 204 236 204 262 198 c 132,-1,10
 288 192 288 192 312 184 c 132,-1,11
 336 176 336 176 353 164 c 132,-1,12
 370 152 370 152 372.5 128.5 c 132,-1,13
 375 105 375 105 362.5 83 c 132,-1,14
 350 61 350 61 328 43.5 c 132,-1,15
 306 26 306 26 277.5 14 c 132,-1,16
 249 2 249 2 219.5 -4.5 c 132,-1,17
 190 -11 190 -11 163 -11 c 132,-1,18
 136 -11 136 -11 118.5 -4.5 c 132,-1,19
 101 2 101 2 92.5 5.5 c 132,-1,20
 84 9 84 9 77 13.5 c 132,-1,21
 70 18 70 18 64 24 c 6,22,-1
 45 43 l 5,23,24
 39 60 39 60 47 67.5 c 132,-1,25
 55 75 55 75 61.5 75 c 132,-1,26
 68 75 68 75 76 69 c 5,27,28
 135 10 135 10 234 40 c 4,29,30
 288 56 288 56 318 88 c 4,31,32
 335 106 335 106 331 124 c 260,33,34
 328 139 328 139 262 157 c 4,35,36
 188 177 188 177 173 188 c 5,37,38
 163 199 163 199 166 212 c 5,39,40
 173 228 173 228 186 237 c 132,-1,41
 199 246 199 246 213 254 c 5,42,43
 134 249 134 249 103 243 c 5,44,45
 97 237 97 237 90 236 c 5,46,-1
 85 236 l 5,47,48
 71 239 71 239 66 251 c 132,-1,49
 61 263 61 263 74 273 c 5,50,51
 104 292 104 292 178 294 c 4,52,53
 216 295 216 295 222 296 c 5,54,-1
 235 297 l 5,0,-1
EndSplineSet
EndChar

StartChar: four
Encoding: 52 52 24
Width: 435
GlyphClass: 2
Flags: W
LayerCount: 2
Fore
SplineSet
125 104 m 5,0,1
 176 119 176 119 237 115 c 5,2,3
 268 228 268 228 283 243 c 5,4,5
 303 257 303 257 316 239 c 5,6,7
 320 231 320 231 319 219 c 132,-1,8
 318 207 318 207 311 203 c 5,9,10
 302 175 302 175 295 158 c 4,11,12
 286 134 286 134 279 109 c 5,13,14
 334 97 334 97 349.5 87.5 c 132,-1,15
 365 78 365 78 374 73 c 5,16,17
 384 81 384 81 395 75 c 132,-1,18
 406 69 406 69 405 54 c 5,19,20
 400 35 400 35 386 33.5 c 132,-1,21
 372 32 372 32 354.5 38 c 132,-1,22
 337 44 337 44 320 54 c 4,23,24
 303 65 303 65 294 66 c 4,25,26
 283 69 283 69 268 71 c 5,27,28
 261 48 261 48 254.5 25 c 132,-1,29
 248 2 248 2 242.5 -14.5 c 132,-1,30
 237 -31 237 -31 230 -34 c 132,-1,31
 223 -37 223 -37 216 -35 c 4,32,33
 199 -30 199 -30 203 -10 c 4,34,35
 205 -1 205 -1 211.5 22.5 c 132,-1,36
 218 46 218 46 226 76 c 5,37,38
 129 81 129 81 67 32 c 5,39,40
 52 23 52 23 41 32.5 c 132,-1,41
 30 42 30 42 36 57 c 5,42,-1
 36 58 l 5,43,44
 37 59 37 59 43.5 65.5 c 132,-1,45
 50 72 50 72 73 102 c 132,-1,46
 96 132 96 132 121 168 c 4,47,48
 180 252 180 252 196 293 c 5,49,50
 190 302 190 302 194.5 312 c 132,-1,51
 199 322 199 322 209 323 c 4,52,53
 241 326 241 326 238 299 c 4,54,55
 232 260 232 260 164 158 c 4,56,57
 144 129 144 129 125 104 c 5,0,1
EndSplineSet
EndChar

StartChar: five
Encoding: 53 53 25
Width: 368
GlyphClass: 2
Flags: W
LayerCount: 2
Fore
SplineSet
316 303 m 1,0,1
 333 296 333 296 333 282 c 0,2,3
 333 266 333 266 315 263 c 1,4,5
 271 262 271 262 228 257 c 0,6,7
 141 247 141 247 137 251 c 1,8,9
 126 235 126 235 112.5 219.5 c 128,-1,10
 99 204 99 204 90 190 c 1,11,12
 112 192 112 192 136 200 c 128,-1,13
 160 208 160 208 184 213 c 0,14,15
 239 225 239 225 272 193 c 0,16,17
 293 172 293 172 291 134 c 0,18,19
 289 100 289 100 268 75 c 0,20,21
 226 27 226 27 170.5 5.5 c 128,-1,22
 115 -16 115 -16 52 -2 c 1,23,24
 35 6 35 6 39 20.5 c 128,-1,25
 43 35 43 35 60 37 c 1,26,27
 162 15 162 15 230 93 c 0,28,29
 250 117 250 117 252 136 c 128,-1,30
 254 155 254 155 240.5 167.5 c 128,-1,31
 227 180 227 180 204 178 c 128,-1,32
 181 176 181 176 155 168.5 c 128,-1,33
 129 161 129 161 103 154 c 128,-1,34
 77 147 77 147 55 152 c 1,35,36
 47 155 47 155 45 159.5 c 128,-1,37
 43 164 43 164 41 172 c 1,38,39
 42 196 42 196 72 232 c 0,40,41
 84 246 84 246 96 259 c 128,-1,42
 108 272 108 272 114 287 c 1,43,44
 121 300 121 300 132 299.5 c 128,-1,45
 143 299 143 299 149 290 c 1,46,47
 181 292 181 292 223 296.5 c 128,-1,48
 265 301 265 301 316 303 c 1,0,1
EndSplineSet
EndChar

StartChar: six
Encoding: 54 54 26
Width: 344
GlyphClass: 2
Flags: W
LayerCount: 2
Fore
SplineSet
224 325 m 0,0,1
 234 343 234 343 252 335 c 0,2,3
 258 332 258 332 261 324.5 c 128,-1,4
 264 317 264 317 255 296.5 c 128,-1,5
 246 276 246 276 215 236 c 128,-1,6
 184 196 184 196 155 155 c 1,7,8
 180 166 180 166 196.5 168.5 c 128,-1,9
 213 171 213 171 228 173.5 c 128,-1,10
 243 176 243 176 255 171 c 0,11,12
 298 153 298 153 306 124 c 128,-1,13
 314 95 314 95 299.5 63.5 c 128,-1,14
 285 32 285 32 253.5 4 c 128,-1,15
 222 -24 222 -24 186.5 -39.5 c 128,-1,16
 151 -55 151 -55 117.5 -54 c 128,-1,17
 84 -53 84 -53 65 -25 c 0,18,19
 58 -15 58 -15 56.5 -3.5 c 128,-1,20
 55 8 55 8 51 21.5 c 128,-1,21
 47 35 47 35 55 51 c 128,-1,22
 63 67 63 67 68.5 83.5 c 128,-1,23
 74 100 74 100 84 115 c 128,-1,24
 94 130 94 130 105.5 149.5 c 128,-1,25
 117 169 117 169 134 190 c 0,26,27
 152 211 152 211 168 234 c 0,28,29
 206 285 206 285 224 325 c 0,0,1
174 120 m 0,30,31
 159 114 159 114 146 109 c 128,-1,32
 133 104 133 104 126 110 c 1,33,34
 86 42 86 42 98 2 c 1,35,36
 118 -6 118 -6 131 -10 c 128,-1,37
 144 -14 144 -14 163 -8 c 1,38,39
 178 1 178 1 189 7 c 0,40,41
 200 13 200 13 210 20 c 0,42,43
 230 33 230 33 246.5 54.5 c 128,-1,44
 263 76 263 76 266.5 92 c 128,-1,45
 270 108 270 108 264 118 c 0,46,47
 246 150 246 150 174 120 c 0,30,31
EndSplineSet
EndChar

StartChar: seven
Encoding: 55 55 27
Width: 394
GlyphClass: 2
Flags: W
LayerCount: 2
Fore
SplineSet
208 139 m 1,0,1
 167 134 167 134 160.5 142.5 c 128,-1,2
 154 151 154 151 154 158 c 0,3,4
 155 175 155 175 176 177 c 0,5,6
 190 178 190 178 205 178.5 c 128,-1,7
 220 179 220 179 234 180 c 1,8,9
 240 191 240 191 243.5 198 c 128,-1,10
 247 205 247 205 251.5 212.5 c 128,-1,11
 256 220 256 220 262 233 c 128,-1,12
 268 246 268 246 275 259 c 1,13,14
 226 245 226 245 206 246 c 128,-1,15
 186 247 186 247 168 252 c 128,-1,16
 150 257 150 257 132 263 c 0,17,18
 85 279 85 279 66.5 280 c 128,-1,19
 48 281 48 281 43 287.5 c 128,-1,20
 38 294 38 294 38 301 c 0,21,22
 39 318 39 318 60 320 c 1,23,24
 87 317 87 317 124.5 306 c 128,-1,25
 162 295 162 295 182.5 290 c 128,-1,26
 203 285 203 285 220 285.5 c 128,-1,27
 237 286 237 286 249.5 291 c 128,-1,28
 262 296 262 296 275 301 c 0,29,30
 306 313 306 313 326 307 c 1,31,32
 334 301 334 301 336 292 c 128,-1,33
 338 283 338 283 333.5 272 c 128,-1,34
 329 261 329 261 321.5 250 c 128,-1,35
 314 239 314 239 306.5 228.5 c 128,-1,36
 299 218 299 218 295.5 211 c 128,-1,37
 292 204 292 204 288.5 197 c 128,-1,38
 285 190 285 190 281 183 c 1,39,-1
 302 183 l 2,40,41
 312 183 312 183 323 184 c 1,42,43
 340 178 340 178 340 164 c 0,44,45
 340 148 340 148 322 144 c 1,46,47
 305 143 305 143 289.5 143 c 128,-1,48
 274 143 274 143 257 142 c 1,49,50
 216 71 216 71 150 -10 c 0,51,52
 144 -18 144 -18 131 -20 c 1,53,54
 114 -17 114 -17 111 -4.5 c 128,-1,55
 108 8 108 8 120 16 c 1,56,57
 128 25 128 25 135 35 c 0,58,59
 142 46 142 46 152 58 c 0,60,61
 179 92 179 92 208 139 c 1,0,1
EndSplineSet
EndChar

StartChar: eight
Encoding: 56 56 28
Width: 388
GlyphClass: 2
Flags: W
LayerCount: 2
Fore
SplineSet
184 286 m 0,0,1
 210 296 210 296 227.5 303.5 c 128,-1,2
 245 311 245 311 252 308 c 0,3,4
 259 304 259 304 263 298 c 0,5,6
 271 281 271 281 253 271 c 1,7,8
 236 264 236 264 214 256 c 128,-1,9
 192 248 192 248 170 237 c 0,10,11
 117 210 117 210 105 178 c 1,12,13
 113 170 113 170 129.5 169 c 128,-1,14
 146 168 146 168 166 168 c 1,15,16
 203 206 203 206 241 237 c 128,-1,17
 279 268 279 268 302 290 c 1,18,19
 320 302 320 302 331.5 290.5 c 128,-1,20
 343 279 343 279 331 261 c 1,21,22
 304 235 304 235 275.5 213 c 128,-1,23
 247 191 247 191 221 166 c 1,24,25
 250 164 250 164 273 152 c 128,-1,26
 296 140 296 140 299.5 111 c 128,-1,27
 303 82 303 82 283.5 53 c 128,-1,28
 264 24 264 24 234.5 -1 c 128,-1,29
 205 -26 205 -26 172.5 -42.5 c 128,-1,30
 140 -59 140 -59 124.5 -59.5 c 128,-1,31
 109 -60 109 -60 102 -56.5 c 128,-1,32
 95 -53 95 -53 87 -51 c 1,33,34
 76 -45 76 -45 72 -31 c 1,35,36
 63 46 63 46 133 132 c 1,37,38
 89 137 89 137 65 162 c 1,39,40
 61 171 61 171 63 181 c 1,41,42
 90 248 90 248 184 286 c 0,0,1
256 114 m 1,43,44
 232 125 232 125 185 128 c 1,45,46
 162 105 162 105 138 63 c 0,47,48
 136 58 136 58 135 51.5 c 128,-1,49
 134 45 134 45 129 45 c 2,50,-1
 128 45 l 1,51,52
 108 7 108 7 111 -17 c 1,53,54
 142 -28 142 -28 205 27 c 0,55,56
 241 59 241 59 250 81 c 128,-1,57
 259 103 259 103 256 114 c 1,43,44
EndSplineSet
EndChar

StartChar: nine
Encoding: 57 57 29
Width: 371
GlyphClass: 2
Flags: W
LayerCount: 2
Fore
SplineSet
235 299 m 1,0,1
 233 283 233 283 221 278 c 128,-1,2
 209 273 209 273 200 284 c 1,3,4
 170 278 170 278 126 230 c 0,5,6
 81 182 81 182 85 157 c 1,7,8
 106 152 106 152 131.5 167.5 c 128,-1,9
 157 183 157 183 183 205.5 c 128,-1,10
 209 228 209 228 232.5 250.5 c 128,-1,11
 256 273 256 273 272 282 c 1,12,13
 285 287 285 287 294 281 c 128,-1,14
 303 275 303 275 301 261 c 1,15,16
 294 233 294 233 275.5 208.5 c 128,-1,17
 257 184 257 184 248 155 c 128,-1,18
 239 126 239 126 232 97 c 0,19,20
 226 67 226 67 218 38 c 0,21,22
 198 -31 198 -31 166 -71 c 1,23,24
 150 -79 150 -79 139.5 -68.5 c 128,-1,25
 129 -58 129 -58 137 -42 c 1,26,27
 174 5 174 5 196 113 c 0,28,29
 202 140 202 140 206.5 154.5 c 128,-1,30
 211 169 211 169 211.5 172 c 128,-1,31
 212 175 212 175 213 177 c 1,32,33
 154 126 154 126 100 120 c 0,34,35
 80 118 80 118 66.5 122.5 c 128,-1,36
 53 127 53 127 50.5 131.5 c 128,-1,37
 48 136 48 136 45.5 151 c 128,-1,38
 43 166 43 166 51.5 189.5 c 128,-1,39
 60 213 60 213 74 234 c 0,40,41
 109 284 109 284 167 313 c 128,-1,42
 225 342 225 342 235 299 c 1,0,1
EndSplineSet
EndChar

StartChar: colon
Encoding: 58 58 30
Width: 164
GlyphClass: 2
Flags: W
LayerCount: 2
Fore
SplineSet
99 294 m 1,0,1
 98 289 98 289 97.5 278.5 c 128,-1,2
 97 268 97 268 91.5 263 c 128,-1,3
 86 258 86 258 79 257.5 c 128,-1,4
 72 257 72 257 65.5 262 c 128,-1,5
 59 267 59 267 58.5 280.5 c 128,-1,6
 58 294 58 294 63 312 c 1,7,8
 68 322 68 322 77.5 324 c 128,-1,9
 87 326 87 326 95 318 c 1,10,-1
 96 318 l 1,11,12
 106 306 106 306 99 294 c 1,0,1
69 116.5 m 128,-1,14
 70 120 70 120 75 124 c 128,-1,15
 80 128 80 128 88 128 c 128,-1,16
 96 128 96 128 101 124 c 0,17,18
 113 113 113 113 103 96 c 1,19,20
 94 79 94 79 78 84 c 0,21,22
 62 89 62 89 66 109 c 1,23,13
 68 113 68 113 69 116.5 c 128,-1,14
EndSplineSet
EndChar

StartChar: semicolon
Encoding: 59 59 31
Width: 221
GlyphClass: 2
Flags: W
LayerCount: 2
Fore
SplineSet
98 15 m 0,0,1
 94 21 94 21 94 28 c 0,2,3
 95 45 95 45 115 47 c 1,4,5
 174 38 174 38 158 1 c 0,6,7
 146 -29 146 -29 102 -57 c 0,8,9
 83 -67 83 -67 73 -52 c 0,10,11
 62 -35 62 -35 81 -23 c 128,-1,12
 100 -11 100 -11 116 7 c 1,13,-1
 114 7 l 1,14,15
 103 9 103 9 98 15 c 0,0,1
99.5 194.5 m 128,-1,17
 89 205 89 205 97 221 c 1,18,19
 110 232 110 232 122 232 c 1,20,21
 138 227 138 227 139 214.5 c 128,-1,22
 140 202 140 202 129 195 c 1,23,-1
 126 192 l 1,24,16
 110 184 110 184 99.5 194.5 c 128,-1,17
EndSplineSet
EndChar

StartChar: less
Encoding: 60 60 32
Width: 474
GlyphClass: 2
Flags: W
LayerCount: 2
Fore
SplineSet
218.5 248.5 m 132,-1,1
 251 267 251 267 273 278.5 c 132,-1,2
 295 290 295 290 306.5 294.5 c 132,-1,3
 318 299 318 299 329 304 c 5,4,5
 334 313 334 313 342 313.5 c 132,-1,6
 350 314 350 314 351 313 c 4,7,8
 365 309 365 309 367 299 c 132,-1,9
 369 289 369 289 361 278 c 5,10,11
 346 267 346 267 328.5 260.5 c 132,-1,12
 311 254 311 254 286.5 240.5 c 132,-1,13
 262 227 262 227 230.5 207 c 132,-1,14
 199 187 199 187 177.5 178 c 132,-1,15
 156 169 156 169 144 165.5 c 132,-1,16
 132 162 132 162 120 157 c 5,17,18
 168 142 168 142 241 88 c 4,19,20
 307 40 307 40 348 22.5 c 132,-1,21
 389 5 389 5 429 0 c 5,22,23
 446 -6 446 -6 446 -20 c 4,24,25
 446 -36 446 -36 428 -40 c 5,26,27
 352 -30 352 -30 286 10 c 4,28,29
 256 28 256 28 227 49 c 4,30,31
 198 71 198 71 174 86 c 4,32,33
 133 111 133 111 125.5 113.5 c 132,-1,34
 118 116 118 116 110 118 c 132,-1,35
 102 120 102 120 92 122 c 4,36,37
 68 127 68 127 60 133 c 4,38,39
 47 147 47 147 56 163 c 5,40,41
 70 180 70 180 92.5 188.5 c 132,-1,42
 115 197 115 197 129 201.5 c 132,-1,43
 143 206 143 206 164.5 218 c 132,-1,0
 186 230 186 230 218.5 248.5 c 132,-1,1
EndSplineSet
EndChar

StartChar: equal
Encoding: 61 61 33
Width: 422
GlyphClass: 2
Flags: W
LayerCount: 2
Fore
SplineSet
352 72 m 1,0,1
 332 72 332 72 301 75 c 128,-1,2
 270 78 270 78 236 80 c 0,3,4
 149 84 149 84 110 72 c 1,5,6
 107 64 107 64 99 60 c 1,7,8
 92 58 92 58 86 55 c 128,-1,9
 80 52 80 52 72 53.5 c 128,-1,10
 64 55 64 55 60 57 c 128,-1,11
 56 59 56 59 52 67 c 1,12,-1
 52 70 l 1,13,14
 51 78 51 78 55 89 c 1,15,16
 109 134 109 134 283 117 c 0,17,18
 324 113 324 113 353 112 c 1,19,20
 370 106 370 106 370 91 c 128,-1,21
 370 76 370 76 352 72 c 1,0,1
100 154 m 1,22,23
 89 155 89 155 84 162 c 0,24,25
 80 168 80 168 80 175 c 0,26,27
 81 192 81 192 101 194 c 0,28,29
 131 195 131 195 186 201 c 0,30,31
 276 211 276 211 326 204 c 1,32,33
 346 198 346 198 342 180 c 0,34,35
 340 173 340 173 334 168 c 128,-1,36
 328 163 328 163 309.5 166 c 128,-1,37
 291 169 291 169 263.5 168.5 c 128,-1,38
 236 168 236 168 209 165 c 128,-1,39
 182 162 182 162 155 158.5 c 128,-1,40
 128 155 128 155 100 154 c 1,22,23
EndSplineSet
EndChar

StartChar: greater
Encoding: 62 62 34
Width: 525
GlyphClass: 2
Flags: W
LayerCount: 2
Fore
SplineSet
152 264 m 128,-1,1
 125 272 125 272 105 273.5 c 128,-1,2
 85 275 85 275 80 282 c 0,3,4
 76 288 76 288 76 295 c 0,5,6
 77 312 77 312 97 314 c 1,7,8
 150 309 150 309 195 291 c 128,-1,9
 240 273 240 273 267.5 260.5 c 128,-1,10
 295 248 295 248 318 240 c 128,-1,11
 341 232 341 232 361 227 c 0,12,13
 380 223 380 223 400 214 c 0,14,15
 448 195 448 195 468 171 c 0,16,17
 477 161 477 161 471 147 c 1,18,19
 432 92 432 92 307 22 c 0,20,21
 193 -41 193 -41 110 -58 c 1,22,23
 92 -55 92 -55 90 -40.5 c 128,-1,24
 88 -26 88 -26 105 -19 c 1,25,26
 247 10 247 10 427 154 c 1,27,28
 401 171 401 171 370 181 c 128,-1,29
 339 191 339 191 311 201 c 128,-1,30
 283 211 283 211 257 222.5 c 128,-1,31
 231 234 231 234 205 245 c 128,-1,0
 179 256 179 256 152 264 c 128,-1,1
EndSplineSet
EndChar

StartChar: question
Encoding: 63 63 35
Width: 354
GlyphClass: 2
Flags: W
LayerCount: 2
Fore
SplineSet
260 286 m 1,0,1
 218 281 218 281 175 262 c 1,2,3
 183 256 183 256 186 246 c 1,4,5
 189 213 189 213 158 187.5 c 128,-1,6
 127 162 127 162 101.5 158.5 c 128,-1,7
 76 155 76 155 60.5 164.5 c 128,-1,8
 45 174 45 174 45.5 194.5 c 128,-1,9
 46 215 46 215 73 244 c 0,10,11
 83 255 83 255 119 276 c 128,-1,12
 155 297 155 297 189.5 309 c 128,-1,13
 224 321 224 321 246.5 325.5 c 128,-1,14
 269 330 269 330 292 318 c 1,15,16
 304 308 304 308 302 296 c 0,17,18
 297 259 297 259 278.5 229 c 128,-1,19
 260 199 260 199 238.5 171 c 128,-1,20
 217 143 217 143 197 113.5 c 128,-1,21
 177 84 177 84 169 49 c 1,22,23
 178 38 178 38 194 35 c 128,-1,24
 210 32 210 32 222 29.5 c 128,-1,25
 234 27 234 27 238 20 c 128,-1,26
 242 13 242 13 240.5 6 c 128,-1,27
 239 -1 239 -1 232.5 -6 c 128,-1,28
 226 -11 226 -11 213.5 -8.5 c 128,-1,29
 201 -6 201 -6 184.5 -6 c 128,-1,30
 168 -6 168 -6 155 3 c 0,31,32
 96 42 96 42 168 144 c 0,33,34
 188 172 188 172 208 197 c 0,35,36
 257 261 257 261 260 286 c 1,0,1
190 -52 m 1,37,38
 207 -58 207 -58 207 -73 c 128,-1,39
 207 -88 207 -88 189 -92 c 1,40,41
 177 -92 177 -92 165 -92 c 128,-1,42
 153 -92 153 -92 143 -84 c 1,43,44
 135 -76 135 -76 135 -67 c 0,45,46
 135 -55 135 -55 150 -47 c 0,47,48
 150 -46 150 -46 150.5 -46 c 128,-1,49
 151 -46 151 -46 156.5 -41.5 c 128,-1,50
 162 -37 162 -37 172.5 -39.5 c 128,-1,51
 183 -42 183 -42 185 -52 c 1,52,-1
 190 -52 l 1,37,38
97 209 m 1,53,54
 91 201 91 201 89 196 c 1,55,56
 103 193 103 193 118 204 c 128,-1,57
 133 215 133 215 141 229 c 1,58,59
 129 231 129 231 118 226 c 1,60,-1
 118 225 l 1,61,62
 111 209 111 209 97 209 c 1,53,54
EndSplineSet
EndChar

StartChar: at
Encoding: 64 64 36
Width: 641
GlyphClass: 2
Flags: W
LayerCount: 2
Fore
SplineSet
380 -68 m 1,0,1
 360 -68 360 -68 340 -69 c 0,2,3
 321 -70 321 -70 302 -72 c 0,4,5
 254 -74 254 -74 227 -65.5 c 128,-1,6
 200 -57 200 -57 174 -51.5 c 128,-1,7
 148 -46 148 -46 123.5 -29.5 c 128,-1,8
 99 -13 99 -13 86 13.5 c 128,-1,9
 73 40 73 40 72 69 c 0,10,11
 70 131 70 131 115 178 c 0,12,13
 190 264 190 264 248 292 c 0,14,15
 318 328 318 328 410 332 c 0,16,17
 452 334 452 334 487 334 c 128,-1,18
 522 334 522 334 538 320 c 128,-1,19
 554 306 554 306 562 285 c 0,20,21
 594 200 594 200 502 82 c 0,22,23
 430 -10 430 -10 370 10 c 0,24,25
 356 14 356 14 346 16.5 c 128,-1,26
 336 19 336 19 333.5 22 c 128,-1,27
 331 25 331 25 328 30 c 1,28,29
 314 77 314 77 310 99 c 1,30,-1
 301 90 l 1,31,32
 268 60 268 60 223 36 c 0,33,34
 216 32 216 32 211.5 32 c 128,-1,35
 207 32 207 32 201.5 34.5 c 128,-1,36
 196 37 196 37 193 40 c 128,-1,37
 190 43 190 43 186 45 c 1,38,39
 176 56 176 56 179 69 c 0,40,41
 206 166 206 166 265 210 c 0,42,43
 287 226 287 226 314 232 c 1,44,45
 333 233 333 233 338 215 c 1,46,47
 343 201 343 201 348 183 c 1,48,49
 346 166 346 166 331.5 162 c 128,-1,50
 317 158 317 158 309 175 c 0,51,52
 307 179 307 179 306.5 182.5 c 128,-1,53
 306 186 306 186 304 190 c 1,54,55
 290 190 290 190 258 142 c 0,56,57
 229 99 229 99 224 81 c 1,58,59
 239 89 239 89 257 107 c 128,-1,60
 275 125 275 125 292.5 136.5 c 128,-1,61
 310 148 310 148 325 146 c 128,-1,62
 340 144 340 144 348 111 c 0,63,64
 352 97 352 97 355.5 82.5 c 128,-1,65
 359 68 359 68 363 53 c 1,66,67
 371 52 371 52 378 49 c 128,-1,68
 385 46 385 46 400.5 51 c 128,-1,69
 416 56 416 56 438 74 c 0,70,71
 460 93 460 93 478 114 c 0,72,73
 515 160 515 160 528 210 c 0,74,75
 531 223 531 223 529.5 236 c 128,-1,76
 528 249 528 249 527 262 c 1,77,78
 516 270 516 270 507.5 281 c 128,-1,79
 499 292 499 292 485 294 c 0,80,81
 395 310 395 310 297 268 c 0,82,83
 203 227 203 227 145 151 c 0,84,85
 94 82 94 82 122 33 c 128,-1,86
 150 -16 150 -16 234 -26 c 0,87,88
 271 -31 271 -31 307.5 -29 c 128,-1,89
 344 -27 344 -27 381 -28 c 1,90,91
 398 -34 398 -34 398 -49 c 128,-1,92
 398 -64 398 -64 380 -68 c 1,0,1
EndSplineSet
EndChar

StartChar: A
Encoding: 65 65 37
Width: 371
GlyphClass: 2
Flags: W
LayerCount: 2
Fore
SplineSet
288 109 m 1,0,1
 305 35 305 35 307 -1 c 1,2,3
 305 -20 305 -20 288 -22 c 0,4,5
 281 -22 281 -22 274.5 -17.5 c 128,-1,6
 268 -13 268 -13 266 5 c 0,7,8
 262 48 262 48 251 94 c 1,9,10
 197 91 197 91 179 83 c 1,11,12
 181 72 181 72 171 66 c 128,-1,13
 161 60 161 60 148 65 c 1,14,-1
 143 70 l 1,15,16
 132 50 132 50 122 30.5 c 128,-1,17
 112 11 112 11 105.5 -1 c 128,-1,18
 99 -13 99 -13 99 -14 c 2,19,-1
 98 -13 l 1,20,21
 86 -27 86 -27 77 -22 c 0,22,23
 60 -13 60 -13 63 4 c 1,24,25
 89 62 89 62 117.5 118.5 c 128,-1,26
 146 175 146 175 162.5 212.5 c 128,-1,27
 179 250 179 250 186.5 267.5 c 128,-1,28
 194 285 194 285 206 299 c 1,29,30
 202 307 202 307 208 316 c 128,-1,31
 214 325 214 325 227 327 c 1,32,33
 252 322 252 322 250 300 c 1,34,35
 267 270 267 270 270 240 c 128,-1,36
 273 210 273 210 274.5 191 c 128,-1,37
 276 172 276 172 278 160 c 0,38,39
 280 145 280 145 283 130 c 1,40,41
 293 121 293 121 288 109 c 1,0,1
169 123 m 1,42,43
 188 130 188 130 242 133 c 1,44,45
 241 136 241 136 241 139.5 c 128,-1,46
 241 143 241 143 238 157 c 128,-1,47
 235 171 235 171 233 196 c 128,-1,48
 231 221 231 221 226 246 c 1,49,50
 223 241 223 241 220 236 c 0,51,52
 216 232 216 232 210 217 c 0,53,54
 182 150 182 150 169 123 c 1,42,43
EndSplineSet
EndChar

StartChar: B
Encoding: 66 66 38
Width: 450
GlyphClass: 2
Flags: W
LayerCount: 2
Fore
SplineSet
137 322 m 1,0,1
 141 338 141 338 156 338 c 128,-1,2
 171 338 171 338 177 322 c 1,3,-1
 177 300 l 1,4,5
 225 321 225 321 282 323 c 128,-1,6
 339 325 339 325 381 305 c 1,7,8
 396 293 396 293 389 277 c 1,9,10
 371 246 371 246 310 221 c 0,11,12
 286 211 286 211 262.5 202 c 128,-1,13
 239 193 239 193 222 180 c 1,14,15
 240 171 240 171 263 167.5 c 128,-1,16
 286 164 286 164 308 160 c 0,17,18
 361 150 361 150 377 122 c 0,19,20
 406 63 406 63 329 8 c 0,21,22
 274 -34 274 -34 200 -46 c 0,23,24
 111 -61 111 -61 70 -19 c 1,25,26
 62 -20 62 -20 54 -13 c 0,27,28
 47 -6 47 -6 50 12 c 1,29,30
 49 14 49 14 49 16.5 c 128,-1,31
 49 19 49 19 47 25.5 c 128,-1,32
 45 32 45 32 46.5 43.5 c 128,-1,33
 48 55 48 55 48 66 c 1,34,35
 50 77 50 77 57.5 81.5 c 128,-1,36
 65 86 65 86 73 83 c 1,37,38
 113 194 113 194 126 244 c 1,39,40
 121 254 121 254 127 266 c 1,41,-1
 132 271 l 1,42,43
 137 296 137 296 137 313 c 2,44,-1
 137 322 l 1,0,1
290 281 m 0,45,46
 198 281 198 281 169 252 c 1,47,48
 158 199 158 199 128.5 119 c 128,-1,49
 99 39 99 39 92 15 c 1,50,-1
 96 11 l 1,51,52
 116 -17 116 -17 175 -10 c 0,53,54
 227 -4 227 -4 265 17 c 0,55,56
 333 54 333 54 345 84 c 0,57,58
 352 101 352 101 328 111 c 0,59,60
 318 115 318 115 307.5 117.5 c 128,-1,61
 297 120 297 120 291 122 c 1,62,63
 218 127 218 127 187 151 c 0,64,65
 174 161 174 161 173.5 176.5 c 128,-1,66
 173 192 173 192 190.5 205 c 128,-1,67
 208 218 208 218 232.5 230 c 128,-1,68
 257 242 257 242 284.5 253.5 c 128,-1,69
 312 265 312 265 332 278 c 1,70,71
 312 281 312 281 290 281 c 0,45,46
EndSplineSet
EndChar

StartChar: C
Encoding: 67 67 39
Width: 480
GlyphClass: 2
Flags: W
LayerCount: 2
Fore
SplineSet
408 3 m 1,0,1
 430 -2 430 -2 428 -18 c 0,2,3
 427 -34 427 -34 409 -38 c 128,-1,4
 391 -42 391 -42 362 -46 c 128,-1,5
 333 -50 333 -50 300 -53 c 128,-1,6
 267 -56 267 -56 232 -57 c 0,7,8
 197 -57 197 -57 166 -52 c 0,9,10
 96 -42 96 -42 72.5 -8 c 128,-1,11
 49 26 49 26 51.5 64 c 128,-1,12
 54 102 54 102 75 138.5 c 128,-1,13
 96 175 96 175 130 207 c 0,14,15
 164 239 164 239 204 263 c 0,16,17
 291 316 291 316 355 314 c 1,18,19
 380 307 380 307 369 284 c 0,20,21
 356 248 356 248 336 254 c 0,22,23
 324 258 324 258 321 270 c 1,24,25
 271 259 271 259 206 215 c 0,26,27
 104 146 104 146 91 76 c 0,28,29
 84 39 84 39 104 17 c 128,-1,30
 124 -5 124 -5 161 -12 c 128,-1,31
 198 -19 198 -19 241 -18 c 0,32,33
 321 -16 321 -16 396 0 c 1,34,-1
 408 3 l 1,0,1
EndSplineSet
EndChar

StartChar: D
Encoding: 68 68 40
Width: 504
GlyphClass: 2
Flags: W
LayerCount: 2
Fore
SplineSet
80 -5 m 1,0,1
 80 -4 80 -4 78 -4 c 1,2,3
 79 -3 l 1,4,5
 79 3 79 3 80 7 c 0,6,7
 100 58 100 58 113 108.5 c 128,-1,8
 126 159 126 159 134 189.5 c 128,-1,9
 142 220 142 220 145 235 c 0,10,11
 148 250 148 250 152 266 c 0,12,13
 163 304 163 304 183 314.5 c 128,-1,14
 203 325 203 325 211 300 c 1,15,-1
 211 296 l 1,16,17
 216 305 216 305 231 307 c 1,18,19
 261 308 261 308 290.5 309 c 128,-1,20
 320 310 320 310 355 304.5 c 128,-1,21
 390 299 390 299 416 279.5 c 128,-1,22
 442 260 442 260 452 232 c 0,23,24
 474 175 474 175 433 105 c 0,25,26
 378 12 378 12 228 -21 c 0,27,28
 187 -30 187 -30 160 -34 c 128,-1,29
 133 -38 133 -38 117.5 -41 c 128,-1,30
 102 -44 102 -44 86 -46 c 0,31,32
 48 -50 48 -50 26 -37 c 1,33,34
 21 -32 21 -32 20 -28.5 c 128,-1,35
 19 -25 19 -25 17 -19 c 1,36,37
 18 -17 18 -17 18 -13 c 0,38,39
 22 4 22 4 35.5 5 c 128,-1,40
 49 6 49 6 55 -5 c 1,41,42
 61 -6 61 -6 67.5 -5.5 c 128,-1,43
 74 -5 74 -5 80 -5 c 1,0,1
230 267 m 1,44,45
 214 268 214 268 210 281 c 1,46,47
 205 261 205 261 192 252 c 1,48,49
 187 236 187 236 183 219.5 c 128,-1,50
 179 203 179 203 171.5 175.5 c 128,-1,51
 164 148 164 148 151.5 98.5 c 128,-1,52
 139 49 139 49 120 1 c 1,53,54
 215 12 215 12 256 25 c 0,55,56
 339 51 339 51 381 101 c 0,57,58
 430 158 430 158 417 211 c 0,59,60
 411 235 411 235 388 250.5 c 128,-1,61
 365 266 365 266 333 268 c 0,62,63
 300 270 300 270 230 267 c 1,44,45
EndSplineSet
EndChar

StartChar: E
Encoding: 69 69 41
Width: 412
GlyphClass: 2
Flags: W
LayerCount: 2
Fore
SplineSet
377 -10 m 1,0,1
 315 -9 315 -9 251.5 -8.5 c 128,-1,2
 188 -8 188 -8 127 -26 c 0,3,4
 105 -32 105 -32 77 -50 c 128,-1,5
 49 -68 49 -68 33 -76.5 c 128,-1,6
 17 -85 17 -85 -1 -88 c 1,7,8
 -26 -83 -26 -83 -20.5 -62 c 128,-1,9
 -15 -41 -15 -41 1.5 -23 c 128,-1,10
 18 -5 18 -5 28 16 c 128,-1,11
 38 37 38 37 54 72 c 0,12,13
 71 106 71 106 84 144 c 0,14,15
 119 234 119 234 125 289 c 1,16,17
 115 293 115 293 113 304 c 128,-1,18
 111 315 111 315 119 320.5 c 128,-1,19
 127 326 127 326 130.5 327.5 c 128,-1,20
 134 329 134 329 138 331 c 0,21,22
 161 340 161 340 168 316 c 1,23,-1
 168 305 l 1,24,25
 189 309 189 309 210.5 313.5 c 128,-1,26
 232 318 232 318 254 320 c 0,27,28
 305 326 305 326 337 312 c 1,29,30
 354 300 354 300 344 284 c 0,31,32
 335 269 335 269 317 276.5 c 128,-1,33
 299 284 299 284 280 284.5 c 128,-1,34
 261 285 261 285 241.5 281.5 c 128,-1,35
 222 278 222 278 202 273 c 128,-1,36
 182 268 182 268 163 265 c 1,37,38
 157 233 157 233 137 174 c 1,39,40
 164 177 164 177 196.5 179.5 c 128,-1,41
 229 182 229 182 245.5 190.5 c 128,-1,42
 262 199 262 199 269 197 c 0,43,44
 274 196 274 196 278 190 c 0,45,46
 286 177 286 177 276 162 c 1,47,48
 244 145 244 145 205 141.5 c 128,-1,49
 166 138 166 138 131 134 c 0,50,51
 128 134 128 134 122 136 c 1,52,53
 114 116 114 116 105.5 97 c 128,-1,54
 97 78 97 78 89 58.5 c 128,-1,55
 81 39 81 39 73 18 c 128,-1,56
 65 -3 65 -3 58.5 -12 c 128,-1,57
 52 -21 52 -21 52 -22 c 1,58,59
 94 6 94 6 116 12 c 0,60,61
 181 30 181 30 246.5 30.5 c 128,-1,62
 312 31 312 31 378 30 c 1,63,64
 395 24 395 24 395 9 c 128,-1,65
 395 -6 395 -6 377 -10 c 1,0,1
EndSplineSet
EndChar

StartChar: F
Encoding: 70 70 42
Width: 409
GlyphClass: 2
Flags: W
LayerCount: 2
Fore
SplineSet
302 126 m 1,0,1
 319 120 319 120 319 106 c 0,2,3
 319 90 319 90 301 86 c 1,4,5
 224 84 224 84 139 58 c 0,6,7
 131 56 131 56 124.5 53 c 128,-1,8
 118 50 118 50 111 47 c 1,9,10
 84 -42 84 -42 61 -71 c 1,11,12
 45 -79 45 -79 34.5 -68.5 c 128,-1,13
 24 -58 24 -58 32 -42 c 1,14,15
 44 -29 44 -29 62 22 c 1,16,-1
 59 22 l 1,17,18
 43 30 43 30 46 49 c 1,19,20
 52 64 52 64 79 77 c 1,21,22
 109 188 109 188 113 258 c 1,23,24
 106 264 106 264 106 273 c 128,-1,25
 106 282 106 282 113 287 c 1,26,-1
 113 291 l 1,27,28
 117 307 117 307 131.5 308.5 c 128,-1,29
 146 310 146 310 152 294 c 1,30,31
 203 299 203 299 251 308.5 c 128,-1,32
 299 318 299 318 350 320 c 1,33,34
 367 314 367 314 367 300 c 0,35,36
 367 284 367 284 349 280 c 1,37,38
 299 278 299 278 250.5 269 c 128,-1,39
 202 260 202 260 153 255 c 1,40,41
 149 196 149 196 124 95 c 1,42,43
 184 113 184 113 238 119.5 c 128,-1,44
 292 126 292 126 302 126 c 1,0,1
EndSplineSet
EndChar

StartChar: G
Encoding: 71 71 43
Width: 460
GlyphClass: 2
Flags: W
LayerCount: 2
Fore
SplineSet
342 32 m 1,0,1
 351 95 351 95 372 133 c 1,2,3
 320 136 320 136 236 131 c 1,4,5
 238 129 238 129 238.5 128 c 128,-1,6
 239 127 239 127 241 126 c 0,7,8
 310 62 310 62 294 6 c 0,9,10
 287 -18 287 -18 266 -36 c 0,11,12
 245 -53 245 -53 215 -60 c 0,13,14
 150 -77 150 -77 96 -45 c 0,15,16
 32 -6 32 -6 44 90 c 0,17,18
 55 174 55 174 117 248 c 0,19,20
 144 280 144 280 176 298 c 128,-1,21
 208 316 208 316 238 310 c 0,22,23
 249 308 249 308 260 305 c 128,-1,24
 271 302 271 302 281.5 299.5 c 128,-1,25
 292 297 292 297 296 290 c 128,-1,26
 300 283 300 283 298 276 c 0,27,28
 296 269 296 269 290 264 c 0,29,30
 280 256 280 256 263 263 c 128,-1,31
 246 270 246 270 227 270.5 c 128,-1,32
 208 271 208 271 184.5 255.5 c 128,-1,33
 161 240 161 240 142 217 c 0,34,35
 90 154 90 154 83 79 c 0,36,37
 78 30 78 30 102 0 c 0,38,39
 124 -28 124 -28 188 -20 c 0,40,41
 249 -13 249 -13 259 24 c 0,42,43
 264 43 264 43 241 72 c 0,44,45
 225 95 225 95 204.5 102.5 c 128,-1,46
 184 110 184 110 172 118 c 0,47,48
 140 137 140 137 150 157 c 0,49,50
 158 172 158 172 185 172 c 1,51,-1
 226 170 l 1,52,53
 264 174 264 174 295.5 174.5 c 128,-1,54
 327 175 327 175 355.5 175.5 c 128,-1,55
 384 176 384 176 410 166 c 1,56,57
 422 158 422 158 420.5 144 c 128,-1,58
 419 130 419 130 410 119 c 128,-1,59
 401 108 401 108 395.5 96 c 128,-1,60
 390 84 390 84 388 76.5 c 128,-1,61
 386 69 386 69 385 62 c 0,62,63
 382 44 382 44 381 27 c 1,64,65
 374 10 374 10 359.5 12 c 128,-1,66
 345 14 345 14 342 32 c 1,0,1
EndSplineSet
EndChar

StartChar: H
Encoding: 72 72 44
Width: 463
GlyphClass: 2
Flags: W
LayerCount: 2
Fore
SplineSet
392 333 m 1,0,1
 389 249 389 249 374 168 c 0,2,3
 374 164 374 164 368 133 c 0,4,5
 348 37 348 37 300 -58 c 1,6,7
 288 -74 288 -74 274 -66 c 0,8,9
 260 -58 260 -58 264 -41 c 1,10,11
 304 40 304 40 328 146 c 1,12,13
 282 145 282 145 233 140 c 128,-1,14
 184 135 184 135 143 114 c 1,15,16
 135 31 135 31 121 -42 c 1,17,18
 114 -59 114 -59 99.5 -57 c 128,-1,19
 85 -55 85 -55 82 -37 c 1,20,21
 94 35 94 35 102 104 c 1,22,23
 94 109 94 109 93 119 c 128,-1,24
 92 129 92 129 98 133 c 128,-1,25
 104 137 104 137 106 139 c 1,26,27
 111 194 111 194 113 284 c 1,28,29
 101 292 101 292 104 305 c 128,-1,30
 107 318 107 318 125 320 c 1,31,32
 157 320 157 320 153 272 c 0,33,34
 152 256 152 256 151 219.5 c 128,-1,35
 150 183 150 183 148 160 c 1,36,37
 192 177 192 177 241 180.5 c 128,-1,38
 290 184 290 184 336 186 c 1,39,40
 347 244 347 244 352 332 c 1,41,42
 356 350 356 350 371 350 c 128,-1,43
 386 350 386 350 392 333 c 1,0,1
EndSplineSet
EndChar

StartChar: I
Encoding: 73 73 45
Width: 167
GlyphClass: 2
Flags: W
LayerCount: 2
Fore
SplineSet
128 10 m 1,0,1
 145 4 145 4 145 -11 c 128,-1,2
 145 -26 145 -26 127 -30 c 1,3,4
 111 -30 111 -30 96.5 -32 c 128,-1,5
 82 -34 82 -34 66 -36 c 1,6,7
 65 -40 65 -40 61 -48 c 1,8,9
 51 -60 51 -60 39.5 -57 c 128,-1,10
 28 -54 28 -54 25 -42 c 1,11,12
 10 -46 10 -46 2 -32 c 0,13,14
 -5 -19 -5 -19 7 -10 c 128,-1,15
 19 -1 19 -1 38 2 c 1,16,17
 60 72 60 72 54 200 c 0,18,19
 52 234 52 234 52 263 c 1,20,-1
 32 263 l 1,21,22
 21 264 21 264 16 271 c 0,23,24
 12 277 12 277 12 284 c 0,25,26
 13 301 13 301 33 303 c 1,27,-1
 37 303 l 1,28,29
 103 310 103 310 118 310 c 1,30,31
 135 304 135 304 135 290 c 0,32,33
 134 270 134 270 104 269 c 0,34,35
 98 269 98 269 92 268 c 1,36,37
 92 239 92 239 93 206 c 0,38,39
 93 173 93 173 94 139 c 0,40,41
 93 61 93 61 81 8 c 1,42,43
 96 10 96 10 108 10 c 2,44,-1
 128 10 l 1,0,1
EndSplineSet
EndChar

StartChar: J
Encoding: 74 74 46
Width: 299
GlyphClass: 2
Flags: W
LayerCount: 2
Fore
SplineSet
278 300 m 1,0,1
 295 294 295 294 295 279 c 128,-1,2
 295 264 295 264 277 260 c 1,3,4
 260 260 260 260 243 260 c 128,-1,5
 226 260 226 260 209 259 c 1,6,7
 196 246 196 246 190 207.5 c 128,-1,8
 184 169 184 169 180 127 c 0,9,10
 168 13 168 13 146 -25 c 0,11,12
 139 -37 139 -37 120 -46.5 c 128,-1,13
 101 -56 101 -56 79 -60 c 0,14,15
 24 -69 24 -69 7 -46 c 1,16,17
 1 -28 1 -28 13 -18 c 128,-1,18
 25 -8 25 -8 38 -21 c 1,19,20
 47 -22 47 -22 56.5 -20.5 c 128,-1,21
 66 -19 66 -19 77 -17.5 c 128,-1,22
 88 -16 88 -16 96 -14 c 0,23,24
 102 -12 102 -12 108 -6 c 0,25,26
 126 11 126 11 134 81 c 0,27,28
 148 219 148 219 163 258 c 1,29,30
 134 257 134 257 104 257 c 2,31,-1
 45 257 l 1,32,33
 34 258 34 258 29 264.5 c 128,-1,34
 24 271 24 271 24 278 c 0,35,36
 25 295 25 295 46 297 c 1,37,-1
 278 300 l 1,0,1
EndSplineSet
EndChar

StartChar: K
Encoding: 75 75 47
Width: 434
GlyphClass: 2
Flags: W
LayerCount: 2
Fore
SplineSet
110 262 m 1,0,-1
 109 266 l 1,1,-1
 109 268 l 1,2,3
 101 288 101 288 116 296 c 0,4,5
 132 305 132 305 141 292.5 c 128,-1,6
 150 280 150 280 151.5 267 c 128,-1,7
 153 254 153 254 152 240 c 0,8,9
 150 213 150 213 143 185 c 1,10,11
 190 236 190 236 292 309 c 0,12,13
 304 318 304 318 312 321 c 128,-1,14
 320 324 320 324 328.5 328 c 128,-1,15
 337 332 337 332 344.5 329 c 128,-1,16
 352 326 352 326 355 320 c 0,17,18
 363 303 363 303 345 292 c 1,19,20
 298 273 298 273 210 193 c 0,21,22
 187 172 187 172 173 157 c 1,23,24
 181 149 181 149 205 140.5 c 128,-1,25
 229 132 229 132 243.5 125.5 c 128,-1,26
 258 119 258 119 282 103.5 c 128,-1,27
 306 88 306 88 330 74 c 0,28,29
 388 41 388 41 436 37 c 1,30,31
 453 30 453 30 453 16 c 0,32,33
 453 0 453 0 435 -3 c 1,34,35
 342 7 342 7 240 80 c 0,36,37
 217 96 217 96 199.5 102 c 128,-1,38
 182 108 182 108 172 112 c 0,39,40
 147 123 147 123 136 137 c 1,41,42
 128 83 128 83 120.5 29 c 128,-1,43
 113 -25 113 -25 105 -79 c 1,44,45
 100 -93 100 -93 86 -95 c 1,46,47
 75 -93 75 -93 70 -87 c 128,-1,48
 65 -81 65 -81 65 -75 c 0,49,50
 73 -12 73 -12 83 48 c 0,51,52
 92 110 92 110 98 152 c 0,53,54
 108 230 108 230 110 262 c 1,0,-1
EndSplineSet
EndChar

StartChar: L
Encoding: 76 76 48
Width: 320
GlyphClass: 2
Flags: W
LayerCount: 2
Fore
SplineSet
70 0 m 1,0,1
 130 20 130 20 248 20 c 2,2,-1
 255 20 l 2,3,4
 257 20 257 20 265 21 c 1,5,6
 282 33 282 33 294 20 c 0,7,8
 306 7 306 7 293 -9 c 0,9,10
 282 -22 282 -22 214 -22 c 2,11,-1
 193 -22 l 1,12,13
 123 -24 123 -24 76 -44 c 0,14,15
 58 -52 58 -52 36 -63 c 1,16,17
 20 -67 20 -67 12.5 -56.5 c 128,-1,18
 5 -46 5 -46 13 -32 c 0,19,20
 51 44 51 44 65.5 107 c 128,-1,21
 80 170 80 170 88.5 213.5 c 128,-1,22
 97 257 97 257 111 311 c 1,23,24
 120 328 120 328 135 323 c 0,25,26
 151 318 151 318 149 300 c 1,27,28
 129 225 129 225 113.5 148.5 c 128,-1,29
 98 72 98 72 70 0 c 1,0,1
EndSplineSet
EndChar

StartChar: M
Encoding: 77 77 49
Width: 525
GlyphClass: 2
Flags: W
LayerCount: 2
Fore
SplineSet
51 -33 m 1,0,1
 53 33 53 33 68.5 97.5 c 128,-1,2
 84 162 84 162 93 197 c 128,-1,3
 102 232 102 232 104 239.5 c 128,-1,4
 106 247 106 247 106 255 c 1,5,6
 98 261 98 261 99.5 272.5 c 128,-1,7
 101 284 101 284 115 289 c 0,8,9
 117 290 117 290 118 290 c 128,-1,10
 119 290 119 290 125 290.5 c 128,-1,11
 131 291 131 291 133 289.5 c 128,-1,12
 135 288 135 288 135 288.5 c 128,-1,13
 135 289 135 289 136 289 c 0,14,15
 168 294 168 294 186 250 c 0,16,17
 194 232 194 232 198.5 213 c 128,-1,18
 203 194 203 194 211 179 c 128,-1,19
 219 164 219 164 229.5 146 c 128,-1,20
 240 128 240 128 256 114 c 1,21,22
 278 116 278 116 300 157 c 0,23,24
 306 167 306 167 312 176.5 c 128,-1,25
 318 186 318 186 324.5 198 c 128,-1,26
 331 210 331 210 336.5 218.5 c 128,-1,27
 342 227 342 227 355 249 c 0,28,29
 370 272 370 272 388 294 c 0,30,31
 435 351 435 351 464 341 c 0,32,33
 488 334 488 334 486 296 c 0,34,35
 486 286 486 286 484 277 c 0,36,37
 483 248 483 248 480.5 230.5 c 128,-1,38
 478 213 478 213 476 197.5 c 128,-1,39
 474 182 474 182 470 161 c 0,40,41
 458 105 458 105 439 46.5 c 128,-1,42
 420 -12 420 -12 415 -28 c 128,-1,43
 410 -44 410 -44 408.5 -52 c 128,-1,44
 407 -60 407 -60 405 -68 c 1,45,46
 410 -77 410 -77 406 -89 c 1,47,-1
 400 -98 l 2,48,49
 393 -108 393 -108 384 -108 c 128,-1,50
 375 -108 375 -108 367 -100 c 1,51,52
 355 -76 355 -76 386 16 c 0,53,54
 403 66 403 66 410.5 94.5 c 128,-1,55
 418 123 418 123 425 149 c 0,56,57
 426 151 426 151 426 147 c 1,58,59
 446 226 446 226 445 294 c 1,60,61
 403 252 403 252 344 154 c 0,62,63
 313 103 313 103 301.5 91 c 128,-1,64
 290 79 290 79 276 77 c 0,65,66
 242 71 242 71 222 86.5 c 128,-1,67
 202 102 202 102 189 128 c 128,-1,68
 176 154 176 154 166.5 184 c 128,-1,69
 157 214 157 214 144 238 c 1,70,71
 142 224 142 224 138 211 c 128,-1,72
 134 198 134 198 126.5 165.5 c 128,-1,73
 119 133 119 133 106 78.5 c 128,-1,74
 93 24 93 24 91 -32 c 0,75,76
 89 -52 89 -52 72 -54 c 0,77,78
 65 -54 65 -54 58.5 -49 c 128,-1,79
 52 -44 52 -44 51 -33 c 1,0,1
101 232 m 2,80,-1
 102 236 l 2,81,82
 102 234 102 234 101 232 c 2,80,-1
EndSplineSet
EndChar

StartChar: N
Encoding: 78 78 50
Width: 481
GlyphClass: 2
Flags: W
LayerCount: 2
Fore
SplineSet
150 299 m 1,0,-1
 150 292 l 1,1,2
 176 287 176 287 194 237 c 0,3,4
 210 195 210 195 250 140.5 c 128,-1,5
 290 86 290 86 320 44 c 1,6,7
 322 62 322 62 323.5 83.5 c 128,-1,8
 325 105 325 105 334.5 140 c 128,-1,9
 344 175 344 175 363.5 224 c 128,-1,10
 383 273 383 273 396 325 c 1,11,12
 402 336 402 336 417 338 c 1,13,-1
 419 338 l 1,14,15
 432 334 432 334 435 324.5 c 128,-1,16
 438 315 438 315 432 307 c 1,17,18
 421 257 421 257 401 209 c 128,-1,19
 381 161 381 161 371 122 c 128,-1,20
 361 83 361 83 359 52.5 c 128,-1,21
 357 22 357 22 354 -7 c 1,22,23
 345 -29 345 -29 323 -20 c 1,24,25
 278 21 278 21 243.5 76 c 128,-1,26
 209 131 209 131 189 162 c 128,-1,27
 169 193 169 193 162 213 c 128,-1,28
 155 233 155 233 145 247 c 1,29,30
 139 210 139 210 128 174.5 c 128,-1,31
 117 139 117 139 112 116.5 c 128,-1,32
 107 94 107 94 105 79 c 0,33,34
 104 63 104 63 100 45 c 0,35,36
 91 0 91 0 78 -13 c 1,37,38
 64 -21 64 -21 56 -14 c 0,39,40
 42 -3 42 -3 45.5 10 c 128,-1,41
 49 23 49 23 52 35 c 128,-1,42
 55 47 55 47 59 58 c 1,43,-1
 59 59 l 1,44,45
 67 93 67 93 76 124 c 0,46,47
 84 156 84 156 92 184 c 0,48,49
 110 250 110 250 110 295 c 2,50,-1
 110 298 l 2,51,52
 110 300 110 300 111 301 c 0,53,54
 115 314 115 314 126 316 c 1,55,56
 142 316 142 316 149 302 c 0,57,58
 149 300 149 300 150 299 c 1,0,-1
EndSplineSet
EndChar

StartChar: O
Encoding: 79 79 51
Width: 399
GlyphClass: 2
Flags: W
LayerCount: 2
Fore
SplineSet
126 297 m 5,0,1
 117 315 117 315 140 326 c 4,2,3
 161 334 161 334 171.5 338.5 c 132,-1,4
 182 343 182 343 191 345.5 c 132,-1,5
 200 348 200 348 211 348 c 6,6,-1
 243 348 l 6,7,8
 291 348 291 348 324 296 c 4,9,10
 355 247 355 247 351.5 203 c 132,-1,11
 348 159 348 159 333 117.5 c 132,-1,12
 318 76 318 76 292 44 c 4,13,14
 232 -27 232 -27 140 -17 c 4,15,16
 103 -13 103 -13 80.5 6 c 132,-1,17
 58 25 58 25 49 52.5 c 132,-1,18
 40 80 40 80 42 114 c 132,-1,19
 44 148 44 148 55 182 c 4,20,21
 79 254 79 254 126 297 c 5,0,1
235 308 m 5,22,23
 240 297 240 297 234 288 c 132,-1,24
 228 279 228 279 217.5 281 c 132,-1,25
 207 283 207 283 201 285 c 132,-1,26
 195 287 195 287 188 289 c 5,27,28
 141 268 141 268 107 200 c 4,29,30
 73 133 73 133 83 81 c 4,31,32
 88 55 88 55 107.5 38 c 132,-1,33
 127 21 127 21 165 21 c 5,34,-1
 166 22 l 5,35,36
 177 25 177 25 188 26.5 c 132,-1,37
 199 28 199 28 220 38 c 132,-1,38
 241 48 241 48 266 76 c 4,39,40
 292 104 292 104 304 138 c 4,41,42
 332 215 332 215 289 275 c 5,43,44
 270 304 270 304 238 308 c 5,45,-1
 235 308 l 5,22,23
173 22 m 5,46,47
 171 22 171 22 169 21 c 5,48,49
 171 22 171 22 173 22 c 5,46,47
EndSplineSet
EndChar

StartChar: P
Encoding: 80 80 52
Width: 381
GlyphClass: 2
Flags: W
LayerCount: 2
Fore
SplineSet
110.5 276.5 m 128,-1,1
 112 286 112 286 110.5 295 c 128,-1,2
 109 304 109 304 111 306 c 1,3,4
 112 319 112 319 121.5 325 c 128,-1,5
 131 331 131 331 144 321 c 1,6,7
 148 315 148 315 149 312 c 1,8,9
 196 323 196 323 239 323.5 c 128,-1,10
 282 324 282 324 330 305 c 1,11,12
 338 299 338 299 340 290 c 0,13,14
 344 268 344 268 340 251 c 128,-1,15
 336 234 336 234 311 212 c 128,-1,16
 286 190 286 190 254 172 c 0,17,18
 185 134 185 134 140 132 c 0,19,20
 129 132 129 132 119 135 c 1,21,22
 111 89 111 89 100.5 43.5 c 128,-1,23
 90 -2 90 -2 68 -41 c 0,24,25
 57 -58 57 -58 40 -47 c 0,26,27
 25 -37 25 -37 35 -18 c 0,28,29
 56 20 56 20 65.5 64.5 c 128,-1,30
 75 109 75 109 83 154 c 1,31,32
 80 162 80 162 85 169 c 1,33,34
 89 200 89 200 99 233.5 c 128,-1,0
 109 267 109 267 110.5 276.5 c 128,-1,1
143 241.5 m 128,-1,36
 138 227 138 227 135.5 215.5 c 128,-1,37
 133 204 133 204 130.5 194.5 c 128,-1,38
 128 185 128 185 126 174 c 1,39,40
 142 170 142 170 174 182 c 0,41,42
 207 195 207 195 234 208 c 0,43,44
 302 245 302 245 302 273 c 1,45,46
 265 287 265 287 227 284 c 128,-1,47
 189 281 189 281 151 272 c 1,48,35
 148 256 148 256 143 241.5 c 128,-1,36
EndSplineSet
EndChar

StartChar: Q
Encoding: 81 81 53
Width: 453
GlyphClass: 2
Flags: W
LayerCount: 2
Fore
SplineSet
140 272 m 1,0,1
 175 305 175 305 210 305 c 1,2,3
 218 308 218 308 228.5 310.5 c 128,-1,4
 239 313 239 313 263 319 c 128,-1,5
 287 325 287 325 317 315.5 c 128,-1,6
 347 306 347 306 367.5 284.5 c 128,-1,7
 388 263 388 263 395.5 233 c 128,-1,8
 403 203 403 203 391 170 c 256,9,10
 366 100 366 100 329 58 c 1,11,12
 352 29 352 29 378.5 4.5 c 128,-1,13
 405 -20 405 -20 446 -28 c 1,14,15
 466 -34 466 -34 462 -52 c 0,16,17
 460 -59 460 -59 454 -64 c 128,-1,18
 448 -69 448 -69 429.5 -65 c 128,-1,19
 411 -61 411 -61 391 -51 c 128,-1,20
 371 -41 371 -41 355 -28 c 0,21,22
 337 -13 337 -13 300 32 c 1,23,24
 254 -2 254 -2 200.5 -5 c 128,-1,25
 147 -8 147 -8 121 4 c 0,26,27
 95 18 95 18 82 40 c 0,28,29
 57 83 57 83 73 151 c 1,30,31
 62 150 62 150 55 160 c 128,-1,32
 48 170 48 170 56 184 c 1,33,34
 76 211 76 211 93 233 c 128,-1,35
 110 255 110 255 140 272 c 1,0,1
212 265 m 1,36,37
 191 256 191 256 167 241 c 1,38,39
 144 218 144 218 126.5 182 c 128,-1,40
 109 146 109 146 106.5 112.5 c 128,-1,41
 104 79 104 79 122 55.5 c 128,-1,42
 140 32 140 32 187 35 c 0,43,44
 231 37 231 37 273 64 c 1,45,46
 258 82 258 82 240 97 c 1,47,48
 228 100 228 100 228 106 c 0,49,50
 227 107 227 107 226 107.5 c 128,-1,51
 225 108 225 108 224 109 c 0,52,53
 211 123 211 123 219 136 c 128,-1,54
 227 149 227 149 244 144 c 0,55,56
 271 131 271 131 304 89 c 1,57,58
 338 118 338 118 351 173 c 0,59,60
 358 203 358 203 353.5 225.5 c 128,-1,61
 349 248 349 248 339.5 258 c 128,-1,62
 330 268 330 268 318 272 c 0,63,64
 293 281 293 281 275 278.5 c 128,-1,65
 257 276 257 276 253.5 275.5 c 128,-1,66
 250 275 250 275 246 274 c 1,67,68
 244 269 244 269 237.5 265.5 c 128,-1,69
 231 262 231 262 225 263.5 c 128,-1,70
 219 265 219 265 212 265 c 1,36,37
EndSplineSet
EndChar

StartChar: R
Encoding: 82 82 54
Width: 426
GlyphClass: 2
Flags: W
LayerCount: 2
Fore
SplineSet
98 227 m 5,0,1
 102 255 102 255 102 280 c 5,2,3
 88 283 88 283 86.5 297.5 c 132,-1,4
 85 312 85 312 102 319 c 4,5,6
 103 319 103 319 107 321 c 5,7,8
 114 331 114 331 128 328 c 5,9,10
 165 342 165 342 183 341 c 4,11,12
 202 340 202 340 218 339 c 4,13,14
 260 336 260 336 276.5 328.5 c 132,-1,15
 293 321 293 321 306.5 316.5 c 132,-1,16
 320 312 320 312 329 302.5 c 132,-1,17
 338 293 338 293 346.5 285 c 132,-1,18
 355 277 355 277 361 265 c 132,-1,19
 367 253 367 253 366 238 c 4,20,21
 366 223 366 223 358 210 c 4,22,23
 343 183 343 183 316 170 c 4,24,25
 303 164 303 164 285 155.5 c 132,-1,26
 267 147 267 147 246 139 c 5,27,28
 285 120 285 120 318.5 99.5 c 132,-1,29
 352 79 352 79 365.5 72 c 132,-1,30
 379 65 379 65 391.5 60.5 c 132,-1,31
 404 56 404 56 416 50 c 4,32,33
 446 37 446 37 455 21 c 5,34,35
 463 -3 463 -3 438 -8 c 5,36,-1
 435 -8 l 5,37,38
 422 -5 422 -5 417 2 c 5,39,40
 361 31 361 31 306 63.5 c 132,-1,41
 251 96 251 96 192 119 c 4,42,43
 190 120 190 120 188 120.5 c 132,-1,44
 186 121 186 121 184 122 c 5,45,46
 146 114 146 114 117 124 c 5,47,48
 88 23 88 23 85 -29 c 4,49,50
 83 -48 83 -48 66 -50 c 4,51,52
 59 -50 59 -50 52.5 -45.5 c 132,-1,53
 46 -41 46 -41 45 -30 c 5,54,55
 49 36 49 36 65 99.5 c 132,-1,56
 81 163 81 163 98 226 c 5,57,-1
 98 227 l 5,0,1
145 294 m 5,58,59
 148 247 148 247 132 178 c 5,60,61
 158 176 158 176 192 164 c 5,62,63
 286 187 286 187 310 217 c 4,64,65
 316 225 316 225 323 232 c 5,66,67
 322 276 322 276 260 293 c 4,68,69
 212 306 212 306 162 298 c 4,70,71
 157 297 157 297 153 296.5 c 132,-1,72
 149 296 149 296 145 294 c 5,58,59
EndSplineSet
EndChar

StartChar: S
Encoding: 83 83 55
Width: 415
GlyphClass: 2
Flags: W
LayerCount: 2
Fore
SplineSet
292 293 m 5,0,1
 309 286 309 286 309 272 c 4,2,3
 309 256 309 256 291 253 c 5,4,5
 262 251 262 251 241 250 c 4,6,7
 220 250 220 250 200 246 c 4,8,9
 157 238 157 238 116 213 c 5,10,11
 116 211 116 211 115 210 c 5,12,13
 144 192 144 192 189 179 c 132,-1,14
 234 166 234 166 259 159.5 c 132,-1,15
 284 153 284 153 300 147 c 132,-1,16
 316 141 316 141 329 135 c 4,17,18
 341 129 341 129 352 120 c 4,19,20
 379 99 379 99 374 75 c 4,21,22
 360 17 360 17 271 0 c 4,23,24
 219 -10 219 -10 132 -3 c 4,25,26
 126 -2 126 -2 115 -2 c 132,-1,27
 104 -2 104 -2 92 0 c 4,28,29
 61 4 61 4 55 15 c 5,30,31
 49 33 49 33 56.5 39.5 c 132,-1,32
 64 46 64 46 71 46 c 132,-1,33
 78 46 78 46 84 42 c 5,34,35
 109 42 109 42 146 38 c 4,36,37
 183 35 183 35 220 34 c 4,38,39
 310 35 310 35 332 78 c 5,40,41
 320 98 320 98 222 130 c 4,42,43
 111 165 111 165 82 185 c 5,44,45
 71 196 71 196 73 205 c 132,-1,46
 75 214 75 214 76 220 c 4,47,48
 78 233 78 233 82 239 c 4,49,50
 125 286 125 286 238 290 c 4,51,52
 267 291 267 291 292 293 c 5,0,1
EndSplineSet
EndChar

StartChar: T
Encoding: 84 84 56
Width: 504
GlyphClass: 2
Flags: W
LayerCount: 2
Fore
SplineSet
448 293 m 0,0,1
 448 289 448 289 439 280 c 1,2,-1
 430 277 l 1,3,4
 352 277 352 277 247 261 c 1,5,6
 243 225 243 225 241 185 c 0,7,8
 240 145 240 145 236 105 c 0,9,10
 228 8 228 8 206 -45 c 0,11,12
 198 -64 198 -64 181 -59 c 128,-1,13
 164 -54 164 -54 168 -34 c 1,14,15
 188 21 188 21 193 82.5 c 128,-1,16
 198 144 198 144 200 181 c 128,-1,17
 202 218 202 218 206 254 c 1,18,19
 175 248 175 248 143.5 238.5 c 128,-1,20
 112 229 112 229 81 228 c 1,21,22
 75 222 75 222 68 222 c 128,-1,23
 61 222 61 222 56 226 c 0,24,25
 43 238 43 238 52 255 c 0,26,27
 59 265 59 265 81 268 c 0,28,29
 168 285 168 285 253 300.5 c 128,-1,30
 338 316 338 316 427 317 c 1,31,-1
 432 317 l 1,32,33
 445 311 445 311 446 307 c 128,-1,34
 447 303 447 303 447.5 303 c 128,-1,35
 448 303 448 303 448 302 c 2,36,-1
 448 300 l 1,37,38
 450 296 450 296 448 293 c 0,0,1
EndSplineSet
EndChar

StartChar: U
Encoding: 85 85 57
Width: 446
GlyphClass: 2
Flags: W
LayerCount: 2
Fore
SplineSet
116 -28 m 0,0,1
 67 3 67 3 85 142 c 0,2,3
 90 179 90 179 98 212 c 128,-1,4
 106 245 106 245 114 280 c 1,5,6
 110 297 110 297 125 304 c 0,7,8
 138 311 138 311 147 300 c 128,-1,9
 156 289 156 289 155.5 280 c 128,-1,10
 155 271 155 271 152 262 c 128,-1,11
 149 253 149 253 145 244 c 128,-1,12
 141 235 141 235 138 221.5 c 128,-1,13
 135 208 135 208 129 179 c 0,14,15
 124 150 124 150 120 118 c 0,16,17
 111 41 111 41 129 11 c 0,18,19
 145 -16 145 -16 208 46 c 0,20,21
 245 87 245 87 270 136 c 128,-1,22
 295 185 295 185 308.5 218.5 c 128,-1,23
 322 252 322 252 329 275.5 c 128,-1,24
 336 299 336 299 349 313 c 1,25,26
 367 325 367 325 378.5 313.5 c 128,-1,27
 390 302 390 302 378 284 c 1,28,29
 370 276 370 276 356 239 c 128,-1,30
 342 202 342 202 321 156 c 0,31,32
 266 33 266 33 207 -10 c 0,33,34
 151 -50 151 -50 116 -28 c 0,0,1
EndSplineSet
EndChar

StartChar: V
Encoding: 86 86 58
Width: 453
GlyphClass: 2
Flags: W
LayerCount: 2
Fore
SplineSet
250 74 m 0,0,1
 217 0 217 0 223 -19 c 1,2,3
 221 -36 221 -36 206.5 -40 c 128,-1,4
 192 -44 192 -44 184 -27 c 1,5,-1
 184 -26 l 1,6,7
 180 -26 180 -26 159.5 14.5 c 128,-1,8
 139 55 139 55 139 57 c 0,9,10
 108 121 108 121 90 189 c 0,11,12
 85 206 85 206 83.5 224.5 c 128,-1,13
 82 243 82 243 75 260 c 1,14,15
 66 265 66 265 65 278 c 1,16,17
 68 301 68 301 81 303 c 128,-1,18
 94 305 94 305 104 293 c 1,19,20
 118 271 118 271 126 230 c 0,21,22
 142 149 142 149 149.5 129.5 c 128,-1,23
 157 110 157 110 169.5 89 c 128,-1,24
 182 68 182 68 194 46 c 1,25,26
 219 106 219 106 256 172 c 0,27,28
 320 285 320 285 346 311 c 1,29,30
 359 320 359 320 374 315 c 1,31,32
 386 305 386 305 384 294 c 128,-1,33
 382 283 382 283 371 279 c 1,34,35
 332 238 332 238 278 134 c 0,36,37
 262 102 262 102 250 74 c 0,0,1
EndSplineSet
EndChar

StartChar: W
Encoding: 87 87 59
Width: 607
GlyphClass: 2
Flags: W
LayerCount: 2
Fore
SplineSet
66 258 m 1,0,1
 46 266 46 266 54 284 c 0,2,3
 62 301 62 301 77.5 296 c 128,-1,4
 93 291 93 291 100 280.5 c 128,-1,5
 107 270 107 270 111 257.5 c 128,-1,6
 115 245 115 245 117 231 c 128,-1,7
 119 217 119 217 124 193.5 c 128,-1,8
 129 170 129 170 133.5 131 c 128,-1,9
 138 92 138 92 149 55 c 1,10,11
 156 83 156 83 164 118 c 128,-1,12
 172 153 172 153 184 187 c 0,13,14
 213 270 213 270 255 297 c 1,15,16
 269 303 269 303 276.5 296 c 128,-1,17
 284 289 284 289 289.5 284 c 128,-1,18
 295 279 295 279 301 267.5 c 128,-1,19
 307 256 307 256 308.5 236 c 128,-1,20
 310 216 310 216 313.5 184.5 c 128,-1,21
 317 153 317 153 322.5 108 c 128,-1,22
 328 63 328 63 342 21 c 1,23,24
 371 61 371 61 393 109 c 0,25,26
 439 209 439 209 449.5 229 c 128,-1,27
 460 249 460 249 466 261.5 c 128,-1,28
 472 274 472 274 478 286 c 0,29,30
 494 315 494 315 512 319 c 1,31,32
 529 320 529 320 534 306.5 c 128,-1,33
 539 293 539 293 526 283 c 1,34,35
 522 276 522 276 519 271 c 0,36,37
 516 267 516 267 509 254 c 0,38,39
 481 208 481 208 460.5 158 c 128,-1,40
 440 108 440 108 424 76 c 0,41,42
 386 -1 386 -1 351 -26 c 1,43,44
 335 -35 335 -35 321 -22 c 1,45,46
 290 10 290 10 270 190 c 0,47,48
 266 230 266 230 262 253 c 1,49,50
 228 194 228 194 201 103 c 0,51,52
 197 90 197 90 194.5 75 c 128,-1,53
 192 60 192 60 188 45 c 0,54,55
 172 -20 172 -20 150 -20 c 0,56,57
 140 -20 140 -20 133 -12 c 1,58,59
 108 31 108 31 94 121 c 0,60,61
 88 156 88 156 83 191 c 128,-1,62
 78 226 78 226 66 258 c 1,0,1
EndSplineSet
EndChar

StartChar: X
Encoding: 88 88 60
Width: 409
GlyphClass: 2
Flags: W
LayerCount: 2
Fore
SplineSet
164 135 m 1,0,1
 129 182 129 182 74 277 c 1,2,-1
 73 277 l 1,3,4
 60 291 60 291 68 304 c 128,-1,5
 76 317 76 317 94 312 c 1,6,7
 112 301 112 301 123 278 c 0,8,9
 135 254 135 254 144 238 c 0,10,11
 162 209 162 209 185 176 c 1,12,13
 202 211 202 211 217.5 244.5 c 128,-1,14
 233 278 233 278 254 310 c 1,15,16
 269 321 269 321 278 315 c 0,17,18
 295 304 295 304 287 287 c 1,19,20
 264 252 264 252 246.5 215 c 128,-1,21
 229 178 229 178 211 141 c 1,22,23
 247 93 247 93 286 59 c 0,24,25
 291 55 291 55 301 46 c 0,26,27
 312 37 312 37 322 28 c 0,28,29
 348 6 348 6 357 6 c 1,30,31
 374 0 374 0 374 -15 c 128,-1,32
 374 -30 374 -30 356 -34 c 1,33,34
 334 -34 334 -34 313 -17 c 128,-1,35
 292 0 292 0 281 10.5 c 128,-1,36
 270 21 270 21 256 33 c 0,37,38
 230 54 230 54 190 101 c 1,39,40
 174 70 174 70 160.5 53.5 c 128,-1,41
 147 37 147 37 140 26 c 0,42,43
 134 14 134 14 126 4 c 0,44,45
 98 -36 98 -36 77 -25 c 0,46,47
 64 -19 64 -19 65.5 -9 c 128,-1,48
 67 1 67 1 72 6 c 1,49,-1
 70 6 l 1,50,51
 68 5 68 5 71 7 c 128,-1,52
 74 9 74 9 77 13 c 128,-1,53
 80 17 80 17 82.5 20 c 128,-1,54
 85 23 85 23 87 25.5 c 128,-1,55
 89 28 89 28 91.5 31.5 c 128,-1,56
 94 35 94 35 102 45 c 128,-1,57
 110 55 110 55 120 68 c 0,58,59
 144 97 144 97 164 135 c 1,0,1
EndSplineSet
EndChar

StartChar: Y
Encoding: 89 89 61
Width: 409
GlyphClass: 2
Flags: W
LayerCount: 2
Fore
SplineSet
83 278 m 1,0,1
 76 285 76 285 76 291.5 c 128,-1,2
 76 298 76 298 80 304 c 0,3,4
 89 318 89 318 105 312 c 0,5,6
 113 309 113 309 120 291.5 c 128,-1,7
 127 274 127 274 134.5 252 c 128,-1,8
 142 230 142 230 150 208 c 0,9,10
 159 186 159 186 172 173 c 0,11,12
 200 144 200 144 238 184 c 0,13,14
 280 232 280 232 300 278 c 0,15,16
 314 309 314 309 322 312.5 c 128,-1,17
 330 316 330 316 336 314 c 0,18,19
 352 309 352 309 350 290 c 128,-1,20
 348 271 348 271 338 241 c 128,-1,21
 328 211 328 211 313.5 177 c 128,-1,22
 299 143 299 143 282 107 c 0,23,24
 264 70 264 70 247 38 c 0,25,26
 211 -31 211 -31 192 -60 c 0,27,28
 180 -76 180 -76 166 -68 c 128,-1,29
 152 -60 152 -60 156 -43 c 0,30,31
 158 -38 158 -38 159 -34 c 0,32,33
 163 -21 163 -21 171 -17 c 1,34,35
 209 47 209 47 257 146 c 1,36,37
 200 98 200 98 150 145 c 0,38,39
 110 183 110 183 89 258 c 1,40,-1
 86 268 l 2,41,42
 84 274 84 274 83 278 c 1,0,1
EndSplineSet
EndChar

StartChar: Z
Encoding: 90 90 62
Width: 457
GlyphClass: 2
Flags: W
LayerCount: 2
Fore
SplineSet
174 -10 m 1,0,-1
 169 -11 l 1,1,2
 157 -22 157 -22 140 -32 c 0,3,4
 124 -40 124 -40 113.5 -29.5 c 128,-1,5
 103 -19 103 -19 110 -6 c 0,6,7
 120 13 120 13 151 25 c 1,8,9
 192 60 192 60 218 88 c 0,10,11
 268 144 268 144 283 165 c 0,12,13
 323 224 323 224 328 252 c 0,14,15
 329 258 329 258 330 263 c 1,16,17
 226 270 226 270 128 254 c 0,18,19
 71 244 71 244 60 260 c 0,20,21
 50 272 50 272 61 286 c 0,22,23
 66 292 66 292 77 293 c 1,24,25
 111 288 111 288 154 293.5 c 128,-1,26
 197 299 197 299 222 302.5 c 128,-1,27
 247 306 247 306 272 306.5 c 128,-1,28
 297 307 297 307 320.5 307 c 128,-1,29
 344 307 344 307 358 300 c 0,30,31
 390 284 390 284 361 225 c 0,32,33
 353 208 353 208 349.5 200 c 128,-1,34
 346 192 346 192 343 186 c 128,-1,35
 340 180 340 180 335 172 c 2,36,-1
 320 148 l 2,37,38
 299 115 299 115 274 89 c 128,-1,39
 249 63 249 63 241.5 54.5 c 128,-1,40
 234 46 234 46 226 38 c 1,41,42
 256 39 256 39 287 39 c 0,43,44
 318 40 318 40 349 40 c 0,45,46
 423 41 423 41 471 54 c 1,47,48
 479 62 479 62 489.5 59.5 c 128,-1,49
 500 57 500 57 505 43 c 1,50,-1
 505 40 l 1,51,52
 503 25 503 25 492 19 c 1,53,54
 445 4 445 4 393 2.5 c 128,-1,55
 341 1 341 1 271.5 1 c 128,-1,56
 202 1 202 1 174 -10 c 1,0,-1
EndSplineSet
EndChar

StartChar: bracketleft
Encoding: 91 91 63
Width: 248
GlyphClass: 2
Flags: W
LayerCount: 2
Fore
SplineSet
227 -28 m 1,0,1
 244 -34 244 -34 244 -49 c 128,-1,2
 244 -64 244 -64 226 -68 c 1,3,4
 120 -68 120 -68 78 -83 c 0,5,6
 64 -88 64 -88 49 -91 c 1,7,8
 24 -86 24 -86 30 -63 c 0,9,10
 33 -52 33 -52 36 -24 c 1,11,12
 12 124 12 124 10 254 c 0,13,14
 9 332 9 332 24 373 c 1,15,16
 29 381 29 381 39 385 c 1,17,18
 53 387 53 387 70 390 c 128,-1,19
 87 393 87 393 104 394 c 0,20,21
 146 396 146 396 166 383 c 0,22,23
 184 371 184 371 174 355 c 0,24,25
 165 340 165 340 145 348 c 1,26,27
 135 355 135 355 58 347 c 1,28,29
 44 296 44 296 48.5 231.5 c 128,-1,30
 53 167 53 167 57 130.5 c 128,-1,31
 61 94 61 94 64 66 c 128,-1,32
 67 38 67 38 72 11 c 128,-1,33
 77 -16 77 -16 74 -42 c 1,34,35
 112 -31 112 -31 150.5 -29.5 c 128,-1,36
 189 -28 189 -28 227 -28 c 1,0,1
EndSplineSet
EndChar

StartChar: backslash
Encoding: 92 92 64
Width: 419
GlyphClass: 2
Flags: W
LayerCount: 2
Fore
SplineSet
-6 319 m 5,0,1
 -23 327 -23 327 -19 341.5 c 132,-1,2
 -15 356 -15 356 2 358 c 5,3,4
 46 348 46 348 119 256 c 4,5,6
 157 207 157 207 193.5 159.5 c 132,-1,7
 230 112 230 112 259 77 c 4,8,9
 325 -2 325 -2 393 -46 c 5,10,11
 401 -39 401 -39 411.5 -42 c 132,-1,12
 422 -45 422 -45 426 -59 c 5,13,14
 426 -68 426 -68 425 -77 c 132,-1,15
 424 -86 424 -86 416 -91 c 132,-1,16
 408 -96 408 -96 403.5 -96 c 132,-1,17
 399 -96 399 -96 391 -93 c 5,18,19
 288 -25 288 -25 178 116 c 4,20,21
 148 155 148 155 126.5 182 c 132,-1,22
 105 209 105 209 88 229 c 4,23,24
 71 248 71 248 53 268 c 4,25,26
 10 316 10 316 -6 319 c 5,0,1
EndSplineSet
EndChar

StartChar: bracketright
Encoding: 93 93 65
Width: 248
GlyphClass: 2
Flags: W
LayerCount: 2
Fore
SplineSet
174 -64 m 1,0,-1
 167 119 l 1,1,2
 169 161 169 161 173.5 203 c 128,-1,3
 178 245 178 245 179.5 271.5 c 128,-1,4
 181 298 181 298 181 309 c 128,-1,5
 181 320 181 320 181 327.5 c 128,-1,6
 181 335 181 335 180 338 c 1,7,8
 157 345 157 345 113.5 337.5 c 128,-1,9
 70 330 70 330 50.5 327.5 c 128,-1,10
 31 325 31 325 22 331 c 1,11,12
 11 342 11 342 15 353.5 c 128,-1,13
 19 365 19 365 32 367 c 1,14,-1
 40 367 l 1,15,16
 50 368 50 368 56 370 c 0,17,18
 110 382 110 382 144 383 c 0,19,20
 205 383 205 383 216 364 c 0,21,22
 234 332 234 332 210 148 c 0,23,24
 199 66 199 66 213 -2 c 0,25,26
 234 -96 234 -96 184 -117 c 0,27,28
 164 -125 164 -125 138.5 -123.5 c 128,-1,29
 113 -122 113 -122 96 -122 c 128,-1,30
 79 -122 79 -122 65.5 -125 c 128,-1,31
 52 -128 52 -128 38 -124 c 1,32,33
 22 -116 22 -116 25 -97 c 1,34,35
 28 -90 28 -90 36.5 -82.5 c 128,-1,36
 45 -75 45 -75 53.5 -76.5 c 128,-1,37
 62 -78 62 -78 67 -85 c 1,38,39
 73 -83 73 -83 78 -83 c 2,40,-1
 129 -84 l 2,41,42
 167 -84 167 -84 174 -78 c 1,43,-1
 174 -64 l 1,0,-1
EndSplineSet
EndChar

StartChar: asciicircum
Encoding: 94 94 66
Width: 344
GlyphClass: 2
Flags: W
LayerCount: 2
Fore
SplineSet
182 405 m 1,0,-1
 183 400 l 1,1,2
 207 383 207 383 224.5 358 c 128,-1,3
 242 333 242 333 251.5 319 c 128,-1,4
 261 305 261 305 269 294 c 1,5,6
 277 286 277 286 274 274.5 c 128,-1,7
 271 263 271 263 257 260 c 1,8,9
 236 260 236 260 194 326 c 0,10,11
 184 342 184 342 173 354 c 1,12,13
 160 327 160 327 139.5 301.5 c 128,-1,14
 119 276 119 276 103 268 c 1,15,16
 86 264 86 264 78 278 c 0,17,18
 70 292 70 292 86 304 c 1,19,20
 104 313 104 313 116 334.5 c 128,-1,21
 128 356 128 356 133 365.5 c 128,-1,22
 138 375 138 375 138 376.5 c 128,-1,23
 138 378 138 378 139 380 c 1,24,25
 131 388 131 388 135.5 399 c 128,-1,26
 140 410 140 410 152 412 c 1,27,28
 167 422 167 422 182 405 c 1,0,-1
EndSplineSet
EndChar

StartChar: underscore
Encoding: 95 95 67
Width: 457
GlyphClass: 2
Flags: W
LayerCount: 2
Fore
SplineSet
418 0 m 1,0,-1
 52 -3 l 1,1,2
 41 -2 41 -2 36 4 c 0,3,4
 32 10 32 10 32 18 c 0,5,6
 33 35 33 35 53 37 c 1,7,-1
 419 40 l 1,8,9
 436 34 436 34 436 19 c 128,-1,10
 436 4 436 4 418 0 c 1,0,-1
EndSplineSet
EndChar

StartChar: grave
Encoding: 96 96 68
Width: 228
GlyphClass: 2
Flags: W
LayerCount: 2
Fore
SplineSet
58 596 m 4,0,1
 48 612 48 612 46 625.5 c 132,-1,2
 44 639 44 639 49 645.5 c 132,-1,3
 54 652 54 652 61 654 c 4,4,5
 79 658 79 658 85 637 c 5,6,7
 93 596 93 596 159 554 c 4,8,9
 176 542 176 542 166 526 c 4,10,11
 157 511 157 511 138 519 c 5,12,13
 86 550 86 550 58 596 c 4,0,1
EndSplineSet
EndChar

StartChar: a
Encoding: 97 97 69
Width: 293
GlyphClass: 2
Flags: W
LayerCount: 2
Fore
SplineSet
26.5 113 m 132,-1,1
 38 127 38 127 67.5 155 c 132,-1,2
 97 183 97 183 121.5 198 c 132,-1,3
 146 213 146 213 158 214 c 132,-1,4
 170 215 170 215 178 210 c 4,5,6
 195 199 195 199 188 177 c 5,7,8
 195 182 195 182 201 186.5 c 132,-1,9
 207 191 207 191 216.5 192.5 c 132,-1,10
 226 194 226 194 233 187.5 c 132,-1,11
 240 181 240 181 238 169 c 5,12,13
 228 132 228 132 217.5 102 c 132,-1,14
 207 72 207 72 211 53 c 132,-1,15
 215 34 215 34 240 29.5 c 132,-1,16
 265 25 265 25 327 39 c 5,17,18
 337 40 337 40 343 35 c 132,-1,19
 349 30 349 30 350 23 c 132,-1,20
 351 16 351 16 346.5 9 c 132,-1,21
 342 2 342 2 328 -2 c 4,22,23
 292 -11 292 -11 256.5 -11.5 c 132,-1,24
 221 -12 221 -12 202.5 -1.5 c 132,-1,25
 184 9 184 9 176 26 c 4,26,27
 164 53 164 53 179 109 c 5,28,29
 164 94 164 94 143 71 c 132,-1,30
 122 48 122 48 113 39.5 c 132,-1,31
 104 31 104 31 96.5 24.5 c 132,-1,32
 89 18 89 18 71.5 13 c 132,-1,33
 54 8 54 8 37.5 9 c 132,-1,34
 21 10 21 10 9 20 c 132,-1,35
 -3 30 -3 30 -2 48.5 c 132,-1,36
 -1 67 -1 67 7 83 c 132,-1,0
 15 99 15 99 26.5 113 c 132,-1,1
144 144 m 5,37,38
 133 145 133 145 127 153 c 5,39,40
 102 133 102 133 75 107.5 c 132,-1,41
 48 82 48 82 39 51 c 5,42,43
 79 40 79 40 131 112 c 4,44,45
 145 132 145 132 160 148 c 5,46,47
 154 146 154 146 144 144 c 5,37,38
EndSplineSet
EndChar

StartChar: b
Encoding: 98 98 70
Width: 307
GlyphClass: 2
Flags: W
LayerCount: 2
Fore
SplineSet
165 353 m 0,0,1
 167 363 167 363 174 367.5 c 128,-1,2
 181 372 181 372 188 371 c 128,-1,3
 195 370 195 370 200 364 c 128,-1,4
 205 358 205 358 204 348 c 0,5,6
 195 268 195 268 134 182 c 1,7,8
 140 184 140 184 146 186 c 0,9,10
 192 204 192 204 217 195.5 c 128,-1,11
 242 187 242 187 250 168.5 c 128,-1,12
 258 150 258 150 254 124.5 c 128,-1,13
 250 99 250 99 237 74 c 0,14,15
 207 15 207 15 158 -2 c 0,16,17
 116 -17 116 -17 90 -17 c 128,-1,18
 64 -17 64 -17 45 -8 c 0,19,20
 25 0 25 0 14 14 c 0,21,22
 -22 54 -22 54 26 88 c 0,23,24
 31 92 31 92 36 96 c 1,25,26
 25 107 25 107 34 123 c 1,27,28
 96 193 96 193 116 225 c 0,29,30
 158 291 158 291 165 353 c 0,0,1
216.5 146 m 128,-1,32
 213 155 213 155 195.5 155 c 128,-1,33
 178 155 178 155 161.5 149 c 128,-1,34
 145 143 145 143 131 134 c 128,-1,35
 117 125 117 125 104.5 115 c 128,-1,36
 92 105 92 105 80 98 c 1,37,38
 84 87 84 87 75 76 c 1,39,40
 42 57 42 57 44 40 c 0,41,42
 44 33 44 33 63 26 c 0,43,44
 82 18 82 18 110 24 c 0,45,46
 159 34 159 34 197 85 c 0,47,48
 212 103 212 103 216 120 c 128,-1,31
 220 137 220 137 216.5 146 c 128,-1,32
EndSplineSet
EndChar

StartChar: c
Encoding: 99 99 71
Width: 241
GlyphClass: 2
Flags: W
LayerCount: 2
Fore
SplineSet
173 158 m 5,0,1
 160 151 160 151 149 158 c 5,2,3
 94 135 94 135 62 86 c 4,4,5
 50 68 50 68 48 49 c 5,6,7
 68 22 68 22 140 30 c 4,8,9
 169 34 169 34 196 40.5 c 132,-1,10
 223 47 223 47 235 49 c 132,-1,11
 247 51 247 51 253 46.5 c 132,-1,12
 259 42 259 42 261 36 c 4,13,14
 266 21 266 21 249 12 c 5,15,16
 170 -8 170 -8 140 -12 c 4,17,18
 73 -21 73 -21 31 6 c 4,19,20
 -6 32 -6 32 14 82 c 4,21,22
 32 126 32 126 80 164 c 4,23,24
 128 202 128 202 166 202 c 5,25,26
 176 199 176 199 181 191 c 5,27,28
 185 180 185 180 182.5 173.5 c 132,-1,29
 180 167 180 167 173 158 c 5,0,1
EndSplineSet
EndChar

StartChar: d
Encoding: 100 100 72
Width: 320
GlyphClass: 2
Flags: W
LayerCount: 2
Fore
SplineSet
124 205 m 0,0,1
 136 205 136 205 157 184 c 1,2,3
 170 206 170 206 192 250.5 c 128,-1,4
 214 295 214 295 222 317 c 128,-1,5
 230 339 230 339 241 359 c 1,6,7
 252 367 252 367 262 365 c 128,-1,8
 272 363 272 363 277 349 c 1,9,10
 277 316 277 316 265 291 c 128,-1,11
 253 266 253 266 245 250 c 128,-1,12
 237 234 237 234 230 216 c 0,13,14
 217 184 217 184 208.5 136.5 c 128,-1,15
 200 89 200 89 200 69.5 c 128,-1,16
 200 50 200 50 207 36 c 128,-1,17
 214 22 214 22 229.5 23.5 c 128,-1,18
 245 25 245 25 255 28 c 128,-1,19
 265 31 265 31 275 32.5 c 128,-1,20
 285 34 285 34 291 29.5 c 128,-1,21
 297 25 297 25 299 19 c 0,22,23
 304 4 304 4 287 -5 c 1,24,25
 274 -8 274 -8 261.5 -12 c 128,-1,26
 249 -16 249 -16 233.5 -17 c 128,-1,27
 218 -18 218 -18 204 -12 c 0,28,29
 190 -7 190 -7 180 6 c 0,30,31
 160 30 160 30 161 64 c 0,32,33
 161 89 161 89 165 117 c 1,34,35
 99 5 99 5 41 -29 c 0,36,37
 25 -38 25 -38 12 -25 c 1,38,39
 -12 13 -12 13 19 83 c 0,40,41
 38 125 38 125 82 182 c 0,42,43
 88 190 88 190 97 193.5 c 128,-1,44
 106 197 106 197 113 201 c 128,-1,45
 120 205 120 205 124 205 c 0,0,1
118 120 m 0,46,47
 130 140 130 140 132.5 145 c 128,-1,48
 135 150 135 150 137 152 c 1,49,50
 135 153 135 153 134 153 c 128,-1,51
 133 153 133 153 131 154 c 1,52,53
 129 157 129 157 123 161 c 1,54,55
 79 133 79 133 53 56 c 0,56,57
 46 35 46 35 43 17 c 1,58,59
 67 33 67 33 118 120 c 0,46,47
EndSplineSet
EndChar

StartChar: e
Encoding: 101 101 73
Width: 289
GlyphClass: 2
Flags: W
LayerCount: 2
Fore
SplineSet
217 233 m 5,0,1
 228 225 228 225 226.5 204.5 c 132,-1,2
 225 184 225 184 208.5 166 c 132,-1,3
 192 148 192 148 169 137 c 4,4,5
 137 122 137 122 72 113 c 5,6,7
 18 52 18 52 45 29 c 4,8,9
 70 6 70 6 156 18 c 4,10,11
 218 26 218 26 270 43 c 5,12,13
 288 45 288 45 293 29 c 4,14,15
 298 14 298 14 281 5 c 5,16,17
 161 -29 161 -29 80 -22 c 4,18,19
 29 -17 29 -17 12.5 7 c 132,-1,20
 -4 31 -4 31 3 64 c 132,-1,21
 10 97 10 97 35 132 c 132,-1,22
 60 167 60 167 92 194 c 132,-1,23
 124 221 124 221 158 233.5 c 132,-1,24
 192 246 192 246 217 233 c 5,0,1
181 198 m 5,25,26
 163 194 163 194 122 161 c 5,27,28
 162 173 162 173 181 198 c 5,25,26
EndSplineSet
EndChar

StartChar: f
Encoding: 102 102 74
Width: 270
GlyphClass: 2
Flags: W
LayerCount: 2
Fore
SplineSet
32 93 m 1,0,1
 14 96 14 96 12 110.5 c 128,-1,2
 10 125 10 125 27 132 c 1,3,4
 40 134 40 134 60 154 c 2,5,-1
 83 177 l 2,6,7
 116 210 116 210 139 243 c 1,8,9
 184 361 184 361 234 443 c 1,10,11
 245 451 245 451 256.5 447.5 c 128,-1,12
 268 444 268 444 269 430 c 1,13,-1
 272 430 l 1,14,-1
 269 424 l 1,15,16
 255 328 255 328 173 218 c 1,17,18
 164 195 164 195 156.5 172.5 c 128,-1,19
 149 150 149 150 141 127 c 1,20,21
 172 135 172 135 204 139 c 128,-1,22
 236 143 236 143 269 149 c 0,23,24
 279 150 279 150 285 145 c 128,-1,25
 291 140 291 140 292 133 c 128,-1,26
 293 126 293 126 288.5 119 c 128,-1,27
 284 112 284 112 260.5 107 c 128,-1,28
 237 102 237 102 199 98 c 128,-1,29
 161 94 161 94 126 81 c 1,30,31
 110 28 110 28 95 -24 c 128,-1,32
 80 -76 80 -76 68.5 -113.5 c 128,-1,33
 57 -151 57 -151 49.5 -180.5 c 128,-1,34
 42 -210 42 -210 32 -241 c 0,35,36
 9 -315 9 -315 -16 -353 c 0,37,38
 -23 -363 -23 -363 -32.5 -363 c 128,-1,39
 -42 -363 -42 -363 -50 -355 c 1,40,41
 -50 -353 -50 -353 -51 -353 c 0,42,43
 -57 -335 -57 -335 -46 -326 c 1,44,45
 -18 -278 -18 -278 -4 -222.5 c 128,-1,46
 10 -167 10 -167 25 -119.5 c 128,-1,47
 40 -72 40 -72 52 -28.5 c 128,-1,48
 64 15 64 15 77 60 c 1,49,50
 63 58 63 58 56.5 71.5 c 128,-1,51
 50 85 50 85 65 96 c 1,52,53
 79 104 79 104 93 110 c 1,54,55
 95 118 95 118 98 125 c 128,-1,56
 101 132 101 132 103 140 c 1,57,58
 88 126 88 126 70 110.5 c 128,-1,59
 52 95 52 95 32 93 c 1,0,1
EndSplineSet
EndChar

StartChar: g
Encoding: 103 103 75
Width: 253
GlyphClass: 2
Flags: W
LayerCount: 2
Fore
SplineSet
132 72 m 0,0,1
 152 99 152 99 170.5 133 c 128,-1,2
 189 167 189 167 192 175 c 1,3,4
 202 190 202 190 216.5 184.5 c 128,-1,5
 231 179 231 179 230 162 c 1,6,7
 195 42 195 42 175 -19 c 1,8,9
 189 -21 189 -21 192 -35 c 0,10,11
 196 -52 196 -52 170 -60 c 0,12,13
 165 -62 165 -62 160 -64 c 1,14,15
 122 -171 122 -171 73 -262 c 0,16,17
 65 -276 65 -276 55.5 -295.5 c 128,-1,18
 46 -315 46 -315 34 -333 c 0,19,20
 4 -377 4 -377 -25 -384 c 0,21,22
 -38 -387 -38 -387 -49 -377 c 1,23,24
 -79 -332 -79 -332 -50 -262 c 0,25,26
 8 -121 8 -121 75 -69 c 0,27,28
 98 -51 98 -51 128 -36 c 1,29,-1
 149 27 l 1,30,31
 143 20 143 20 129.5 10 c 128,-1,32
 116 0 116 0 106 -7.5 c 128,-1,33
 96 -15 96 -15 83 -18.5 c 128,-1,34
 70 -22 70 -22 56 -21 c 0,35,36
 14 -18 14 -18 8 10 c 0,37,38
 6 16 6 16 6 22.5 c 128,-1,39
 6 29 6 29 5.5 34.5 c 128,-1,40
 5 40 5 40 5 41 c 0,41,42
 1 79 1 79 45 142 c 0,43,44
 87 203 87 203 127 213 c 0,45,46
 135 215 135 215 141.5 212.5 c 128,-1,47
 148 210 148 210 156 207.5 c 128,-1,48
 164 205 164 205 168 198 c 128,-1,49
 172 191 172 191 170.5 184 c 128,-1,50
 169 177 169 177 162.5 172 c 128,-1,51
 156 167 156 167 142 170 c 128,-1,52
 128 173 128 173 109 157 c 0,53,54
 89 141 89 141 76 117 c 0,55,56
 42 61 42 61 47 25 c 1,57,58
 81 4 81 4 132 72 c 0,0,1
30 -258 m 0,59,60
 38 -244 38 -244 59.5 -204 c 128,-1,61
 81 -164 81 -164 109 -91 c 1,62,63
 88 -103 88 -103 78 -115 c 128,-1,64
 68 -127 68 -127 56.5 -143.5 c 128,-1,65
 45 -160 45 -160 32.5 -180.5 c 128,-1,66
 20 -201 20 -201 8 -224 c 0,67,68
 -4 -246 -4 -246 -12 -268 c 0,69,70
 -32 -317 -32 -317 -25 -339 c 1,71,72
 -4 -322 -4 -322 30 -258 c 0,59,60
EndSplineSet
EndChar

StartChar: h
Encoding: 104 104 76
Width: 291
GlyphClass: 2
Flags: W
LayerCount: 2
Fore
SplineSet
144 493 m 1,0,1
 148 511 148 511 163 511 c 128,-1,2
 178 511 178 511 184 494 c 1,3,4
 184 458 184 458 170 419.5 c 128,-1,5
 156 381 156 381 144.5 337 c 128,-1,6
 133 293 133 293 122 240.5 c 128,-1,7
 111 188 111 188 97 135 c 1,8,9
 123 177 123 177 155 196 c 256,10,11
 174 207 174 207 185.5 207 c 128,-1,12
 197 207 197 207 216 201 c 0,13,14
 268 187 268 187 256 107 c 0,15,16
 252 75 252 75 239 44 c 128,-1,17
 226 13 226 13 214 -2 c 1,18,19
 198 -10 198 -10 187.5 0.5 c 128,-1,20
 177 11 177 11 185 27 c 1,21,22
 208 54 208 54 214 122 c 0,23,24
 217 162 217 162 201 168 c 0,25,26
 192 172 192 172 171 158 c 128,-1,27
 150 144 150 144 134 118.5 c 128,-1,28
 118 93 118 93 104 65 c 128,-1,29
 90 37 90 37 75.5 11.5 c 128,-1,30
 61 -14 61 -14 40 -31 c 1,31,32
 26 -39 26 -39 15.5 -31.5 c 128,-1,33
 5 -24 5 -24 8 -8 c 1,34,35
 15 15 15 15 24.5 36 c 128,-1,36
 34 57 34 57 43 86 c 128,-1,37
 52 115 52 115 60.5 151 c 128,-1,38
 69 187 69 187 79 227.5 c 128,-1,39
 89 268 89 268 99 313 c 128,-1,40
 109 358 109 358 118 391.5 c 128,-1,41
 127 425 127 425 135.5 447.5 c 128,-1,42
 144 470 144 470 144 493 c 1,0,1
EndSplineSet
EndChar

StartChar: i
Encoding: 105 105 77
Width: 136
GlyphClass: 2
Flags: W
LayerCount: 2
Fore
SplineSet
51 205 m 1,0,1
 60 222 60 222 75 217 c 0,2,3
 91 212 91 212 89 194 c 1,4,5
 74 140 74 140 63.5 86.5 c 128,-1,6
 53 33 53 33 38 -21 c 1,7,8
 30 -40 30 -40 13 -35 c 128,-1,9
 -4 -30 -4 -30 1 -9.5 c 128,-1,10
 6 11 6 11 11.5 31.5 c 128,-1,11
 17 52 17 52 22 72 c 1,12,-1
 22 73 l 1,13,14
 30 106 30 106 35.5 139.5 c 128,-1,15
 41 173 41 173 51 205 c 1,0,1
103 348 m 1,16,17
 120 342 120 342 120 327 c 128,-1,18
 120 312 120 312 102 308 c 1,19,-1
 98 308 l 1,20,21
 87 309 87 309 82 315 c 0,22,23
 78 321 78 321 78 329 c 0,24,25
 79 346 79 346 99 348 c 1,26,-1
 103 348 l 1,16,17
EndSplineSet
EndChar

StartChar: j
Encoding: 106 106 78
Width: 197
GlyphClass: 2
Flags: W
LayerCount: 2
Fore
SplineSet
-78 -137 m 6,0,-1
 -77 -141 l 5,1,2
 -46 -173 -46 -173 -11 -171.5 c 132,-1,3
 24 -170 24 -170 42.5 -133.5 c 132,-1,4
 61 -97 61 -97 70 -57.5 c 132,-1,5
 79 -18 79 -18 86 23 c 132,-1,6
 93 64 93 64 100 106 c 4,7,8
 114 189 114 189 132 196 c 4,9,10
 146 202 146 202 153 192.5 c 132,-1,11
 160 183 160 183 159 174 c 5,12,13
 142 128 142 128 134 79 c 4,14,15
 126 29 126 29 117 -20 c 4,16,17
 96 -135 96 -135 42 -198 c 4,18,19
 40 -200 40 -200 36.5 -201 c 132,-1,20
 33 -202 33 -202 26 -203.5 c 132,-1,21
 19 -205 19 -205 7.5 -208 c 132,-1,22
 -4 -211 -4 -211 -16 -213 c 132,-1,23
 -28 -215 -28 -215 -44.5 -209.5 c 132,-1,24
 -61 -204 -61 -204 -76 -194 c 4,25,26
 -110 -171 -110 -171 -118 -143 c 4,27,28
 -120 -133 -120 -133 -115 -126.5 c 132,-1,29
 -110 -120 -110 -120 -103 -118 c 4,30,31
 -85 -114 -85 -114 -79 -135 c 4,32,33
 -79 -136 -79 -136 -78 -137 c 6,0,-1
138 236 m 0,34,35
 125 250 125 250 133 263 c 128,-1,36
 141 276 141 276 159 271 c 1,37,38
 170 262 170 262 173 251 c 1,39,40
 171 236 171 236 159.5 230.5 c 128,-1,41
 148 225 148 225 139 235 c 0,42,43
 138 235 138 235 138 236 c 0,34,35
EndSplineSet
EndChar

StartChar: k
Encoding: 107 107 79
Width: 299
GlyphClass: 2
Flags: W
LayerCount: 2
Fore
SplineSet
187 388 m 1,0,1
 187 367 187 367 180 341 c 1,2,3
 176 331 176 331 166 327 c 1,4,5
 140 248 140 248 100 136 c 1,6,7
 87 103 87 103 73.5 71 c 128,-1,8
 60 39 60 39 50 5 c 1,9,10
 62 5 62 5 66 -6.5 c 128,-1,11
 70 -18 70 -18 62 -30 c 1,12,13
 56 -34 56 -34 50 -39 c 128,-1,14
 44 -44 44 -44 38 -48 c 0,15,16
 22 -57 22 -57 13 -49 c 128,-1,17
 4 -41 4 -41 3 -37.5 c 128,-1,18
 2 -34 2 -34 0 -28 c 1,19,20
 16 41 16 41 43.5 106 c 128,-1,21
 71 171 71 171 84.5 209 c 128,-1,22
 98 247 98 247 104 269.5 c 128,-1,23
 110 292 110 292 118 316 c 0,24,25
 136 376 136 376 152 398 c 1,26,27
 163 406 163 406 173 404 c 128,-1,28
 183 402 183 402 187 388 c 1,0,1
219 148 m 1,29,30
 207 142 207 142 198 146.5 c 128,-1,31
 189 151 189 151 187 161 c 1,32,33
 170 157 170 157 155 145 c 1,34,35
 173 116 173 116 234 80 c 0,36,37
 249 71 249 71 259.5 63.5 c 128,-1,38
 270 56 270 56 271 48 c 0,39,40
 273 40 273 40 270 34 c 0,41,42
 261 19 261 19 241 27 c 1,43,44
 224 40 224 40 205 52.5 c 128,-1,45
 186 65 186 65 168 78 c 0,46,47
 125 108 125 108 111 144 c 1,48,49
 110 152 110 152 114 163 c 1,50,51
 131 183 131 183 162.5 195 c 128,-1,52
 194 207 194 207 220 207 c 1,53,54
 233 203 233 203 237 189 c 1,55,56
 239 175 239 175 233 167 c 128,-1,57
 227 159 227 159 219 148 c 1,29,30
EndSplineSet
EndChar

StartChar: l
Encoding: 108 108 80
Width: 262
GlyphClass: 2
Flags: W
LayerCount: 2
Fore
SplineSet
-11 -20 m 1,0,1
 -15 -6 -15 -6 -9.5 0.5 c 128,-1,2
 -4 7 -4 7 3 8 c 1,3,4
 7 14 7 14 13 24 c 128,-1,5
 19 34 19 34 25 44 c 0,6,7
 60 100 60 100 91 155 c 128,-1,8
 122 210 122 210 151 256 c 1,9,10
 158 273 158 273 166 285 c 1,11,12
 172 299 172 299 176.5 312.5 c 128,-1,13
 181 326 181 326 188.5 339.5 c 128,-1,14
 196 353 196 353 209 350.5 c 128,-1,15
 222 348 222 348 227 334 c 1,16,17
 224 305 224 305 203 270 c 0,18,19
 201 265 201 265 198.5 260 c 128,-1,20
 196 255 196 255 192 248 c 2,21,-1
 184 232 l 2,22,23
 124 112 124 112 128 12 c 0,24,25
 130 -22 130 -22 141 -52 c 0,26,27
 148 -71 148 -71 130 -79 c 0,28,29
 113 -87 113 -87 104 -67 c 0,30,31
 80 -3 80 -3 94 81 c 1,32,33
 87 68 87 68 73 46 c 256,34,35
 68 38 68 38 62 26 c 128,-1,36
 56 14 56 14 50 2 c 0,37,38
 34 -27 34 -27 16 -33 c 1,39,40
 -3 -36 -3 -36 -11 -20 c 1,0,1
EndSplineSet
EndChar

StartChar: m
Encoding: 109 109 81
Width: 566
GlyphClass: 2
Flags: W
LayerCount: 2
Fore
SplineSet
224 122 m 1,0,-1
 223 90 l 1,1,-1
 223 74 l 1,2,3
 226 80 226 80 229 86.5 c 128,-1,4
 232 93 232 93 240.5 103.5 c 128,-1,5
 249 114 249 114 272 139 c 128,-1,6
 295 164 295 164 323 187 c 0,7,8
 392 243 392 243 429.5 238 c 128,-1,9
 467 233 467 233 486.5 214 c 128,-1,10
 506 195 506 195 513 168.5 c 128,-1,11
 520 142 520 142 515 112 c 128,-1,12
 510 82 510 82 496 55 c 0,13,14
 464 -8 464 -8 410 -19 c 0,15,16
 390 -23 390 -23 385 -6 c 128,-1,17
 380 11 380 11 399 19 c 1,18,19
 438 30 438 30 461 76 c 0,20,21
 482 118 482 118 474 158 c 0,22,23
 462 224 462 224 386 182 c 0,24,25
 338 156 338 156 296 108 c 0,26,27
 272 82 272 82 261.5 59 c 128,-1,28
 251 36 251 36 245 24 c 0,29,30
 230 -7 230 -7 215 -19 c 1,31,32
 203 -25 203 -25 193.5 -20.5 c 128,-1,33
 184 -16 184 -16 182 -2 c 0,34,35
 177 39 177 39 181 81 c 128,-1,36
 185 123 185 123 183 164 c 1,37,38
 161 142 161 142 151 113.5 c 128,-1,39
 141 85 141 85 135 56 c 128,-1,40
 129 27 129 27 122 -1 c 128,-1,41
 115 -29 115 -29 99 -50 c 1,42,43
 77 -61 77 -61 67 -40 c 1,44,45
 62 -24 62 -24 61 10 c 128,-1,46
 60 44 60 44 58 81 c 0,47,48
 52 175 52 175 31 187 c 0,49,50
 24 192 24 192 11 184 c 128,-1,51
 -2 176 -2 176 -7 175 c 128,-1,52
 -12 174 -12 174 -19 178 c 0,53,54
 -25 180 -25 180 -28 186 c 0,55,56
 -36 200 -36 200 -20 212 c 1,57,58
 46 244 46 244 74 196 c 0,59,60
 86 174 86 174 90.5 142 c 128,-1,61
 95 110 95 110 97 77 c 1,62,63
 106 109 106 109 118.5 139 c 128,-1,64
 131 169 131 169 150 188.5 c 128,-1,65
 169 208 169 208 182 211 c 128,-1,66
 195 214 195 214 204 208 c 0,67,68
 224 194 224 194 224 155 c 2,69,-1
 224 122 l 1,0,-1
EndSplineSet
EndChar

StartChar: n
Encoding: 110 110 82
Width: 358
GlyphClass: 2
Flags: W
LayerCount: 2
Fore
SplineSet
12 -5 m 1,0,1
 -1 26 -1 26 1.5 70.5 c 128,-1,2
 4 115 4 115 6 137 c 128,-1,3
 8 159 8 159 5 173 c 1,4,5
 -4 178 -4 178 -5.5 189 c 128,-1,6
 -7 200 -7 200 0.5 205 c 128,-1,7
 8 210 8 210 9 210 c 0,8,9
 25 218 25 218 37 202 c 1,10,11
 52 169 52 169 42 88 c 0,12,13
 40 68 40 68 40 52 c 1,14,15
 85 121 85 121 134 174 c 0,16,17
 169 211 169 211 203 213 c 0,18,19
 220 214 220 214 237.5 217.5 c 128,-1,20
 255 221 255 221 269 213 c 0,21,22
 329 177 329 177 312 94 c 0,23,24
 305 58 305 58 286 26 c 0,25,26
 254 -29 254 -29 229 -34 c 0,27,28
 220 -36 220 -36 211 -38.5 c 128,-1,29
 202 -41 202 -41 195.5 -37 c 128,-1,30
 189 -33 189 -33 187 -26 c 0,31,32
 182 -9 182 -9 200 -2 c 128,-1,33
 218 5 218 5 233.5 22.5 c 128,-1,34
 249 40 249 40 259.5 62.5 c 128,-1,35
 270 85 270 85 274 108.5 c 128,-1,36
 278 132 278 132 273 150 c 0,37,38
 261 190 261 190 207 173 c 0,39,40
 176 164 176 164 154 142 c 128,-1,41
 132 120 132 120 114 93.5 c 128,-1,42
 96 67 96 67 79 39.5 c 128,-1,43
 62 12 62 12 41 -9 c 1,44,45
 25 -18 25 -18 12 -5 c 1,0,1
EndSplineSet
EndChar

StartChar: o
Encoding: 111 111 83
Width: 306
GlyphClass: 2
Flags: W
LayerCount: 2
Fore
SplineSet
6 84 m 4,0,1
 12 100 12 100 20 120 c 4,2,3
 26 141 26 141 36 158 c 4,4,5
 59 203 59 203 84 222 c 5,6,-1
 87 228 l 5,7,8
 140 274 140 274 192 262 c 4,9,10
 216 256 216 256 234 239 c 4,11,12
 252 223 252 223 260 200 c 4,13,14
 280 146 280 146 246 85 c 4,15,16
 224 44 224 44 172 19 c 4,17,18
 134 0 134 0 75 -7 c 4,19,20
 42 -12 42 -12 18 20 c 132,-1,21
 -6 52 -6 52 6 84 c 4,0,1
212 104.5 m 132,-1,23
 227 126 227 126 227 160 c 132,-1,24
 227 194 227 194 209 211 c 132,-1,25
 191 228 191 228 165 224 c 5,26,27
 161 212 161 212 148 209 c 5,28,29
 110 204 110 204 79 156 c 4,30,31
 52 114 52 114 45 75 c 4,32,33
 43 67 43 67 46.5 59.5 c 132,-1,34
 50 52 50 52 52 44 c 5,35,36
 58 42 58 42 64 38.5 c 132,-1,37
 70 35 70 35 84.5 34 c 132,-1,38
 99 33 99 33 125.5 42 c 132,-1,39
 152 51 152 51 174.5 67 c 132,-1,22
 197 83 197 83 212 104.5 c 132,-1,23
EndSplineSet
EndChar

StartChar: p
Encoding: 112 112 84
Width: 320
GlyphClass: 2
Flags: W
LayerCount: 2
Fore
SplineSet
60 107 m 1,0,-1
 54 100 l 1,1,2
 38 92 38 92 27.5 102.5 c 128,-1,3
 17 113 17 113 25 129 c 1,4,5
 58 171 58 171 80 183 c 1,6,7
 87 208 87 208 93.5 232 c 128,-1,8
 100 256 100 256 105 272.5 c 128,-1,9
 110 289 110 289 114 313 c 0,10,11
 117 336 117 336 126 362 c 0,12,13
 145 427 145 427 167 434 c 1,14,15
 179 436 179 436 189 424 c 1,16,-1
 195 409 l 1,17,18
 199 396 199 396 193 388.5 c 128,-1,19
 187 381 187 381 177 380 c 1,20,21
 157 318 157 318 127 197 c 1,22,23
 148 198 148 198 175.5 197 c 128,-1,24
 203 196 203 196 228 181.5 c 128,-1,25
 253 167 253 167 267 146 c 128,-1,26
 281 125 281 125 280.5 100 c 128,-1,27
 280 75 280 75 257.5 55 c 128,-1,28
 235 35 235 35 206 25 c 128,-1,29
 177 15 177 15 145 5.5 c 128,-1,30
 113 -4 113 -4 69 5 c 1,31,32
 29 -110 29 -110 -21 -184 c 0,33,34
 -32 -201 -32 -201 -49 -190 c 0,35,36
 -64 -180 -64 -180 -54 -161 c 0,37,38
 12 -65 12 -65 60 107 c 1,0,-1
116 156 m 1,39,40
 102 105 102 105 82 43 c 1,41,42
 127 37 127 37 160 49 c 0,43,44
 219 71 219 71 241 105 c 1,45,46
 231 138 231 138 191 152 c 0,47,48
 153 166 153 166 116 156 c 1,39,40
EndSplineSet
EndChar

StartChar: q
Encoding: 113 113 85
Width: 262
GlyphClass: 2
Flags: W
LayerCount: 2
Fore
SplineSet
175 155 m 1,0,1
 189 143 189 143 185 133 c 0,2,3
 177 114 177 114 159 119 c 128,-1,4
 141 124 141 124 119 114 c 128,-1,5
 97 104 97 104 80 85 c 0,6,7
 39 39 39 39 49 4 c 1,8,-1
 53 2 l 1,9,10
 96 16 96 16 156 92 c 0,11,12
 170 110 170 110 187 126 c 1,13,14
 202 137 202 137 211 131 c 0,15,16
 228 120 228 120 220 103 c 0,17,18
 180 24 180 24 145.5 -57 c 128,-1,19
 111 -138 111 -138 72 -218 c 1,20,21
 138 -158 138 -158 207 -120 c 0,22,23
 224 -112 224 -112 232 -126 c 0,24,25
 240 -139 240 -139 230 -153 c 1,26,27
 210 -164 210 -164 200 -169 c 0,28,29
 188 -174 188 -174 180 -180 c 0,30,31
 144 -201 144 -201 121 -227 c 128,-1,32
 98 -253 98 -253 84 -267 c 0,33,34
 52 -300 52 -300 26 -310 c 1,35,36
 13 -313 13 -313 5 -305 c 128,-1,37
 -3 -297 -3 -297 0 -284 c 1,38,39
 13 -243 13 -243 33 -205 c 128,-1,40
 53 -167 53 -167 69 -131.5 c 128,-1,41
 85 -96 85 -96 99.5 -63 c 128,-1,42
 114 -30 114 -30 129 2 c 1,43,44
 120 -6 120 -6 111.5 -11.5 c 128,-1,45
 103 -17 103 -17 90 -26 c 128,-1,46
 77 -35 77 -35 62 -37 c 128,-1,47
 47 -39 47 -39 34 -34 c 0,48,49
 2 -22 2 -22 6 12 c 0,50,51
 13 62 13 62 53 113 c 0,52,53
 98 170 98 170 145 164 c 0,54,55
 153 163 153 163 160 160 c 128,-1,56
 167 157 167 157 175 155 c 1,0,1
EndSplineSet
EndChar

StartChar: r
Encoding: 114 114 86
Width: 272
GlyphClass: 2
Flags: W
LayerCount: 2
Fore
SplineSet
3 186 m 1,0,1
 -3 203 -3 203 5 210.5 c 128,-1,2
 13 218 13 218 19.5 218 c 128,-1,3
 26 218 26 218 34 212 c 1,4,5
 55 186 55 186 54 154 c 128,-1,6
 53 122 53 122 51.5 103 c 128,-1,7
 50 84 50 84 49.5 77.5 c 128,-1,8
 49 71 49 71 48 66 c 2,9,-1
 45 33 l 1,10,11
 85 91 85 91 146 126 c 128,-1,12
 207 161 207 161 283 190 c 1,13,14
 301 192 301 192 306 176 c 0,15,16
 311 161 311 161 294 152 c 0,17,18
 189 112 189 112 145.5 79 c 128,-1,19
 102 46 102 46 77 10.5 c 128,-1,20
 52 -25 52 -25 37 -74 c 0,21,22
 32 -86 32 -86 18 -90 c 1,23,-1
 16 -90 l 1,24,25
 -2 -87 -2 -87 -5 -69 c 1,26,27
 -4 -44 -4 -44 1 -5 c 128,-1,28
 6 34 6 34 10 72 c 0,29,30
 20 166 20 166 3 186 c 1,0,1
EndSplineSet
EndChar

StartChar: s
Encoding: 115 115 87
Width: 241
GlyphClass: 2
Flags: W
LayerCount: 2
Fore
SplineSet
190 185 m 1,0,1
 204 173 204 173 200 163 c 0,2,3
 192 144 192 144 175 148 c 1,4,5
 155 156 155 156 131 148 c 0,6,7
 91 135 91 135 64 119 c 1,8,9
 83 107 83 107 104 100 c 0,10,11
 126 93 126 93 144 82 c 0,12,13
 186 60 186 60 196 22 c 1,14,15
 194 10 194 10 189 4 c 1,16,17
 146 -26 146 -26 79 -40 c 0,18,19
 14 -54 14 -54 -40 -43 c 1,20,21
 -57 -35 -57 -35 -53 -20.5 c 128,-1,22
 -49 -6 -49 -6 -32 -4 c 1,23,24
 32 -15 32 -15 114 10 c 0,25,26
 138 17 138 17 152 27 c 1,27,28
 135 39 135 39 114 47 c 128,-1,29
 93 55 93 55 73.5 64.5 c 128,-1,30
 54 74 54 74 39.5 87 c 128,-1,31
 25 100 25 100 21 123 c 1,32,33
 20 137 20 137 30 145 c 1,34,35
 130 207 130 207 190 185 c 1,0,1
EndSplineSet
EndChar

StartChar: t
Encoding: 116 116 88
Width: 238
GlyphClass: 2
Flags: W
LayerCount: 2
Fore
SplineSet
67 174 m 1,0,1
 49 169 49 169 24 162 c 0,2,3
 4 158 4 158 -1 175 c 128,-1,4
 -6 192 -6 192 11 199 c 0,5,6
 30 206 30 206 75 217 c 1,7,8
 80 253 80 253 92.5 293 c 128,-1,9
 105 333 105 333 111 362 c 1,10,11
 109 366 109 366 112 377 c 128,-1,12
 115 388 115 388 117.5 394 c 128,-1,13
 120 400 120 400 126 402 c 0,14,15
 132 405 132 405 139 404 c 0,16,17
 154 400 154 400 154 383 c 1,18,-1
 155 383 l 1,19,-1
 153 379 l 1,20,21
 147 343 147 343 137.5 308 c 128,-1,22
 128 273 128 273 120 238 c 2,23,-1
 117 226 l 1,24,-1
 180 238 l 2,25,26
 190 239 190 239 196 234 c 128,-1,27
 202 229 202 229 203 222 c 128,-1,28
 204 215 204 215 199.5 208 c 128,-1,29
 195 201 195 201 179 198 c 0,30,31
 127 188 127 188 109 184 c 1,32,33
 98 123 98 123 84.5 64.5 c 128,-1,34
 71 6 71 6 44 -51 c 1,35,36
 32 -67 32 -67 18 -59 c 128,-1,37
 4 -51 4 -51 8 -34 c 1,38,39
 32 17 32 17 44.5 68.5 c 128,-1,40
 57 120 57 120 67 174 c 1,0,1
EndSplineSet
EndChar

StartChar: u
Encoding: 117 117 89
Width: 351
GlyphClass: 2
Flags: W
LayerCount: 2
Fore
SplineSet
57 181 m 0,0,1
 66 199 66 199 84 191 c 0,2,3
 90 188 90 188 93.5 180.5 c 128,-1,4
 97 173 97 173 91 161.5 c 128,-1,5
 85 150 85 150 73.5 128 c 128,-1,6
 62 106 62 106 52 82 c 0,7,8
 29 23 29 23 41 -4 c 1,9,10
 87 -18 87 -18 130 61 c 0,11,12
 163 121 163 121 176.5 138.5 c 128,-1,13
 190 156 190 156 205 162 c 1,14,15
 217 164 217 164 227 152 c 1,16,17
 232 140 232 140 222.5 107.5 c 128,-1,18
 213 75 213 75 208 56 c 128,-1,19
 203 37 203 37 201.5 23 c 128,-1,20
 200 9 200 9 205.5 2.5 c 128,-1,21
 211 -4 211 -4 226 1.5 c 128,-1,22
 241 7 241 7 255 14 c 0,23,24
 270 20 270 20 284 26 c 0,25,26
 324 44 324 44 337.5 51.5 c 128,-1,27
 351 59 351 59 357 57 c 0,28,29
 363 56 363 56 368 50 c 0,30,31
 376 37 376 37 365 22 c 1,32,33
 302 -14 302 -14 271 -27 c 0,34,35
 197 -58 197 -58 176 -27 c 0,36,37
 159 -3 159 -3 164 40 c 1,38,39
 108 -44 108 -44 58 -48 c 0,40,41
 14 -52 14 -52 0 -10 c 0,42,43
 -7 10 -7 10 -2 30.5 c 128,-1,44
 3 51 3 51 5 58.5 c 128,-1,45
 7 66 7 66 8.5 72 c 128,-1,46
 10 78 10 78 13 86 c 0,47,48
 36 144 36 144 57 181 c 0,0,1
EndSplineSet
EndChar

StartChar: v
Encoding: 118 118 90
Width: 259
GlyphClass: 2
Flags: W
LayerCount: 2
Fore
SplineSet
0 159 m 1,0,1
 -6 176 -6 176 2 183.5 c 128,-1,2
 10 191 10 191 16.5 191 c 128,-1,3
 23 191 23 191 31 185 c 1,4,5
 53 162 53 162 58 104 c 0,6,7
 60 82 60 82 62.5 58.5 c 128,-1,8
 65 35 65 35 74 16 c 1,9,10
 93 32 93 32 104.5 52 c 128,-1,11
 116 72 116 72 127.5 93.5 c 128,-1,12
 139 115 139 115 154.5 135.5 c 128,-1,13
 170 156 170 156 199 174 c 1,14,15
 216 182 216 182 224 168 c 0,16,17
 232 155 232 155 222 141 c 1,18,19
 198 126 198 126 182.5 105.5 c 128,-1,20
 167 85 167 85 153.5 62 c 128,-1,21
 140 39 140 39 126 17 c 128,-1,22
 112 -5 112 -5 91 -23 c 1,23,24
 82 -28 82 -28 72 -27 c 1,25,26
 41 -17 41 -17 31.5 7 c 128,-1,27
 22 31 22 31 20.5 59 c 128,-1,28
 19 87 19 87 17.5 114.5 c 128,-1,29
 16 142 16 142 0 159 c 1,0,1
EndSplineSet
EndChar

StartChar: w
Encoding: 119 119 91
Width: 388
GlyphClass: 2
Flags: W
LayerCount: 2
Fore
SplineSet
6 -26 m 1,0,1
 -8 2 -8 2 -1 62 c 0,2,3
 2 86 2 86 5.5 108.5 c 128,-1,4
 9 131 9 131 8 148 c 1,5,6
 0 150 0 150 -4 159.5 c 128,-1,7
 -8 169 -8 169 -3 177.5 c 128,-1,8
 2 186 2 186 5 191 c 1,9,10
 25 205 25 205 39 187 c 0,11,12
 50 171 50 171 47.5 130 c 128,-1,13
 45 89 45 89 41.5 68 c 128,-1,14
 38 47 38 47 37 35 c 1,15,16
 45 50 45 50 53 69 c 0,17,18
 60 89 60 89 70 108 c 0,19,20
 93 153 93 153 124 162 c 1,21,22
 142 163 142 163 148 145 c 0,23,24
 152 130 152 130 149 82.5 c 128,-1,25
 146 35 146 35 145.5 14 c 128,-1,26
 145 -7 145 -7 150 -12 c 1,27,28
 190 -1 190 -1 240 65 c 0,29,30
 289 128 289 128 302 171 c 1,31,32
 311 188 311 188 326 183 c 0,33,34
 342 178 342 178 340 160 c 1,35,36
 311 69 311 69 214 -18 c 0,37,38
 181 -45 181 -45 166 -49 c 0,39,40
 133 -59 133 -59 113 -32 c 0,41,42
 100 -12 100 -12 109 66 c 0,43,44
 111 84 111 84 112 95 c 1,45,46
 105 80 105 80 97.5 62 c 128,-1,47
 90 44 90 44 82 27 c 0,48,49
 62 -13 62 -13 36 -30 c 1,50,51
 20 -39 20 -39 6 -26 c 1,0,1
EndSplineSet
EndChar

StartChar: x
Encoding: 120 120 92
Width: 259
GlyphClass: 2
Flags: W
LayerCount: 2
Fore
SplineSet
14 165 m 1,0,-1
 15 173 l 1,1,2
 19 191 19 191 38 192 c 1,3,4
 62 188 62 188 82 142 c 0,5,6
 88 130 88 130 93 119 c 1,7,8
 103 136 103 136 113 153 c 128,-1,9
 123 170 123 170 134 187 c 1,10,11
 149 198 149 198 158 192 c 0,12,13
 175 181 175 181 167 164 c 1,14,15
 154 144 154 144 142.5 124.5 c 128,-1,16
 131 105 131 105 119 85 c 1,17,18
 155 49 155 49 184.5 26.5 c 128,-1,19
 214 4 214 4 219.5 -0.5 c 128,-1,20
 225 -5 225 -5 226.5 -13 c 128,-1,21
 228 -21 228 -21 224 -27 c 0,22,23
 215 -42 215 -42 196 -34 c 1,24,25
 131 16 131 16 97 50 c 1,26,27
 62 -3 62 -3 20 -36 c 1,28,29
 4 -44 4 -44 -6.5 -33.5 c 128,-1,30
 -17 -23 -17 -23 -9 -7 c 1,31,32
 33 24 33 24 69 81 c 1,33,34
 66 85 66 85 63 88.5 c 128,-1,35
 60 92 60 92 58 97 c 1,36,37
 50 108 50 108 44.5 120 c 128,-1,38
 39 132 39 132 32 144 c 1,39,40
 18 146 18 146 14 165 c 1,0,-1
EndSplineSet
EndChar

StartChar: y
Encoding: 121 121 93
Width: 262
GlyphClass: 2
Flags: W
LayerCount: 2
Fore
SplineSet
155 -69 m 1,0,1
 183 -56 183 -56 191 -74 c 0,2,3
 199 -91 199 -91 181 -101 c 0,4,5
 159 -111 159 -111 133 -127 c 1,6,7
 98 -213 98 -213 74 -246.5 c 128,-1,8
 50 -280 50 -280 32.5 -297.5 c 128,-1,9
 15 -315 15 -315 -0.5 -321.5 c 128,-1,10
 -16 -328 -16 -328 -27 -325 c 128,-1,11
 -38 -322 -38 -322 -48 -315 c 0,12,13
 -72 -297 -72 -297 -68 -280 c 0,14,15
 -61 -241 -61 -241 -41 -217 c 0,16,17
 -20 -193 -20 -193 6 -171 c 0,18,19
 58 -128 58 -128 102 -100 c 1,20,21
 118 -63 118 -63 150 34 c 1,22,23
 119 -6 119 -6 81 -24 c 0,24,25
 56 -35 56 -35 32 -16 c 0,26,27
 12 0 12 0 7 30 c 1,28,-1
 6 45 l 2,29,30
 6 50 6 50 5 54 c 0,31,32
 5 58 5 58 6 64 c 2,33,-1
 7 80 l 1,34,35
 11 115 11 115 22 147 c 1,36,37
 31 164 31 164 46 159 c 0,38,39
 62 154 62 154 60 136 c 1,40,41
 57 128 57 128 55 119 c 128,-1,42
 53 110 53 110 51.5 103 c 128,-1,43
 50 96 50 96 49.5 91 c 128,-1,44
 49 86 49 86 48 82.5 c 128,-1,45
 47 79 47 79 47 75.5 c 128,-1,46
 47 72 47 72 45.5 52 c 128,-1,47
 44 32 44 32 51.5 20 c 128,-1,48
 59 8 59 8 72 14.5 c 128,-1,49
 85 21 85 21 102 41 c 128,-1,50
 119 61 119 61 135.5 83 c 128,-1,51
 152 105 152 105 166.5 125 c 128,-1,52
 181 145 181 145 190.5 152 c 128,-1,53
 200 159 200 159 210 156.5 c 128,-1,54
 220 154 220 154 224 140 c 1,55,56
 226 106 226 106 177 -15 c 0,57,58
 166 -42 166 -42 162 -51 c 128,-1,59
 158 -60 158 -60 157.5 -63 c 128,-1,60
 157 -66 157 -66 155 -69 c 1,0,1
-12 -283 m 1,61,62
 29 -253 29 -253 73 -165 c 1,63,64
 -18 -228 -18 -228 -26 -276 c 1,65,66
 -24 -278 -24 -278 -22 -280 c 0,67,68
 -16 -287 -16 -287 -15 -286 c 2,69,-1
 -12 -283 l 1,61,62
EndSplineSet
EndChar

StartChar: z
Encoding: 122 122 94
Width: 378
GlyphClass: 2
Flags: W
LayerCount: 2
Fore
SplineSet
23 117 m 1,0,1
 7 109 7 109 -3.5 119.5 c 128,-1,2
 -14 130 -14 130 -6 146 c 1,3,4
 3 154 3 154 26.5 168 c 128,-1,5
 50 182 50 182 74 190 c 0,6,7
 137 212 137 212 143 166 c 0,8,9
 145 152 145 152 137 138 c 128,-1,10
 129 124 129 124 119.5 110.5 c 128,-1,11
 110 97 110 97 102 84 c 128,-1,12
 94 71 94 71 96 53.5 c 128,-1,13
 98 36 98 36 112 16 c 128,-1,14
 126 -4 126 -4 132.5 -16 c 128,-1,15
 139 -28 139 -28 140.5 -31.5 c 128,-1,16
 142 -35 142 -35 144 -39 c 1,17,18
 251 14 251 14 402 67 c 1,19,20
 420 69 420 69 425 53 c 0,21,22
 430 38 430 38 413 29 c 1,23,24
 233 -33 233 -33 156 -78 c 1,25,26
 164 -143 164 -143 107 -191 c 0,27,28
 94 -202 94 -202 76.5 -203 c 128,-1,29
 59 -204 59 -204 44 -197 c 128,-1,30
 29 -190 29 -190 21 -175.5 c 128,-1,31
 13 -161 13 -161 19 -145.5 c 128,-1,32
 25 -130 25 -130 32.5 -122 c 128,-1,33
 40 -114 40 -114 50 -104 c 0,34,35
 68 -84 68 -84 112 -57 c 1,36,37
 105 -42 105 -42 94 -27 c 0,38,39
 84 -12 84 -12 74 4 c 0,40,41
 42 60 42 60 70 102 c 0,42,43
 95 138 95 138 101 156 c 1,44,45
 90 159 90 159 85 154 c 0,46,47
 51 144 51 144 23 117 c 1,0,1
61 -154 m 1,48,-1
 62 -162 l 1,49,50
 80 -170 80 -170 98 -144 c 0,51,52
 112 -124 112 -124 119 -102 c 1,53,54
 83 -126 83 -126 61 -154 c 1,48,-1
EndSplineSet
EndChar

StartChar: braceleft
Encoding: 123 123 95
Width: 218
GlyphClass: 2
Flags: W
LayerCount: 2
Fore
SplineSet
240 -157 m 1,0,1
 211 -155 211 -155 182 -154.5 c 128,-1,2
 153 -154 153 -154 129 -152.5 c 128,-1,3
 105 -151 105 -151 86.5 -146 c 128,-1,4
 68 -141 68 -141 42 -134.5 c 128,-1,5
 16 -128 16 -128 7 -108 c 128,-1,6
 -2 -88 -2 -88 2 -63 c 128,-1,7
 6 -38 6 -38 17.5 -13 c 128,-1,8
 29 12 29 12 37.5 30.5 c 128,-1,9
 46 49 46 49 50 58.5 c 128,-1,10
 54 68 54 68 56 74.5 c 128,-1,11
 58 81 58 81 59 89.5 c 128,-1,12
 60 98 60 98 63 117 c 1,13,14
 55 118 55 118 46 123 c 1,15,16
 36 134 36 134 39 147 c 1,17,18
 43 156 43 156 56 165.5 c 128,-1,19
 69 175 69 175 74.5 180.5 c 128,-1,20
 80 186 80 186 80.5 195 c 128,-1,21
 81 204 81 204 72.5 215 c 128,-1,22
 64 226 64 226 53 237.5 c 128,-1,23
 42 249 42 249 31.5 260.5 c 128,-1,24
 21 272 21 272 18 284 c 0,25,26
 2 338 2 338 55 400 c 0,27,28
 94 446 94 446 158 478 c 0,29,30
 172 484 172 484 182 474 c 0,31,32
 194 462 194 462 183 448 c 0,33,34
 182 446 182 446 181 444 c 0,35,36
 172 432 172 432 161 434 c 1,37,38
 132 417 132 417 113 398 c 2,39,-1
 86 371 l 1,40,41
 57 338 57 338 55 319 c 128,-1,42
 53 300 53 300 63.5 285 c 128,-1,43
 74 270 74 270 91 254.5 c 128,-1,44
 108 239 108 239 116 216 c 0,45,46
 130 178 130 178 93 145 c 1,47,48
 124 122 124 122 84 36 c 0,49,50
 74 14 74 14 64 -8 c 0,51,52
 39 -62 39 -62 42 -83 c 1,53,54
 88 -116 88 -116 191 -116 c 0,55,56
 217 -116 217 -116 241 -117 c 1,57,58
 258 -123 258 -123 258 -138 c 128,-1,59
 258 -153 258 -153 240 -157 c 1,0,1
EndSplineSet
EndChar

StartChar: bar
Encoding: 124 124 96
Width: 148
GlyphClass: 2
Flags: W
LayerCount: 2
Fore
SplineSet
52 599 m 1,0,1
 45 616 45 616 58 624 c 128,-1,2
 71 632 71 632 85 622 c 1,3,4
 111 585 111 585 100 468 c 0,5,6
 95 406 95 406 88.5 346 c 128,-1,7
 82 286 82 286 79 241 c 0,8,9
 72 138 72 138 93 60 c 1,10,11
 104 60 104 60 109 50.5 c 128,-1,12
 114 41 114 41 108 28 c 1,13,14
 102 21 102 21 95 15 c 128,-1,15
 88 9 88 9 78.5 11 c 128,-1,16
 69 13 69 13 66 16 c 128,-1,17
 63 19 63 19 59 27 c 1,18,19
 30 147 30 147 47 325 c 0,20,21
 52 374 52 374 55 408.5 c 128,-1,22
 58 443 58 443 59 469 c 128,-1,23
 60 495 60 495 61 522 c 0,24,25
 61 586 61 586 52 599 c 1,0,1
EndSplineSet
EndChar

StartChar: braceright
Encoding: 125 125 97
Width: 205
GlyphClass: 2
Flags: W
LayerCount: 2
Fore
SplineSet
101 47 m 0,0,1
 101 56 101 56 109 101 c 1,2,3
 57 107 57 107 39 124 c 128,-1,4
 21 141 21 141 23.5 166 c 128,-1,5
 26 191 26 191 42.5 221 c 128,-1,6
 59 251 59 251 76 282.5 c 128,-1,7
 93 314 93 314 103.5 345.5 c 128,-1,8
 114 377 114 377 105 404 c 0,9,10
 98 423 98 423 54 431 c 0,11,12
 19 438 19 438 25 458 c 0,13,14
 29 472 29 472 46 474 c 1,15,16
 98 463 98 463 114 450 c 0,17,18
 143 426 143 426 149 390 c 128,-1,19
 155 354 155 354 143 325.5 c 128,-1,20
 131 297 131 297 114.5 268.5 c 128,-1,21
 98 240 98 240 82.5 211.5 c 128,-1,22
 67 183 67 183 64 155 c 0,23,24
 64 148 64 148 75 146 c 128,-1,25
 86 144 86 144 100 142 c 0,26,27
 140 136 140 136 146 124.5 c 128,-1,28
 152 113 152 113 150.5 103.5 c 128,-1,29
 149 94 149 94 145 84 c 0,30,31
 135 59 135 59 141 43 c 128,-1,32
 147 27 147 27 161 4 c 0,33,34
 175 -20 175 -20 186 -44 c 0,35,36
 238 -150 238 -150 169 -192 c 0,37,38
 110 -228 110 -228 30 -216 c 0,39,40
 -8 -210 -8 -210 -33 -195 c 1,41,42
 -46 -181 -46 -181 -38 -168 c 128,-1,43
 -30 -155 -30 -155 -12 -160 c 1,44,45
 25 -184 25 -184 89 -178 c 0,46,47
 155 -172 155 -172 167 -132 c 0,48,49
 176 -100 176 -100 138.5 -40.5 c 128,-1,50
 101 19 101 19 101 47 c 0,0,1
EndSplineSet
EndChar

StartChar: asciitilde
Encoding: 126 126 98
Width: 498
GlyphClass: 2
Flags: W
LayerCount: 2
Fore
SplineSet
79 292.5 m 132,-1,1
 67 280 67 280 63.5 269.5 c 132,-1,2
 60 259 60 259 53 256 c 132,-1,3
 46 253 46 253 39 255 c 4,4,5
 22 260 22 260 27.5 283.5 c 132,-1,6
 33 307 33 307 54 327.5 c 132,-1,7
 75 348 75 348 102 359 c 132,-1,8
 129 370 129 370 157.5 370 c 132,-1,9
 186 370 186 370 203.5 360 c 132,-1,10
 221 350 221 350 231 341 c 132,-1,11
 241 332 241 332 251 323 c 4,12,13
 290 287 290 287 332 301 c 4,14,15
 364 311 364 311 392 331 c 6,16,-1
 435 362 l 5,17,18
 444 380 444 380 462 372 c 4,19,20
 468 369 468 369 471.5 361.5 c 132,-1,21
 475 354 475 354 472 347 c 4,22,23
 469 339 469 339 460 332 c 4,24,25
 444 320 444 320 431 314 c 4,26,27
 427 312 427 312 432 314 c 5,28,-1
 431 313 l 6,29,-1
 403 296 l 6,30,31
 390 288 390 288 378 280 c 4,32,33
 350 262 350 262 322 260 c 132,-1,34
 294 258 294 258 275 266 c 132,-1,35
 256 274 256 274 240 286 c 132,-1,36
 224 298 224 298 207.5 311 c 132,-1,37
 191 324 191 324 173 330 c 132,-1,38
 155 336 155 336 138.5 330.5 c 132,-1,39
 122 325 122 325 106.5 315 c 132,-1,0
 91 305 91 305 79 292.5 c 132,-1,1
434 315 m 6,40,-1
 433 314 l 6,41,42
 433 315 433 315 434 315 c 6,40,-1
EndSplineSet
EndChar

StartChar: anusvara
Encoding: 258 3330 99
Width: 232
GlyphClass: 2
Flags: W
LayerCount: 2
Fore
SplineSet
122 165 m 4,0,1
 128 159 128 159 129 157 c 5,2,3
 134 155 134 155 138 154 c 4,4,5
 166 146 166 146 169.5 124 c 132,-1,6
 173 102 173 102 165.5 79 c 132,-1,7
 158 56 158 56 142 34 c 4,8,9
 126 13 126 13 106 -4 c 4,10,11
 60 -40 60 -40 27 -18 c 4,12,13
 -8 6 -8 6 2 60 c 4,14,15
 12 109 12 109 48 145 c 4,16,17
 86 182 86 182 122 165 c 4,0,1
87 127 m 5,18,19
 70 117 70 117 58 96 c 4,20,21
 39 62 39 62 39 47.5 c 132,-1,22
 39 33 39 33 41 30.5 c 132,-1,23
 43 28 43 28 50 17 c 5,24,25
 82 17 82 17 109 51 c 4,26,27
 137 86 137 86 123 116 c 5,28,29
 115 118 115 118 108 120 c 4,30,31
 92 125 92 125 87 127 c 5,18,19
EndSplineSet
EndChar

StartChar: visarga
Encoding: 259 3331 100
Width: 208
GlyphClass: 2
Flags: W
LayerCount: 2
Fore
SplineSet
132 110 m 1,0,1
 139 103 139 103 140 100.5 c 128,-1,2
 141 98 141 98 142 98 c 0,3,4
 163 77 163 77 158.5 46.5 c 128,-1,5
 154 16 154 16 135 -9.5 c 128,-1,6
 116 -35 116 -35 86.5 -47.5 c 128,-1,7
 57 -60 57 -60 29 -44 c 0,8,9
 14 -35 14 -35 13.5 -11 c 128,-1,10
 13 13 13 13 22.5 38.5 c 128,-1,11
 32 64 32 64 50.5 86.5 c 128,-1,12
 69 109 69 109 91 115 c 1,13,14
 99 120 99 120 109 117 c 1,15,16
 118 117 118 117 132 110 c 1,0,1
82 291 m 128,-1,18
 99 304 99 304 115.5 306 c 128,-1,19
 132 308 132 308 138 300 c 128,-1,20
 144 292 144 292 142 284 c 1,21,22
 158 273 158 273 164 251.5 c 128,-1,23
 170 230 170 230 164 207.5 c 128,-1,24
 158 185 158 185 140.5 167 c 128,-1,25
 123 149 123 149 94.5 147 c 128,-1,26
 66 145 66 145 52 155.5 c 128,-1,27
 38 166 38 166 34 183 c 128,-1,28
 30 200 30 200 35.5 220.5 c 128,-1,29
 41 241 41 241 53 259.5 c 128,-1,17
 65 278 65 278 82 291 c 128,-1,18
105.5 20 m 128,-1,31
 115 34 115 34 119.5 51 c 128,-1,32
 124 68 124 68 100 77 c 1,33,34
 79 68 79 68 61 26 c 0,35,36
 43 -15 43 -15 62 -15 c 0,37,38
 71 -15 71 -15 83.5 -4.5 c 128,-1,30
 96 6 96 6 105.5 20 c 128,-1,31
99 244 m 0,39,40
 95 243 95 243 89 243 c 1,41,42
 72 215 72 215 74 188 c 1,43,44
 92 174 92 174 110 197 c 0,45,46
 128 219 128 219 128 232 c 0,47,48
 126 259 126 259 99 244 c 0,39,40
EndSplineSet
EndChar

StartChar: ml_a
Encoding: 260 3333 101
Width: 807
GlyphClass: 2
Flags: W
LayerCount: 2
Fore
SplineSet
683 161 m 1,0,1
 665 174 665 174 628 168 c 0,2,3
 564 158 564 158 502 84 c 0,4,5
 486 66 486 66 475.5 53.5 c 128,-1,6
 465 41 465 41 460.5 31.5 c 128,-1,7
 456 22 456 22 448 14 c 1,8,9
 434 6 434 6 423.5 13.5 c 128,-1,10
 413 21 413 21 416 37 c 1,11,12
 431 92 431 92 428 131.5 c 128,-1,13
 425 171 425 171 416 189.5 c 128,-1,14
 407 208 407 208 394 217 c 0,15,16
 369 234 369 234 330 223 c 1,17,18
 336 199 336 199 310 162 c 0,19,20
 300 148 300 148 292.5 137 c 128,-1,21
 285 126 285 126 286.5 120 c 128,-1,22
 288 114 288 114 297 108.5 c 128,-1,23
 306 103 306 103 317 97 c 0,24,25
 347 81 347 81 352 70 c 0,26,27
 370 32 370 32 344 4 c 0,28,29
 321 -21 321 -21 278 -26 c 0,30,31
 266 -27 266 -27 254 -20 c 0,32,33
 242 -14 242 -14 232 -8 c 0,34,35
 209 3 209 3 197 33 c 0,36,37
 189 53 189 53 180.5 74 c 128,-1,38
 172 95 172 95 178.5 119.5 c 128,-1,39
 185 144 185 144 199 166 c 0,40,41
 225 208 225 208 270 236 c 1,42,43
 234 251 234 251 166 217 c 0,44,45
 102 184 102 184 64 134 c 0,46,47
 22 79 22 79 46 39 c 1,48,49
 61 36 61 36 90 51 c 0,50,51
 99 55 99 55 106 52 c 0,52,53
 113 48 113 48 117 42 c 0,54,55
 125 25 125 25 110.5 17.5 c 128,-1,56
 96 10 96 10 85.5 3 c 128,-1,57
 75 -4 75 -4 53.5 -5 c 128,-1,58
 32 -6 32 -6 18 8 c 128,-1,59
 4 22 4 22 1 43 c 0,60,61
 -4 75 -4 75 14 131 c 0,62,63
 24 160 24 160 54 188 c 0,64,65
 83 215 83 215 121 238 c 0,66,67
 209 288 209 288 273 277 c 0,68,69
 292 274 292 274 311 255 c 1,70,71
 357 270 357 270 381 267 c 0,72,73
 427 261 427 261 445 222 c 0,74,75
 471 173 471 173 467 105 c 1,76,77
 495 137 495 137 527 164 c 128,-1,78
 559 191 559 191 601.5 202.5 c 128,-1,79
 644 214 644 214 676.5 205 c 128,-1,80
 709 196 709 196 725 172 c 1,81,82
 741 165 741 165 736 147 c 1,83,84
 742 112 742 112 720.5 74 c 128,-1,85
 699 36 699 36 672.5 22 c 128,-1,86
 646 8 646 8 620.5 7 c 128,-1,87
 595 6 595 6 580.5 12 c 128,-1,88
 566 18 566 18 556 29 c 0,89,90
 524 65 524 65 555 104 c 0,91,92
 563 114 563 114 575 120.5 c 128,-1,93
 587 127 587 127 603.5 137 c 128,-1,94
 620 147 620 147 634 151 c 128,-1,95
 648 155 648 155 660 156.5 c 128,-1,96
 672 158 672 158 683 161 c 1,0,1
259 89.5 m 128,-1,98
 248 99 248 99 247 110.5 c 128,-1,99
 246 122 246 122 251 133 c 128,-1,100
 256 144 256 144 262.5 155.5 c 128,-1,101
 269 167 269 167 276 178.5 c 128,-1,102
 283 190 283 190 286 200 c 1,103,104
 236 163 236 163 222 115 c 0,105,106
 207 59 207 59 255 26 c 0,107,108
 273 13 273 13 288.5 15.5 c 128,-1,109
 304 18 304 18 311.5 24.5 c 128,-1,110
 319 31 319 31 319 41.5 c 128,-1,111
 319 52 319 52 308 58.5 c 128,-1,112
 297 65 297 65 283.5 72.5 c 128,-1,97
 270 80 270 80 259 89.5 c 128,-1,98
586 82 m 0,113,114
 576 72 576 72 583.5 57 c 128,-1,115
 591 42 591 42 609.5 42 c 128,-1,116
 628 42 628 42 647 54 c 128,-1,117
 666 66 666 66 680.5 85.5 c 128,-1,118
 695 105 695 105 697 126 c 1,119,120
 608 102 608 102 586 82 c 0,113,114
EndSplineSet
EndChar

StartChar: ml_aa
Encoding: 261 3334 102
Width: 829
GlyphClass: 2
Flags: W
LayerCount: 2
Fore
SplineSet
51.5 22 m 128,-1,1
 55 18 55 18 61.5 21 c 128,-1,2
 68 24 68 24 75.5 21 c 128,-1,3
 83 18 83 18 86 12 c 0,4,5
 94 -5 94 -5 76.5 -14.5 c 128,-1,6
 59 -24 59 -24 43.5 -18 c 128,-1,7
 28 -12 28 -12 17 1 c 0,8,9
 -9 32 -9 32 5 65 c 1,10,11
 13 80 13 80 18 96 c 128,-1,12
 23 112 23 112 34 123.5 c 128,-1,13
 45 135 45 135 57 146.5 c 128,-1,14
 69 158 69 158 80.5 169.5 c 128,-1,15
 92 181 92 181 122 198.5 c 128,-1,16
 152 216 152 216 187 231 c 0,17,18
 272 267 272 267 309 249 c 0,19,20
 313 247 313 247 314 245 c 1,21,22
 332 250 332 250 350 250 c 128,-1,23
 368 250 368 250 385 245 c 0,24,25
 421 235 421 235 441 202 c 1,26,27
 462 164 462 164 453 114 c 1,28,29
 500 160 500 160 570 190 c 0,30,31
 621 212 621 212 657 200 c 0,32,33
 676 194 676 194 688 174 c 0,34,35
 712 137 712 137 701 96 c 1,36,37
 730 80 730 80 747.5 54.5 c 128,-1,38
 765 29 765 29 758.5 3.5 c 128,-1,39
 752 -22 752 -22 741 -37 c 0,40,41
 730 -52 730 -52 714 -63 c 0,42,43
 644 -117 644 -117 452 -155 c 0,44,45
 288 -187 288 -187 240 -157 c 0,46,47
 232 -152 232 -152 224 -147 c 1,48,49
 211 -133 211 -133 219 -120 c 128,-1,50
 227 -107 227 -107 245 -112 c 1,51,52
 278 -131 278 -131 314 -130 c 128,-1,53
 350 -129 350 -129 386.5 -124 c 128,-1,54
 423 -119 423 -119 470 -111 c 0,55,56
 516 -104 516 -104 562 -90 c 0,57,58
 671 -58 671 -58 714 -6 c 0,59,60
 725 8 725 8 715.5 25.5 c 128,-1,61
 706 43 706 43 699.5 48 c 128,-1,62
 693 53 693 53 690 55.5 c 128,-1,63
 687 58 687 58 683 60 c 1,64,65
 646 9 646 9 585 1 c 0,66,67
 560 -3 560 -3 538 21 c 0,68,69
 516 44 516 44 524.5 65.5 c 128,-1,70
 533 87 533 87 548 98 c 128,-1,71
 563 109 563 109 582 114 c 0,72,73
 620 124 620 124 665 111 c 1,74,75
 669 135 669 135 655 153 c 0,76,77
 645 164 645 164 620 161.5 c 128,-1,78
 595 159 595 159 572 150 c 0,79,80
 550 140 550 140 530 126 c 0,81,82
 480 90 480 90 444 42 c 0,83,84
 437 32 437 32 425 28 c 0,85,86
 401 22 401 22 398 47 c 1,87,88
 397 65 397 65 402 82 c 0,89,90
 408 99 408 99 412 114 c 0,91,92
 423 154 423 154 408 179 c 0,93,94
 382 222 382 222 335 208 c 1,95,96
 335 197 335 197 316 171.5 c 128,-1,97
 297 146 297 146 288 136.5 c 128,-1,98
 279 127 279 127 268 115 c 1,99,100
 276 106 276 106 292 94 c 128,-1,101
 308 82 308 82 324 68 c 0,102,103
 363 35 363 35 364.5 14.5 c 128,-1,104
 366 -6 366 -6 355 -21.5 c 128,-1,105
 344 -37 344 -37 326.5 -46.5 c 128,-1,106
 309 -56 309 -56 287.5 -59 c 128,-1,107
 266 -62 266 -62 246 -58 c 0,108,109
 199 -50 199 -50 188 -14 c 0,110,111
 166 55 166 55 185 108 c 128,-1,112
 204 161 204 161 254 209 c 1,113,114
 160 196 160 196 82 118 c 0,115,116
 66 102 66 102 59 86 c 128,-1,117
 52 70 52 70 47 59.5 c 128,-1,118
 42 49 42 49 42.5 43 c 128,-1,119
 43 37 43 37 45.5 31.5 c 128,-1,0
 48 26 48 26 51.5 22 c 128,-1,1
228 103 m 0,120,121
 227 104 227 104 227 106 c 1,122,123
 223 97 223 97 221 88 c 128,-1,124
 219 79 219 79 215.5 61.5 c 128,-1,125
 212 44 212 44 219 21.5 c 128,-1,126
 226 -1 226 -1 242 -12 c 0,127,128
 278 -38 278 -38 325 2 c 1,129,130
 324 21 324 21 280 52 c 0,131,132
 262 64 262 64 247 76.5 c 128,-1,133
 232 89 232 89 228 103 c 0,120,121
578 43 m 0,134,135
 582 41 582 41 592 42.5 c 128,-1,136
 602 44 602 44 608 47 c 0,137,138
 627 54 627 54 645 76 c 1,139,140
 600 87 600 87 565 60 c 0,141,142
 555 53 555 53 578 43 c 0,134,135
EndSplineSet
EndChar

StartChar: ml_i
Encoding: 262 3335 103
Width: 460
GlyphClass: 2
Flags: W
LayerCount: 2
Fore
SplineSet
622 -140 m 1,0,1
 538 -138 538 -138 455.5 -135 c 128,-1,2
 373 -132 373 -132 313.5 -130.5 c 128,-1,3
 254 -129 254 -129 218 -126.5 c 128,-1,4
 182 -124 182 -124 146 -126 c 1,5,6
 86 -150 86 -150 50 -142 c 1,7,8
 35 -135 35 -135 36 -122 c 128,-1,9
 37 -109 37 -109 54 -102 c 0,10,11
 81 -91 81 -91 139 -86 c 1,12,13
 226 -55 226 -55 319 15 c 0,14,15
 322 18 322 18 336.5 31.5 c 128,-1,16
 351 45 351 45 364 62 c 0,17,18
 398 106 398 106 369 120 c 0,19,20
 344 134 344 134 288 78 c 0,21,22
 232 22 232 22 213 27 c 0,23,24
 204 31 204 31 200 40 c 1,25,26
 195 62 195 62 197.5 84.5 c 128,-1,27
 200 107 200 107 203 129 c 128,-1,28
 206 151 206 151 208 173 c 128,-1,29
 210 195 210 195 204 218 c 1,30,-1
 195 221 l 1,31,32
 181 213 181 213 174 209.5 c 128,-1,33
 167 206 167 206 161 201 c 0,34,35
 126 172 126 172 90 112 c 0,36,37
 88 110 88 110 86 106 c 1,38,39
 108 109 108 109 121 92.5 c 128,-1,40
 134 76 134 76 135.5 53 c 128,-1,41
 137 30 137 30 126.5 6.5 c 128,-1,42
 116 -17 116 -17 90 -27 c 0,43,44
 79 -31 79 -31 66 -31 c 0,45,46
 29 -31 29 -31 21 12 c 1,47,48
 10 11 10 11 3.5 21 c 128,-1,49
 -3 31 -3 31 4 44 c 1,50,-1
 25 65 l 1,51,52
 27 70 27 70 28 73.5 c 128,-1,53
 29 77 29 77 34 88 c 128,-1,54
 39 99 39 99 57.5 130.5 c 128,-1,55
 76 162 76 162 99 192 c 0,56,57
 157 267 157 267 196 262 c 0,58,59
 206 261 206 261 230 252 c 1,60,61
 238 246 238 246 241 235 c 0,62,63
 249 208 249 208 252.5 186.5 c 128,-1,64
 256 165 256 165 249.5 140.5 c 128,-1,65
 243 116 243 116 239 90 c 1,66,67
 241 92 241 92 241.5 93 c 128,-1,68
 242 94 242 94 256 106 c 0,69,70
 306 149 306 149 356 161 c 0,71,72
 383 167 383 167 397.5 152.5 c 128,-1,73
 412 138 412 138 415 115.5 c 128,-1,74
 418 93 418 93 411 67.5 c 128,-1,75
 404 42 404 42 385.5 23.5 c 128,-1,76
 367 5 367 5 323 -27 c 128,-1,77
 279 -59 279 -59 228 -87 c 1,78,79
 245 -88 245 -88 260.5 -88.5 c 128,-1,80
 276 -89 276 -89 325 -90.5 c 128,-1,81
 374 -92 374 -92 456.5 -95 c 128,-1,82
 539 -98 539 -98 623 -100 c 1,83,84
 640 -106 640 -106 640 -121 c 128,-1,85
 640 -136 640 -136 622 -140 c 1,0,1
61 46 m 1,86,87
 60 41 60 41 59 34 c 128,-1,88
 58 27 58 27 69 9 c 1,89,-1
 70 9 l 1,90,91
 80 10 80 10 88 19.5 c 128,-1,92
 96 29 96 29 97 42.5 c 128,-1,93
 98 56 98 56 90 67 c 1,94,95
 77 62 77 62 61 46 c 1,86,87
EndSplineSet
EndChar

StartChar: ml_ii
Encoding: 263 3336 104
Width: 818
GlyphClass: 2
Flags: W
LayerCount: 2
Fore
SplineSet
192 90 m 1,0,1
 179 85 179 85 170.5 88 c 128,-1,2
 162 91 162 91 159.5 95.5 c 128,-1,3
 157 100 157 100 155 108 c 1,4,5
 156 133 156 133 159 163 c 128,-1,6
 162 193 162 193 150 216 c 1,7,8
 139 221 139 221 124.5 206.5 c 128,-1,9
 110 192 110 192 104 183 c 0,10,11
 99 174 99 174 92 167 c 0,12,13
 81 153 81 153 70 134 c 1,14,15
 114 152 114 152 136 125 c 0,16,17
 156 102 156 102 136 60 c 0,18,19
 109 4 109 4 65 -15 c 0,20,21
 43 -25 43 -25 24 -9.5 c 128,-1,22
 5 6 5 6 2 32.5 c 128,-1,23
 -1 59 -1 59 7.5 89.5 c 128,-1,24
 16 120 16 120 33.5 151 c 128,-1,25
 51 182 51 182 72 206.5 c 128,-1,26
 93 231 93 231 115 246 c 0,27,28
 138 261 138 261 156 258 c 0,29,30
 198 252 198 252 197 158 c 1,31,32
 221 185 221 185 248.5 189.5 c 128,-1,33
 276 194 276 194 295.5 183 c 128,-1,34
 315 172 315 172 321.5 149.5 c 128,-1,35
 328 127 328 127 312 103 c 128,-1,36
 296 79 296 79 286 64 c 0,37,38
 277 49 277 49 264 36 c 0,39,40
 229 -4 229 -4 137 -63 c 1,41,42
 218 -54 218 -54 299 -54.5 c 128,-1,43
 380 -55 380 -55 461 -55 c 1,44,45
 478 -61 478 -61 478 -76 c 128,-1,46
 478 -91 478 -91 460 -95 c 1,47,-1
 358 -95 l 2,48,49
 226 -95 226 -95 183 -99.5 c 128,-1,50
 140 -104 140 -104 127.5 -105 c 128,-1,51
 115 -106 115 -106 103 -108 c 128,-1,52
 91 -110 91 -110 79.5 -111.5 c 128,-1,53
 68 -113 68 -113 58 -114.5 c 128,-1,54
 48 -116 48 -116 41 -118 c 0,55,56
 35 -120 35 -120 26 -120 c 0,57,58
 10 -119 10 -119 4 -100 c 0,59,60
 0 -87 0 -87 10 -77 c 128,-1,61
 20 -67 20 -67 35.5 -66.5 c 128,-1,62
 51 -66 51 -66 71 -53.5 c 128,-1,63
 91 -41 91 -41 119.5 -24.5 c 128,-1,64
 148 -8 148 -8 170 8 c 0,65,66
 226 49 226 49 262 93 c 0,67,68
 273 107 273 107 274.5 118.5 c 128,-1,69
 276 130 276 130 279 143 c 1,70,71
 277 145 277 145 276.5 146 c 128,-1,72
 276 147 276 147 274 149 c 1,73,74
 240 151 240 151 210 112 c 0,75,76
 202 101 202 101 192 90 c 1,0,1
412 99 m 1,77,78
 415 109 415 109 418.5 126.5 c 128,-1,79
 422 144 422 144 429 162 c 0,80,81
 445 206 445 206 482 220 c 1,82,83
 493 220 493 220 502 212 c 0,84,85
 515 199 515 199 520 163 c 1,86,-1
 520 150 l 1,87,88
 522 152 522 152 524 153 c 128,-1,89
 526 154 526 154 536 162.5 c 128,-1,90
 546 171 546 171 565 186 c 0,91,92
 584 200 584 200 606 212 c 0,93,94
 656 238 656 238 698 232 c 0,95,96
 737 226 737 226 747 176 c 0,97,98
 756 130 756 130 735.5 93 c 128,-1,99
 715 56 715 56 687 18 c 0,100,101
 659 -22 659 -22 623 -54 c 0,102,103
 549 -122 549 -122 459 -145 c 0,104,105
 439 -149 439 -149 434 -132 c 128,-1,106
 429 -115 429 -115 448 -107 c 1,107,108
 579 -73 579 -73 675 66 c 0,109,110
 697 95 697 95 704.5 123.5 c 128,-1,111
 712 152 712 152 709.5 169.5 c 128,-1,112
 707 187 707 187 687 193 c 0,113,114
 667 200 667 200 629 178 c 1,115,116
 612 170 612 170 602.5 163 c 128,-1,117
 593 156 593 156 583 148.5 c 128,-1,118
 573 141 573 141 561.5 129.5 c 128,-1,119
 550 118 550 118 537 108 c 0,120,121
 503 83 503 83 490 104 c 0,122,123
 481 118 481 118 481 137 c 128,-1,124
 481 156 481 156 479 170 c 1,125,126
 466 155 466 155 460 131 c 0,127,128
 449 81 449 81 442 69 c 1,129,130
 432 56 432 56 420 61 c 128,-1,131
 408 66 408 66 405 80 c 1,132,-1
 405 86 l 1,133,134
 406 93 406 93 412 99 c 1,77,78
79.5 97 m 128,-1,136
 67 90 67 90 63 80 c 0,137,138
 56 63 56 63 42 63 c 1,139,-1
 42 57 l 1,140,141
 41 49 41 49 51 22 c 1,142,143
 56 22 56 22 73.5 41 c 128,-1,144
 91 60 91 60 96 68 c 0,145,146
 108 87 108 87 105 98 c 1,147,135
 92 104 92 104 79.5 97 c 128,-1,136
EndSplineSet
EndChar

StartChar: ml_u
Encoding: 264 3337 105
Width: 443
GlyphClass: 2
Flags: W
LayerCount: 2
Fore
SplineSet
709 -62 m 1,0,1
 726 -68 726 -68 726 -83 c 128,-1,2
 726 -98 726 -98 708 -102 c 1,3,4
 630 -102 630 -102 552.5 -99.5 c 128,-1,5
 475 -97 475 -97 409 -99 c 0,6,7
 285 -103 285 -103 201.5 -112 c 128,-1,8
 118 -121 118 -121 88 -121 c 0,9,10
 8 -121 8 -121 1 -95 c 0,11,12
 0 -87 0 -87 4 -76 c 1,13,14
 30 -56 30 -56 48.5 -47 c 128,-1,15
 67 -38 67 -38 83 -30.5 c 128,-1,16
 99 -23 99 -23 129 -8 c 1,17,18
 99 -5 99 -5 78.5 24.5 c 128,-1,19
 58 54 58 54 57 79.5 c 128,-1,20
 56 105 56 105 66 129.5 c 128,-1,21
 76 154 76 154 95 175 c 0,22,23
 114 197 114 197 136 216 c 0,24,25
 220 284 220 284 296 286 c 0,26,27
 342 287 342 287 356 255 c 0,28,29
 363 238 363 238 371 221.5 c 128,-1,30
 379 205 379 205 382 181.5 c 128,-1,31
 385 158 385 158 371 130.5 c 128,-1,32
 357 103 357 103 331.5 78.5 c 128,-1,33
 306 54 306 54 273 32 c 128,-1,34
 240 10 240 10 204.5 -10 c 128,-1,35
 169 -30 169 -30 134 -47.5 c 128,-1,36
 99 -65 99 -65 72 -80 c 1,37,38
 118 -83 118 -83 202.5 -74.5 c 128,-1,39
 287 -66 287 -66 349.5 -61.5 c 128,-1,40
 412 -57 412 -57 510.5 -59.5 c 128,-1,41
 609 -62 609 -62 709 -62 c 1,0,1
313.5 239 m 128,-1,43
 299 249 299 249 275.5 245 c 128,-1,44
 252 241 252 241 227 230 c 0,45,46
 202 220 202 220 179 204 c 0,47,48
 130 171 130 171 108 126 c 1,49,50
 148 152 148 152 180 131 c 0,51,52
 190 124 190 124 199.5 106 c 128,-1,53
 209 88 209 88 207.5 66.5 c 128,-1,54
 206 45 206 45 195 28 c 1,55,56
 247 60 247 60 279 86 c 0,57,58
 312 117 312 117 324 136 c 128,-1,59
 336 155 336 155 338 175.5 c 128,-1,60
 340 196 340 196 334 212.5 c 128,-1,42
 328 229 328 229 313.5 239 c 128,-1,43
114 71 m 0,61,62
 111 62 111 62 105 59 c 1,63,64
 116 36 116 36 143 32 c 1,65,66
 167 53 167 53 167.5 70 c 128,-1,67
 168 87 168 87 158.5 94.5 c 128,-1,68
 149 102 149 102 134.5 97.5 c 128,-1,69
 120 93 120 93 114 71 c 0,61,62
EndSplineSet
EndChar

StartChar: ml_uu
Encoding: 265 3338 106
Width: 937
GlyphClass: 2
Flags: W
LayerCount: 2
Fore
SplineSet
520 116 m 1,0,1
 513 99 513 99 498.5 101 c 128,-1,2
 484 103 484 103 481 121 c 1,3,4
 488 167 488 167 500.5 186.5 c 128,-1,5
 513 206 513 206 526.5 217 c 128,-1,6
 540 228 540 228 554 234 c 0,7,8
 589 247 589 247 606 216 c 0,9,10
 614 201 614 201 614 167 c 1,11,12
 648 202 648 202 684 232 c 128,-1,13
 720 262 720 262 768 278 c 0,14,15
 804 290 804 290 839 260 c 128,-1,16
 874 230 874 230 866 191 c 0,17,18
 853 135 853 135 826 94 c 0,19,20
 790 40 790 40 726 -12 c 0,21,22
 710 -24 710 -24 693 -36 c 1,23,24
 695 -37 695 -37 697 -37 c 128,-1,25
 699 -37 699 -37 704.5 -38.5 c 128,-1,26
 710 -40 710 -40 714 -43 c 128,-1,27
 718 -46 718 -46 725 -43 c 128,-1,28
 732 -40 732 -40 738 -42 c 0,29,30
 743 -44 743 -44 748 -50 c 0,31,32
 756 -63 756 -63 746 -77 c 1,33,34
 727 -89 727 -89 636 -72 c 1,35,36
 576 -105 576 -105 512 -119 c 1,37,38
 494 -116 494 -116 492 -101.5 c 128,-1,39
 490 -87 490 -87 507 -80 c 1,40,41
 538 -73 538 -73 571 -60 c 1,42,43
 566 -59 566 -59 520 -55 c 0,44,45
 412 -46 412 -46 213 -57 c 0,46,47
 199 -58 199 -58 169.5 -61.5 c 128,-1,48
 140 -65 140 -65 108.5 -67.5 c 128,-1,49
 77 -70 77 -70 49 -70 c 128,-1,50
 21 -70 21 -70 9 -64 c 1,51,52
 -9 -46 -9 -46 11.5 -30.5 c 128,-1,53
 32 -15 32 -15 59 -6.5 c 128,-1,54
 86 2 86 2 112 10 c 1,55,56
 109 10 109 10 110 10 c 2,57,-1
 113 12 l 1,58,59
 97 17 97 17 83.5 34 c 128,-1,60
 70 51 70 51 67 70 c 1,61,62
 54 73 54 73 51 90 c 1,63,64
 54 113 54 113 75 132 c 1,65,66
 100 181 100 181 160 219 c 0,67,68
 220 256 220 256 275 258 c 0,69,70
 337 260 337 260 360 217 c 0,71,72
 382 174 382 174 333 113 c 0,73,74
 321 98 321 98 310 82 c 128,-1,75
 299 66 299 66 279 50 c 128,-1,76
 259 34 259 34 236 21 c 0,77,78
 194 -3 194 -3 139 -21 c 1,79,80
 158 -19 158 -19 176 -19 c 0,81,82
 194 -19 194 -19 248 -15 c 0,83,84
 441 -4 441 -4 636 -27 c 1,85,86
 717 19 717 19 781 98 c 0,87,88
 827 153 827 153 827 191 c 0,89,90
 827 208 827 208 815 225.5 c 128,-1,91
 803 243 803 243 785 240 c 0,92,93
 766 238 766 238 746 226 c 0,94,95
 702 200 702 200 648 144 c 0,96,97
 630 126 630 126 612 108 c 1,98,99
 590 97 590 97 580 118 c 0,100,101
 577 127 577 127 577.5 138 c 128,-1,102
 578 149 578 149 578 160 c 0,103,104
 579 189 579 189 570 197 c 1,105,106
 549 198 549 198 534 166 c 0,107,108
 523 142 523 142 520 116 c 1,0,1
322 198 m 1,109,110
 282 224 282 224 226 210 c 0,111,112
 171 196 171 196 138 156 c 1,113,114
 168 151 168 151 179 129 c 128,-1,115
 190 107 190 107 187 82 c 128,-1,116
 184 57 184 57 171 38 c 1,117,118
 241 69 241 69 268 93 c 0,119,120
 322 141 322 141 322 198 c 1,109,110
138 115 m 1,121,122
 125 115 125 115 113 108 c 1,123,124
 97 55 97 55 131 53 c 1,125,126
 144 64 144 64 147 83.5 c 128,-1,127
 150 103 150 103 138 115 c 1,121,122
EndSplineSet
EndChar

StartChar: ml_r
Encoding: 266 3339 107
Width: 698
GlyphClass: 2
Flags: W
LayerCount: 2
Fore
SplineSet
174 178 m 0,0,1
 152 176 152 176 137 176 c 0,2,3
 119 175 119 175 110 169 c 1,4,5
 102 156 102 156 89 158.5 c 128,-1,6
 76 161 76 161 74 174 c 1,7,8
 41 150 41 150 44 131 c 1,9,10
 68 114 68 114 100.5 109 c 128,-1,11
 133 104 133 104 152.5 102 c 128,-1,12
 172 100 172 100 200 96 c 0,13,14
 250 90 250 90 310 75 c 1,15,16
 327 81 327 81 342.5 86.5 c 128,-1,17
 358 92 358 92 394 104 c 128,-1,18
 430 116 430 116 485 134.5 c 128,-1,19
 540 153 540 153 588 187 c 1,20,-1
 588 191 l 1,21,22
 524 218 524 218 420 184 c 1,23,24
 424 182 424 182 426 182 c 1,25,26
 444 170 444 170 434 154 c 0,27,28
 425 139 425 139 411 145 c 128,-1,29
 397 151 397 151 388 154.5 c 128,-1,30
 379 158 379 158 371 162 c 1,31,32
 361 172 361 172 364 186 c 1,33,34
 382 228 382 228 460 238 c 0,35,36
 514 246 514 246 580 237 c 0,37,38
 591 236 591 236 599.5 231 c 128,-1,39
 608 226 608 226 617 222 c 1,40,41
 625 216 625 216 628 206 c 1,42,43
 628 198 628 198 628.5 190 c 128,-1,44
 629 182 629 182 626.5 170.5 c 128,-1,45
 624 159 624 159 605 146 c 128,-1,46
 586 133 586 133 563.5 122.5 c 128,-1,47
 541 112 541 112 520 105 c 0,48,49
 498 98 498 98 480 91 c 0,50,51
 440 76 440 76 370 56 c 1,52,53
 385 50 385 50 402.5 44 c 128,-1,54
 420 38 420 38 429.5 23 c 128,-1,55
 439 8 439 8 447 -1 c 128,-1,56
 455 -10 455 -10 456 -13.5 c 128,-1,57
 457 -17 457 -17 454.5 -26.5 c 128,-1,58
 452 -36 452 -36 449 -49 c 0,59,60
 440 -88 440 -88 396 -114 c 0,61,62
 338 -146 338 -146 258 -164 c 0,63,64
 208 -174 208 -174 174 -174 c 0,65,66
 140 -175 140 -175 116 -172 c 0,67,68
 54 -163 54 -163 38 -138 c 0,69,70
 31 -127 31 -127 28.5 -114 c 128,-1,71
 26 -101 26 -101 21 -88 c 1,72,73
 20 -78 20 -78 24 -70 c 1,74,75
 35 -59 35 -59 44.5 -48.5 c 128,-1,76
 54 -38 54 -38 68.5 -23.5 c 128,-1,77
 83 -9 83 -9 108 1 c 128,-1,78
 133 11 133 11 155 19.5 c 128,-1,79
 177 28 177 28 198 35.5 c 128,-1,80
 219 43 219 43 240 51 c 1,81,82
 170 59 170 59 148 62.5 c 128,-1,83
 126 66 126 66 107 68 c 0,84,85
 88 71 88 71 70 76 c 0,86,87
 23 87 23 87 10 105.5 c 128,-1,88
 -3 124 -3 124 0.5 139 c 128,-1,89
 4 154 4 154 14 168 c 128,-1,90
 24 182 24 182 49.5 202 c 128,-1,91
 75 222 75 222 103.5 238.5 c 128,-1,92
 132 255 132 255 164 266 c 0,93,94
 241 293 241 293 274 260 c 0,95,96
 296 238 296 238 268 214 c 0,97,98
 232 182 232 182 174 178 c 0,0,1
400 -6 m 128,-1,100
 394 4 394 4 379 12 c 0,101,102
 350 26 350 26 308 37 c 1,103,104
 166 -8 166 -8 93 -56 c 0,105,106
 84 -62 84 -62 77.5 -71 c 128,-1,107
 71 -80 71 -80 63 -88 c 1,108,109
 65 -94 65 -94 67 -99.5 c 128,-1,110
 69 -105 69 -105 71 -111 c 1,111,112
 83 -116 83 -116 95 -123 c 128,-1,113
 107 -130 107 -130 128.5 -133.5 c 128,-1,114
 150 -137 150 -137 190 -134 c 0,115,116
 232 -132 232 -132 272 -122 c 0,117,118
 365 -99 365 -99 405 -53 c 0,119,120
 410 -47 410 -47 411 -39.5 c 128,-1,121
 412 -32 412 -32 414 -24 c 1,122,99
 406 -16 406 -16 400 -6 c 128,-1,100
236 238 m 1,123,124
 205 235 205 235 167 221 c 1,125,126
 216 226 216 226 236 238 c 1,123,124
EndSplineSet
EndChar

StartChar: ml_l
Encoding: 267 3340 108
Width: 706
GlyphClass: 2
Flags: W
LayerCount: 2
Fore
SplineSet
227.5 230 m 128,-1,1
 220 240 220 240 202.5 239 c 128,-1,2
 185 238 185 238 166 229 c 0,3,4
 146 220 146 220 130 204 c 0,5,6
 96 173 96 173 74 134 c 1,7,8
 82 139 82 139 92.5 139 c 128,-1,9
 103 139 103 139 110 140 c 0,10,11
 132 142 132 142 142 125 c 128,-1,12
 152 108 152 108 152.5 83.5 c 128,-1,13
 153 59 153 59 144.5 31.5 c 128,-1,14
 136 4 136 4 120 -16 c 0,15,16
 83 -64 83 -64 36 -31 c 0,17,18
 -16 4 -16 4 8 86 c 0,19,20
 30 160 30 160 93 222 c 0,21,22
 158 285 158 285 210 279 c 0,23,24
 290 270 290 270 284 140 c 0,25,26
 282 104 282 104 279 69 c 1,27,28
 347 187 347 187 456 237 c 0,29,30
 481 249 481 249 518 255.5 c 128,-1,31
 555 262 555 262 572.5 255 c 128,-1,32
 590 248 590 248 602 234 c 0,33,34
 624 210 624 210 631.5 176.5 c 128,-1,35
 639 143 639 143 632 119 c 128,-1,36
 625 95 625 95 610 72.5 c 128,-1,37
 595 50 595 50 573.5 31.5 c 128,-1,38
 552 13 552 13 528 1 c 0,39,40
 474 -26 474 -26 430 -10 c 1,41,42
 420 -4 420 -4 417 4 c 1,43,44
 406 70 406 70 469 118 c 0,45,46
 520 157 520 157 594 169 c 1,47,-1
 596 169 l 1,48,49
 591 199 591 199 563 213.5 c 128,-1,50
 535 228 535 228 496 213.5 c 128,-1,51
 457 199 457 199 420.5 170 c 128,-1,52
 384 141 384 141 354.5 106 c 128,-1,53
 325 71 325 71 315.5 54 c 128,-1,54
 306 37 306 37 300.5 21.5 c 128,-1,55
 295 6 295 6 289 -10 c 0,56,57
 274 -49 274 -49 261 -59 c 1,58,59
 249 -66 249 -66 239.5 -61.5 c 128,-1,60
 230 -57 230 -57 228 -43 c 1,61,62
 226 -3 226 -3 233 38 c 0,63,64
 246 119 246 119 245.5 140.5 c 128,-1,65
 245 162 245 162 244 176.5 c 128,-1,66
 243 191 243 191 239 205.5 c 128,-1,0
 235 220 235 220 227.5 230 c 128,-1,1
454 24 m 1,67,68
 490 12 490 12 532 48 c 0,69,70
 573 83 573 83 590 129 c 1,71,72
 566 126 566 126 556 123 c 128,-1,73
 546 120 546 120 528 109 c 0,74,75
 510 97 510 97 492 84 c 0,76,77
 450 50 450 50 454 24 c 1,67,68
106 99 m 1,78,79
 90 97 90 97 69 80 c 128,-1,80
 48 63 48 63 42 63 c 1,81,82
 29 10 29 10 76 1 c 1,83,84
 99 17 99 17 108 39 c 0,85,86
 123 78 123 78 106 99 c 1,78,79
EndSplineSet
EndChar

StartChar: ml_e
Encoding: 268 3342 109
Width: 669
GlyphClass: 2
Flags: W
LayerCount: 2
Fore
SplineSet
265 -5 m 1,0,-1
 133 -20 l 2,1,2
 127 -20 127 -20 114 -12 c 1,3,4
 104 -1 104 -1 107 12 c 1,5,6
 110 18 110 18 121 34 c 0,7,8
 133 50 133 50 140 65 c 0,9,10
 162 106 162 106 138 104 c 0,11,12
 119 102 119 102 102 85 c 0,13,14
 73 55 73 55 58.5 33 c 128,-1,15
 44 11 44 11 41 7 c 1,16,17
 46 -4 46 -4 39 -12.5 c 128,-1,18
 32 -21 32 -21 18 -19 c 1,19,20
 -12 -6 -12 -6 10 32 c 0,21,22
 44 93 44 93 88 125 c 0,23,24
 120 148 120 148 149 140 c 0,25,26
 182 132 182 132 190 100 c 0,27,28
 194 82 194 82 174 44 c 0,29,30
 172 41 172 41 170 37.5 c 128,-1,31
 168 34 168 34 161 24 c 1,32,33
 175 26 175 26 193 27 c 0,34,35
 244 30 244 30 266 35 c 1,36,37
 278 185 278 185 407 261 c 0,38,39
 459 290 459 290 482.5 288 c 128,-1,40
 506 286 506 286 525.5 282.5 c 128,-1,41
 545 279 545 279 562.5 261.5 c 128,-1,42
 580 244 580 244 589.5 206 c 128,-1,43
 599 168 599 168 599 126.5 c 128,-1,44
 599 85 599 85 588 47 c 0,45,46
 573 -4 573 -4 545 -16 c 0,47,48
 539 -18 539 -18 533 -22 c 1,49,50
 516 -26 516 -26 508 -12 c 128,-1,51
 500 2 500 2 516 14 c 1,52,53
 534 24 534 24 545 54.5 c 128,-1,54
 556 85 556 85 559 120 c 128,-1,55
 562 155 562 155 555.5 187.5 c 128,-1,56
 549 220 549 220 529.5 236 c 128,-1,57
 510 252 510 252 483 249 c 0,58,59
 458 246 458 246 432 230 c 0,60,61
 389 205 389 205 349 156 c 0,62,63
 318 118 318 118 309 57 c 1,64,65
 320 67 320 67 331 79 c 128,-1,66
 342 91 342 91 353 102 c 0,67,68
 379 128 379 128 404 131 c 1,69,70
 422 132 422 132 428 114 c 1,71,72
 435 83 435 83 425 30 c 0,73,74
 407 -68 407 -68 386 -88 c 0,75,76
 363 -111 363 -111 352 -117 c 0,77,78
 312 -140 312 -140 286 -96 c 0,79,80
 266 -60 266 -60 265 -5 c 1,0,-1
304 6 m 1,81,82
 304 -54 304 -54 326 -81 c 1,83,84
 369 -81 369 -81 382 34 c 0,85,86
 385 60 385 60 387 74 c 1,87,88
 367 56 367 56 347.5 37.5 c 128,-1,89
 328 19 328 19 304 6 c 1,81,82
EndSplineSet
EndChar

StartChar: ml_ee
Encoding: 269 3343 110
Width: 742
GlyphClass: 2
Flags: W
LayerCount: 2
Fore
SplineSet
55 41 m 0,0,1
 52 37 52 37 49 33.5 c 128,-1,2
 46 30 46 30 44 25 c 1,3,4
 47 18 47 18 47 12 c 0,5,6
 47 4 47 4 43 -3 c 0,7,8
 32 -17 32 -17 14 -9 c 1,9,10
 -5 7 -5 7 2.5 29.5 c 128,-1,11
 10 52 10 52 30 72 c 128,-1,12
 50 92 50 92 75 106.5 c 128,-1,13
 100 121 100 121 118.5 122 c 128,-1,14
 137 123 137 123 145 115.5 c 128,-1,15
 153 108 153 108 155.5 97.5 c 128,-1,16
 158 87 158 87 159 75 c 0,17,18
 160 63 160 63 164 55 c 0,19,20
 175 36 175 36 221 51 c 1,21,22
 222 58 222 58 228.5 71.5 c 128,-1,23
 235 85 235 85 241.5 106 c 128,-1,24
 248 127 248 127 268.5 147.5 c 128,-1,25
 289 168 289 168 314 189 c 0,26,27
 340 210 340 210 366 228 c 0,28,29
 417 260 417 260 492 276 c 0,30,31
 533 284 533 284 564 272.5 c 128,-1,32
 595 261 595 261 607.5 246 c 128,-1,33
 620 231 620 231 615 210 c 0,34,35
 608 179 608 179 580 154 c 1,36,37
 596 152 596 152 615 150 c 128,-1,38
 634 148 634 148 649 138 c 128,-1,39
 664 128 664 128 670 114 c 0,40,41
 683 81 683 81 647 49 c 0,42,43
 577 -12 577 -12 470 8 c 1,44,45
 453 16 453 16 457 30.5 c 128,-1,46
 461 45 461 45 478 47 c 1,47,48
 521 39 521 39 563.5 49.5 c 128,-1,49
 606 60 606 60 633 96 c 1,50,51
 633 98 633 98 632 99 c 0,52,53
 594 115 594 115 570.5 116 c 128,-1,54
 547 117 547 117 528 117 c 1,55,56
 514 119 514 119 509.5 128.5 c 128,-1,57
 505 138 505 138 511 150 c 1,58,59
 520 157 520 157 536 168.5 c 128,-1,60
 552 180 552 180 563 193 c 128,-1,61
 574 206 574 206 574 217 c 0,62,63
 574 228 574 228 554 234 c 0,64,65
 506 247 506 247 471 231 c 1,66,67
 392 201 392 201 365 184 c 0,68,69
 307 146 307 146 273 76 c 1,70,71
 299 92 299 92 323.5 110.5 c 128,-1,72
 348 129 348 129 364.5 137.5 c 128,-1,73
 381 146 381 146 384.5 146 c 128,-1,74
 388 146 388 146 394 144 c 1,75,76
 396 142 396 142 399 140 c 0,77,78
 416 131 416 131 415 115 c 1,79,80
 408 75 408 75 393.5 29 c 128,-1,81
 379 -17 379 -17 369 -38.5 c 128,-1,82
 359 -60 359 -60 338.5 -78 c 128,-1,83
 318 -96 318 -96 296 -96 c 0,84,85
 274 -95 274 -95 258 -80 c 0,86,87
 223 -49 223 -49 219 8 c 1,88,89
 157 -10 157 -10 132 26 c 0,90,91
 124 39 124 39 123 53.5 c 128,-1,92
 122 68 122 68 118 82 c 1,93,94
 83 70 83 70 55 41 c 0,0,1
372 96 m 1,95,96
 302 44 302 44 258 24 c 1,97,98
 253 -28 253 -28 294 -53 c 1,99,100
 351 -29 351 -29 372 96 c 1,95,96
EndSplineSet
EndChar

StartChar: ml_ai
Encoding: 270 3344 111
Width: 991
GlyphClass: 2
Flags: W
LayerCount: 2
Fore
SplineSet
381 54 m 128,-1,1
 368 43 368 43 367.5 29 c 128,-1,2
 367 15 367 15 361.5 10 c 128,-1,3
 356 5 356 5 349 4.5 c 128,-1,4
 342 4 342 4 335.5 9 c 128,-1,5
 329 14 329 14 328.5 30 c 128,-1,6
 328 46 328 46 347.5 70.5 c 128,-1,7
 367 95 367 95 392.5 112 c 128,-1,8
 418 129 418 129 442.5 132 c 128,-1,9
 467 135 467 135 478 114 c 0,10,11
 487 97 487 97 481 80.5 c 128,-1,12
 475 64 475 64 470 54 c 128,-1,13
 465 44 465 44 462 34 c 1,14,-1
 464 34 l 1,15,16
 486 28 486 28 542 53 c 1,17,18
 565 122 565 122 621 182 c 0,19,20
 679 243 679 243 729 255 c 0,21,22
 738 257 738 257 748 261 c 0,23,24
 756 264 756 264 766 267 c 0,25,26
 789 274 789 274 803.5 271 c 128,-1,27
 818 268 818 268 832 266 c 0,28,29
 882 257 882 257 906 204 c 0,30,31
 922 168 922 168 922 127 c 128,-1,32
 922 86 922 86 908 48 c 128,-1,33
 894 10 894 10 868 -10 c 0,34,35
 857 -18 857 -18 846.5 -25 c 128,-1,36
 836 -32 836 -32 826 -38.5 c 128,-1,37
 816 -45 816 -45 808 -43 c 128,-1,38
 800 -41 800 -41 796 -35 c 0,39,40
 785 -18 785 -18 802 -7 c 0,41,42
 812 0 812 0 822 5.5 c 128,-1,43
 832 11 832 11 844 23.5 c 128,-1,44
 856 36 856 36 868 64 c 0,45,46
 880 91 880 91 882 122 c 0,47,48
 888 194 888 194 841 220 c 0,49,50
 780 254 780 254 699 197 c 0,51,52
 665 173 665 173 637 140 c 128,-1,53
 609 107 609 107 594 78 c 1,54,55
 630 97 630 97 662 115 c 2,56,-1
 708 141 l 2,57,58
 716 145 716 145 725.5 150 c 128,-1,59
 735 155 735 155 747 153 c 128,-1,60
 759 151 759 151 764 140 c 0,61,62
 768 130 768 130 768 116 c 0,63,64
 767 96 767 96 759.5 75.5 c 128,-1,65
 752 55 752 55 744.5 35 c 128,-1,66
 737 15 737 15 726.5 -7.5 c 128,-1,67
 716 -30 716 -30 703 -51 c 0,68,69
 690 -72 690 -72 674 -88 c 0,70,71
 639 -123 639 -123 603 -106 c 0,72,73
 589 -100 589 -100 579 -96 c 128,-1,74
 569 -92 569 -92 556 -77 c 0,75,76
 528 -44 528 -44 532 5 c 1,77,78
 468 -16 468 -16 428 10 c 1,79,80
 421 18 421 18 420 28 c 1,81,82
 422 44 422 44 431.5 59 c 128,-1,83
 441 74 441 74 441 88 c 1,84,85
 436 87 436 87 430 84.5 c 128,-1,86
 424 82 424 82 417.5 79.5 c 128,-1,87
 411 77 411 77 404 74 c 1,88,0
 394 65 394 65 381 54 c 128,-1,1
220.5 233 m 128,-1,90
 211 232 211 232 191 222 c 128,-1,91
 171 212 171 212 135.5 182 c 128,-1,92
 100 152 100 152 76 116 c 1,93,-1
 87 116 l 2,94,95
 107 116 107 116 115 103 c 1,96,97
 132 54 132 54 104 15 c 0,98,99
 92 -2 92 -2 75.5 -12 c 128,-1,100
 59 -22 59 -22 44 -21.5 c 128,-1,101
 29 -21 29 -21 17.5 -8.5 c 128,-1,102
 6 4 6 4 5 31 c 1,103,104
 -5 43 -5 43 4 57 c 0,105,106
 5 59 5 59 6 59.5 c 128,-1,107
 7 60 7 60 9.5 66.5 c 128,-1,108
 12 73 12 73 17 83 c 0,109,110
 20 94 20 94 26 109 c 0,111,112
 33 127 33 127 51.5 148.5 c 128,-1,113
 70 170 70 170 76 177 c 128,-1,114
 82 184 82 184 91 193 c 0,115,116
 117 219 117 219 129 227 c 128,-1,117
 141 235 141 235 154.5 244.5 c 128,-1,118
 168 254 168 254 183 262 c 0,119,120
 217 280 217 280 245.5 277 c 128,-1,121
 274 274 274 274 289 255 c 128,-1,122
 304 236 304 236 308.5 209 c 128,-1,123
 313 182 313 182 308 149 c 0,124,125
 303 115 303 115 293 86 c 0,126,127
 271 20 271 20 238 -9 c 1,128,129
 222 -17 222 -17 211.5 -6.5 c 128,-1,130
 201 4 201 4 209 20 c 1,131,132
 282 83 282 83 261 221 c 1,133,134
 256 225 256 225 250.5 228.5 c 128,-1,135
 245 232 245 232 239 236 c 1,136,89
 230 234 230 234 220.5 233 c 128,-1,90
725 105 m 1,137,-1
 646 62 l 2,138,139
 631 54 631 54 614 44.5 c 128,-1,140
 597 35 597 35 579 26 c 1,141,142
 568 -44 568 -44 593 -58 c 1,143,144
 652 -87 652 -87 690 4 c 0,145,146
 711 55 711 55 715.5 70.5 c 128,-1,147
 720 86 720 86 725 103 c 1,148,-1
 725 105 l 1,137,-1
82 77 m 1,149,150
 57 59 57 59 51 59 c 1,151,152
 50 55 50 55 47 51 c 1,153,154
 45 37 45 37 48 31 c 128,-1,155
 51 25 51 25 53 18 c 1,156,-1
 54 18 l 1,157,158
 76 31 76 31 83 62 c 0,159,160
 85 71 85 71 82 77 c 1,149,150
EndSplineSet
EndChar

StartChar: ml_o
Encoding: 271 3346 112
Width: 517
GlyphClass: 2
Flags: W
LayerCount: 2
Fore
SplineSet
162 187.5 m 128,-1,1
 139 170 139 170 116.5 149 c 128,-1,2
 94 128 94 128 87 117 c 1,3,4
 107 123 107 123 122 116 c 0,5,6
 174 88 174 88 152 40 c 0,7,8
 143 20 143 20 123.5 3 c 128,-1,9
 104 -14 104 -14 90 -19 c 0,10,11
 75 -24 75 -24 68 -24 c 0,12,13
 38 -24 38 -24 20 -16 c 0,14,15
 16 -14 16 -14 12.5 -5 c 128,-1,16
 9 4 9 4 4.5 13 c 128,-1,17
 0 22 0 22 1 32 c 0,18,19
 3 92 3 92 74 163 c 0,20,21
 118 207 118 207 196 260 c 0,22,23
 213 271 213 271 234 276 c 128,-1,24
 255 281 255 281 274.5 287 c 128,-1,25
 294 293 294 293 316 292 c 0,26,27
 339 291 339 291 358 282 c 0,28,29
 402 261 402 261 392 217 c 0,30,31
 380 167 380 167 327 123 c 1,32,33
 357 127 357 127 383.5 125.5 c 128,-1,34
 410 124 410 124 425 112 c 128,-1,35
 440 100 440 100 445 83 c 0,36,37
 457 42 457 42 422 17 c 256,38,39
 360 -28 360 -28 274 -28 c 0,40,41
 247 -28 247 -28 231.5 -21.5 c 128,-1,42
 216 -15 216 -15 213.5 -7.5 c 128,-1,43
 211 0 211 0 214 6 c 0,44,45
 222 23 222 23 242 16.5 c 128,-1,46
 262 10 262 10 288.5 12.5 c 128,-1,47
 315 15 315 15 340 23.5 c 128,-1,48
 365 32 365 32 384 44 c 128,-1,49
 403 56 403 56 408 66 c 128,-1,50
 413 76 413 76 400.5 82.5 c 128,-1,51
 388 89 388 89 357.5 87 c 128,-1,52
 327 85 327 85 306 81.5 c 128,-1,53
 285 78 285 78 262 76 c 1,54,55
 237 79 237 79 242 103 c 1,56,57
 250 121 250 121 267 133 c 128,-1,58
 284 145 284 145 302 157 c 128,-1,59
 320 169 320 169 334 184 c 0,60,61
 350 200 350 200 354 232 c 0,62,63
 354 238 354 238 350 240 c 0,64,65
 332 254 332 254 309 254 c 128,-1,66
 286 254 286 254 261 245 c 128,-1,67
 236 236 236 236 210.5 220.5 c 128,-1,0
 185 205 185 205 162 187.5 c 128,-1,1
108 78 m 128,-1,69
 102 79 102 79 90 75 c 128,-1,70
 78 71 78 71 69 62 c 1,71,72
 71 52 71 52 65 44.5 c 128,-1,73
 59 37 59 37 45 39 c 1,74,-1
 44 39 l 1,75,76
 43 29 43 29 46 19 c 1,77,78
 93 15 93 15 110 43 c 0,79,80
 116 53 116 53 115 65 c 128,-1,68
 114 77 114 77 108 78 c 128,-1,69
EndSplineSet
EndChar

StartChar: ml_oo
Encoding: 272 3347 113
Width: 729
GlyphClass: 2
Flags: W
LayerCount: 2
Fore
SplineSet
367 228 m 1,0,1
 288 236 288 236 175 158 c 0,2,3
 146 138 146 138 124 119 c 1,4,5
 155 116 155 116 161 90.5 c 128,-1,6
 167 65 167 65 156.5 35 c 128,-1,7
 146 5 146 5 123.5 -20 c 128,-1,8
 101 -45 101 -45 76 -46 c 0,9,10
 68 -46 68 -46 62 -43 c 128,-1,11
 56 -40 56 -40 46 -37 c 0,12,13
 31 -32 31 -32 24 -7 c 128,-1,14
 17 18 17 18 22 42 c 1,15,16
 10 41 10 41 3.5 50.5 c 128,-1,17
 -3 60 -3 60 4 74 c 1,18,19
 18 84 18 84 30.5 93.5 c 128,-1,20
 43 103 43 103 59 108 c 1,21,22
 98 154 98 154 172 200 c 0,23,24
 229 236 229 236 263.5 247.5 c 128,-1,25
 298 259 298 259 316 264 c 0,26,27
 334 270 334 270 351 270 c 0,28,29
 390 271 390 271 410 244 c 1,30,31
 412 238 412 238 412.5 238 c 128,-1,32
 413 238 413 238 412 231 c 1,33,34
 400 203 400 203 380 184 c 128,-1,35
 360 165 360 165 339 145 c 1,36,37
 354 142 354 142 365 138 c 0,38,39
 410 121 410 121 424.5 99 c 128,-1,40
 439 77 439 77 432 55 c 128,-1,41
 425 33 425 33 402.5 14 c 128,-1,42
 380 -5 380 -5 351.5 -15.5 c 128,-1,43
 323 -26 323 -26 293.5 -26 c 128,-1,44
 264 -26 264 -26 244 -10 c 1,45,46
 237 -3 237 -3 237 5.5 c 128,-1,47
 237 14 237 14 241.5 19.5 c 128,-1,48
 246 25 246 25 254 26.5 c 128,-1,49
 262 28 262 28 271 20.5 c 128,-1,50
 280 13 280 13 299.5 14.5 c 128,-1,51
 319 16 319 16 339 24 c 0,52,53
 388 42 388 42 393 62 c 128,-1,54
 398 82 398 82 383 89 c 128,-1,55
 368 96 368 96 347 99 c 128,-1,56
 326 102 326 102 305.5 105 c 128,-1,57
 285 108 285 108 280 118 c 1,58,59
 275 131 275 131 281 143 c 1,60,61
 301 166 301 166 324 185.5 c 128,-1,62
 347 205 347 205 367 228 c 1,0,1
495 226 m 1,63,64
 484 210 484 210 470 218 c 128,-1,65
 456 226 456 226 459 243 c 1,66,67
 476 276 476 276 543 264 c 0,68,69
 570 259 570 259 594.5 249 c 128,-1,70
 619 239 619 239 628 229 c 0,71,72
 675 182 675 182 652 116 c 0,73,74
 634 65 634 65 579 17 c 0,75,76
 568 8 568 8 554 3 c 128,-1,77
 540 -2 540 -2 526 -9 c 1,78,79
 509 -12 509 -12 501 2 c 128,-1,80
 493 16 493 16 509 27 c 1,81,82
 520 32 520 32 531.5 36.5 c 128,-1,83
 543 41 543 41 556 49.5 c 128,-1,84
 569 58 569 58 585.5 77 c 128,-1,85
 602 96 602 96 612 118 c 0,86,87
 635 170 635 170 600 201 c 256,88,89
 565 232 565 232 504 225 c 1,90,91
 495 225 495 225 495 226 c 1,63,64
68 -3 m 1,92,93
 80 -7 80 -7 104 20 c 0,94,95
 127 47 127 47 126 61 c 128,-1,96
 125 75 125 75 115.5 78.5 c 128,-1,97
 106 82 106 82 84 75 c 1,98,99
 51 29 51 29 68 -3 c 1,92,93
EndSplineSet
EndChar

StartChar: ml_au
Encoding: 273 3348 114
Width: 925
GlyphClass: 2
Flags: W
LayerCount: 2
Fore
SplineSet
336 244 m 1,0,1
 283 264 283 264 203 224 c 0,2,3
 124 185 124 185 79 125 c 1,4,5
 105 127 105 127 126 116 c 128,-1,6
 147 105 147 105 148.5 81 c 128,-1,7
 150 57 150 57 135.5 32.5 c 128,-1,8
 121 8 121 8 99.5 -8 c 128,-1,9
 78 -24 78 -24 55 -26 c 128,-1,10
 32 -28 32 -28 17 -6 c 0,11,12
 3 14 3 14 7 52 c 1,13,14
 -2 61 -2 61 2 76.5 c 128,-1,15
 6 92 6 92 19 104 c 1,16,-1
 26 119 l 2,17,18
 31 129 31 129 53.5 155 c 128,-1,19
 76 181 76 181 91 198.5 c 128,-1,20
 106 216 106 216 136 233 c 0,21,22
 166 250 166 250 200 264 c 0,23,24
 302 304 302 304 346 284 c 0,25,26
 356 279 356 279 368 274 c 1,27,28
 379 266 379 266 378 252 c 1,29,30
 371 212 371 212 364.5 203.5 c 128,-1,31
 358 195 358 195 347 186.5 c 128,-1,32
 336 178 336 178 316 160 c 1,33,34
 400 171 400 171 455 135 c 0,35,36
 466 127 466 127 465 113 c 1,37,38
 452 36 452 36 338 6 c 0,39,40
 280 -9 280 -9 267.5 -3 c 128,-1,41
 255 3 255 3 246 5 c 1,42,43
 229 13 229 13 233 27.5 c 128,-1,44
 237 42 237 42 254 44 c 1,45,46
 262 42 262 42 268 39 c 128,-1,47
 274 36 274 36 284 36 c 128,-1,48
 294 36 294 36 317 42 c 128,-1,49
 340 48 340 48 363 58 c 0,50,51
 421 84 421 84 424 107 c 1,52,53
 403 121 403 121 379.5 121.5 c 128,-1,54
 356 122 356 122 333 119.5 c 128,-1,55
 310 117 310 117 290 116 c 128,-1,56
 270 115 270 115 257 125 c 1,57,58
 247 136 247 136 250 149 c 1,59,60
 257 164 257 164 270.5 174 c 128,-1,61
 284 184 284 184 298 194 c 0,62,63
 332 219 332 219 336 244 c 1,0,1
596 223 m 1,64,65
 578 223 578 223 560 177 c 0,66,67
 556 166 556 166 555 157 c 1,68,69
 560 151 560 151 558 142 c 128,-1,70
 556 133 556 133 542 126 c 1,71,72
 523 123 523 123 516 139 c 1,73,74
 508 166 508 166 532 208 c 128,-1,75
 556 250 556 250 584 262 c 0,76,77
 616 277 616 277 633 239 c 0,78,79
 639 225 639 225 637 209 c 1,80,81
 648 218 648 218 662.5 227.5 c 128,-1,82
 677 237 677 237 695.5 246.5 c 128,-1,83
 714 256 714 256 733.5 261.5 c 128,-1,84
 753 267 753 267 773 267 c 128,-1,85
 793 267 793 267 808 261 c 0,86,87
 835 250 835 250 843 222.5 c 128,-1,88
 851 195 851 195 854 173 c 0,89,90
 858 152 858 152 854 132 c 0,91,92
 847 95 847 95 804 53 c 0,93,94
 724 -29 724 -29 588 -49 c 0,95,96
 504 -60 504 -60 493 -46 c 0,97,98
 483 -32 483 -32 494 -20 c 0,99,100
 499 -14 499 -14 510 -14 c 1,101,102
 624 -17 624 -17 718 37 c 0,103,104
 796 82 796 82 816 152 c 0,105,106
 829 200 829 200 793 223 c 0,107,108
 756 248 756 248 690 196 c 0,109,110
 672 182 672 182 658 170 c 0,111,112
 621 141 621 141 605 144 c 1,113,114
 594 150 594 150 590 164 c 1,115,116
 589 179 589 179 593.5 193.5 c 128,-1,117
 598 208 598 208 596 223 c 1,64,65
109.5 59 m 128,-1,119
 112 72 112 72 104 79 c 128,-1,120
 96 86 96 86 81.5 86.5 c 128,-1,121
 67 87 67 87 55 81 c 1,122,123
 43 49 43 49 50 19 c 1,124,125
 64 12 64 12 85.5 29 c 128,-1,118
 107 46 107 46 109.5 59 c 128,-1,119
EndSplineSet
EndChar

StartChar: k1
Encoding: 274 3349 115
Width: 511
GlyphClass: 2
Flags: W
LayerCount: 2
Fore
SplineSet
193 258 m 1,0,1
 162 246 162 246 132 213 c 1,2,3
 141 206 141 206 138.5 193.5 c 128,-1,4
 136 181 136 181 121 178 c 0,5,6
 117 178 117 178 112.5 173.5 c 128,-1,7
 108 169 108 169 104 167 c 0,8,9
 83 156 83 156 72 177 c 1,10,11
 69 198 69 198 87 219.5 c 128,-1,12
 105 241 105 241 116 254 c 0,13,14
 128 266 128 266 136 274 c 0,15,16
 148 284 148 284 194 301 c 1,17,18
 204 303 204 303 212 295.5 c 128,-1,19
 220 288 220 288 228 282 c 128,-1,20
 236 276 236 276 242 266 c 0,21,22
 251 249 251 249 253 209 c 1,23,24
 333 234 333 234 368 215 c 0,25,26
 384 207 384 207 401.5 200 c 128,-1,27
 419 193 419 193 428 175 c 128,-1,28
 437 157 437 157 440 129.5 c 128,-1,29
 443 102 443 102 437 76 c 0,30,31
 423 14 423 14 372 1 c 0,32,33
 352 -3 352 -3 347 14 c 128,-1,34
 342 31 342 31 361 39 c 1,35,36
 375 41 375 41 386 58 c 0,37,38
 405 87 405 87 403 101.5 c 128,-1,39
 401 116 401 116 398 128.5 c 128,-1,40
 395 141 395 141 392 155 c 1,41,42
 383 160 383 160 374 167 c 0,43,44
 366 174 366 174 350 178 c 0,45,46
 316 185 316 185 250 165 c 1,47,48
 236 77 236 77 198 19 c 0,49,50
 186 0 186 0 174 -11 c 128,-1,51
 162 -22 162 -22 142 -39 c 0,52,53
 121 -55 121 -55 98 -66 c 0,54,55
 41 -94 41 -94 14 -56 c 0,56,57
 -6 -26 -6 -26 6 19 c 0,58,59
 21 72 21 72 71 111 c 0,60,61
 139 164 139 164 213 194 c 1,62,63
 215 238 215 238 193 258 c 1,0,1
135.5 8 m 128,-1,65
 142 15 142 15 146.5 20.5 c 128,-1,66
 151 26 151 26 160 40 c 0,67,68
 170 54 170 54 178 72 c 0,69,70
 199 117 199 117 207 150 c 1,71,72
 108 109 108 109 64 50 c 0,73,74
 40 16 40 16 46 -14 c 0,75,76
 48 -26 48 -26 49.5 -31 c 128,-1,77
 51 -36 51 -36 51 -36.5 c 128,-1,78
 51 -37 51 -37 55.5 -38 c 128,-1,79
 60 -39 60 -39 67.5 -36.5 c 128,-1,80
 75 -34 75 -34 83 -31.5 c 128,-1,81
 91 -29 91 -29 101 -22 c 128,-1,82
 111 -15 111 -15 120 -7 c 128,-1,64
 129 1 129 1 135.5 8 c 128,-1,65
EndSplineSet
EndChar

StartChar: k2
Encoding: 275 3350 116
Width: 601
GlyphClass: 2
Flags: W
LayerCount: 2
Fore
SplineSet
346 192 m 0,0,1
 342 208 342 208 318 219 c 128,-1,2
 294 230 294 230 259 222 c 128,-1,3
 224 214 224 214 190 196 c 0,4,5
 123 160 123 160 76 108 c 1,6,7
 90 113 90 113 104 120 c 128,-1,8
 118 127 118 127 127.5 125 c 128,-1,9
 137 123 137 123 151.5 120 c 128,-1,10
 166 117 166 117 172 111 c 0,11,12
 188 94 188 94 188 75 c 0,13,14
 188 54 188 54 178 36 c 0,15,16
 159 -1 159 -1 126 -26 c 0,17,18
 110 -39 110 -39 92 -39 c 0,19,20
 75 -40 75 -40 60 -32 c 0,21,22
 30 -17 30 -17 8 14 c 0,23,24
 -8 38 -8 38 9 79 c 0,25,26
 30 131 30 131 104 188 c 0,27,28
 186 251 186 251 266 264 c 0,29,30
 308 271 308 271 339.5 254 c 128,-1,31
 371 237 371 237 380 215 c 0,32,33
 388 194 388 194 384 168 c 0,34,35
 376 120 376 120 328 67 c 1,36,37
 352 71 352 71 378 71 c 2,38,-1
 436 71 l 1,39,40
 443 151 443 151 449 178 c 0,41,42
 465 245 465 245 503 270 c 1,43,44
 520 278 520 278 528 264 c 0,45,46
 536 251 536 251 526 237 c 1,47,48
 503 222 503 222 496 193.5 c 128,-1,49
 489 165 489 165 486.5 135 c 128,-1,50
 484 105 484 105 481 78 c 128,-1,51
 478 51 478 51 467 41 c 128,-1,52
 456 31 456 31 444 30 c 128,-1,53
 432 29 432 29 419 30.5 c 128,-1,54
 406 32 406 32 393.5 34 c 128,-1,55
 381 36 381 36 371 35 c 0,56,57
 305 29 305 29 243 -2 c 1,58,59
 226 -6 226 -6 218 8 c 128,-1,60
 210 22 210 22 226 34 c 1,61,62
 280 66 280 66 322 122 c 0,63,64
 354 164 354 164 346 192 c 0,0,1
69.5 63 m 128,-1,66
 58 55 58 55 52.5 46.5 c 128,-1,67
 47 38 47 38 42 37 c 1,68,69
 43 35 43 35 43 34 c 128,-1,70
 43 33 43 33 44 32 c 0,71,72
 53 7 53 7 72 4.5 c 128,-1,73
 91 2 91 2 109.5 13 c 128,-1,74
 128 24 128 24 139 43 c 128,-1,75
 150 62 150 62 143 80 c 1,76,77
 125 86 125 86 103 78.5 c 128,-1,65
 81 71 81 71 69.5 63 c 128,-1,66
EndSplineSet
EndChar

StartChar: k3
Encoding: 276 3351 117
Width: 544
GlyphClass: 2
Flags: W
LayerCount: 2
Fore
SplineSet
0 31 m 1,0,1
 0 88 0 88 35 184 c 0,2,3
 44 208 44 208 52 235 c 1,4,5
 45 246 45 246 50.5 255 c 128,-1,6
 56 264 56 264 59 270 c 128,-1,7
 62 276 62 276 65 282 c 1,8,9
 78 291 78 291 90 286.5 c 128,-1,10
 102 282 102 282 100 265 c 1,11,12
 93 228 93 228 74 179 c 128,-1,13
 55 130 55 130 47.5 102.5 c 128,-1,14
 40 75 40 75 40 47 c 1,15,16
 64 55 64 55 94 90 c 0,17,18
 106 104 106 104 117.5 118.5 c 128,-1,19
 129 133 129 133 147.5 148 c 128,-1,20
 166 163 166 163 192 187 c 0,21,22
 219 210 219 210 248 232 c 0,23,24
 314 281 314 281 371 295 c 256,25,26
 432 310 432 310 459 264 c 0,27,28
 483 223 483 223 470 165 c 0,29,30
 453 97 453 97 413 59 c 0,31,32
 382 29 382 29 311 -5 c 1,33,34
 294 -8 294 -8 286 6 c 128,-1,35
 278 20 278 20 294 31 c 1,36,37
 311 39 311 39 328 45.5 c 128,-1,38
 345 52 345 52 360.5 64 c 128,-1,39
 376 76 376 76 391 95 c 0,40,41
 406 113 406 113 417 134 c 0,42,43
 442 182 442 182 434 224 c 0,44,45
 433 232 433 232 428 238 c 128,-1,46
 423 244 423 244 418 250 c 1,47,48
 408 252 408 252 398 254 c 0,49,50
 372 261 372 261 310 227 c 0,51,52
 226 181 226 181 112 54 c 0,53,54
 52 -12 52 -12 8 14 c 1,55,56
 1 22 1 22 0 31 c 1,0,1
EndSplineSet
EndChar

StartChar: k4
Encoding: 277 3352 118
Width: 756
GlyphClass: 2
Flags: W
LayerCount: 2
Fore
SplineSet
151 76 m 1,0,-1
 148 77 l 1,1,2
 103 78 103 78 67 52 c 0,3,4
 55 44 55 44 48 33 c 1,5,6
 55 24 55 24 50 10 c 1,7,8
 43 -2 43 -2 31.5 -4.5 c 128,-1,9
 20 -7 20 -7 9 1 c 1,10,11
 4 6 4 6 3 9.5 c 128,-1,12
 2 13 2 13 0 19 c 1,13,14
 5 46 5 46 14.5 57 c 128,-1,15
 24 68 24 68 48 84 c 128,-1,16
 72 100 72 100 100 110 c 0,17,18
 170 134 170 134 189 95 c 0,19,20
 198 79 198 79 191.5 69 c 128,-1,21
 185 59 185 59 177 48 c 1,22,23
 206 46 206 46 269 68 c 1,24,25
 324 152 324 152 360 171 c 0,26,27
 378 180 378 180 404 186 c 1,28,29
 414 187 414 187 422 181 c 1,30,31
 425 177 425 177 428 174 c 0,32,33
 440 162 440 162 439 149 c 1,34,35
 437 145 437 145 433.5 131 c 128,-1,36
 430 117 430 117 422 110 c 0,37,38
 412 101 412 101 394 84 c 0,39,40
 365 58 365 58 291 33 c 1,41,42
 269 -4 269 -4 269 -30 c 1,43,44
 283 -30 283 -30 296 -23.5 c 128,-1,45
 309 -17 309 -17 330 -13.5 c 128,-1,46
 351 -10 351 -10 378 -12.5 c 128,-1,47
 405 -15 405 -15 423 -16 c 128,-1,48
 441 -17 441 -17 451.5 -17.5 c 128,-1,49
 462 -18 462 -18 474 -18 c 0,50,51
 500 -17 500 -17 511 -5 c 0,52,53
 538 21 538 21 552 63 c 128,-1,54
 566 105 566 105 578.5 149.5 c 128,-1,55
 591 194 591 194 607 234 c 128,-1,56
 623 274 623 274 652 296 c 0,57,58
 670 308 670 308 681.5 296.5 c 128,-1,59
 693 285 693 285 681 267 c 1,60,61
 659 252 659 252 643 213.5 c 128,-1,62
 627 175 627 175 612 129 c 128,-1,63
 597 83 597 83 579.5 37.5 c 128,-1,64
 562 -8 562 -8 538 -36 c 0,65,66
 519 -58 519 -58 448 -58 c 1,67,-1
 350 -53 l 2,68,69
 338 -53 338 -53 326 -56.5 c 128,-1,70
 314 -60 314 -60 302 -64 c 0,71,72
 270 -73 270 -73 253 -67 c 0,73,74
 207 -53 207 -53 242 19 c 1,75,76
 171 3 171 3 137 18 c 1,77,78
 132 23 132 23 128 35 c 1,79,80
 130 51 130 51 138 60 c 128,-1,81
 146 69 146 69 151 76 c 1,0,-1
396 143 m 1,82,83
 372 132 372 132 342 100 c 1,84,85
 396 133 396 133 396 143 c 1,82,83
EndSplineSet
EndChar

StartChar: ng
Encoding: 278 3353 119
Width: 603
GlyphClass: 2
Flags: W
LayerCount: 2
Fore
SplineSet
174.5 -17.5 m 128,-1,1
 164 -10 164 -10 171 14 c 0,2,3
 184 60 184 60 234 112 c 1,4,5
 236 117 236 117 237.5 122.5 c 128,-1,6
 239 128 239 128 241.5 136 c 128,-1,7
 244 144 244 144 249 157 c 0,8,9
 254 170 254 170 256 182 c 0,10,11
 262 211 262 211 248 228 c 1,12,13
 219 229 219 229 182 208 c 128,-1,14
 145 187 145 187 112 156 c 128,-1,15
 79 125 79 125 58 90 c 128,-1,16
 37 55 37 55 40 28 c 1,17,18
 60 17 60 17 76 26.5 c 128,-1,19
 92 36 92 36 100.5 49.5 c 128,-1,20
 109 63 109 63 109 72.5 c 128,-1,21
 109 82 109 82 97 70 c 1,22,23
 104 51 104 51 86 43 c 0,24,25
 69 35 69 35 60 57 c 128,-1,26
 51 79 51 79 64 94 c 128,-1,27
 77 109 77 109 95.5 112 c 128,-1,28
 114 115 114 115 131.5 103.5 c 128,-1,29
 149 92 149 92 149.5 69.5 c 128,-1,30
 150 47 150 47 140 33 c 128,-1,31
 130 19 130 19 115 8.5 c 128,-1,32
 100 -2 100 -2 82 -8 c 0,33,34
 62 -14 62 -14 46 -16 c 0,35,36
 8 -18 8 -18 3 10 c 0,37,38
 -10 74 -10 74 52 151 c 0,39,40
 103 215 103 215 174 251 c 0,41,42
 240 284 240 284 272 260 c 0,43,44
 305 235 305 235 290 164 c 1,45,46
 348 211 348 211 394 237 c 0,47,48
 440 264 440 264 460 270 c 0,49,50
 512 286 512 286 529 257 c 0,51,52
 539 240 539 240 527 221 c 0,53,54
 510 196 510 196 468 166 c 1,55,56
 487 155 487 155 504.5 144 c 128,-1,57
 522 133 522 133 524 107.5 c 128,-1,58
 526 82 526 82 505 64 c 128,-1,59
 484 46 484 46 454.5 38.5 c 128,-1,60
 425 31 425 31 395 34 c 128,-1,61
 365 37 365 37 350 54 c 1,62,63
 347 62 347 62 347 66 c 0,64,65
 347 72 347 72 357 88 c 1,66,67
 369 97 369 97 381.5 92 c 128,-1,68
 394 87 394 87 392 73 c 1,69,70
 418 67 418 67 443.5 77 c 128,-1,71
 469 87 469 87 478.5 94.5 c 128,-1,72
 488 102 488 102 483.5 109.5 c 128,-1,73
 479 117 479 117 470.5 122.5 c 128,-1,74
 462 128 462 128 452.5 133 c 128,-1,75
 443 138 443 138 433.5 143 c 128,-1,76
 424 148 424 148 417 155 c 1,77,78
 412 168 412 168 418 180 c 1,79,80
 435 194 435 194 452.5 206 c 128,-1,81
 470 218 470 218 485 233 c 1,82,83
 442 228 442 228 374 178 c 0,84,85
 310 132 310 132 261 76 c 1,86,87
 236 21 236 21 199 -17 c 1,88,0
 185 -25 185 -25 174.5 -17.5 c 128,-1,1
EndSplineSet
EndChar

StartChar: ch1
Encoding: 279 3354 120
Width: 636
GlyphClass: 2
Flags: W
LayerCount: 2
Fore
SplineSet
158 100 m 0,0,1
 148 96 148 96 145 87 c 128,-1,2
 142 78 142 78 135 75 c 128,-1,3
 128 72 128 72 121 74 c 0,4,5
 104 79 104 79 108.5 98.5 c 128,-1,6
 113 118 113 118 130.5 129 c 128,-1,7
 148 140 148 140 169.5 144.5 c 128,-1,8
 191 149 191 149 212.5 145.5 c 128,-1,9
 234 142 234 142 247 132 c 0,10,11
 278 108 278 108 242 63 c 1,12,13
 230 52 230 52 224 44 c 0,14,15
 211 29 211 29 196 18 c 1,16,17
 263 11 263 11 329 0 c 128,-1,18
 395 -11 395 -11 461 -6 c 1,19,-1
 476 66 l 2,20,21
 480 85 480 85 484 109 c 0,22,23
 489 133 489 133 496 158 c 0,24,25
 511 215 511 215 532 242 c 1,26,-1
 532 241 l 1,27,28
 537 247 537 247 549 249 c 1,29,-1
 550 249 l 1,30,31
 564 244 564 244 566 234 c 128,-1,32
 568 224 568 224 561 215 c 128,-1,33
 554 206 554 206 548 185.5 c 128,-1,34
 542 165 542 165 536 138.5 c 128,-1,35
 530 112 530 112 524 83 c 128,-1,36
 518 54 518 54 512 28 c 0,37,38
 498 -32 498 -32 490 -39 c 128,-1,39
 482 -46 482 -46 469.5 -47 c 128,-1,40
 457 -48 457 -48 444 -47.5 c 128,-1,41
 431 -47 431 -47 419.5 -45 c 128,-1,42
 408 -43 408 -43 388 -41 c 0,43,44
 306 -33 306 -33 266 -28 c 0,45,46
 226 -24 226 -24 198 -22 c 0,47,48
 143 -19 143 -19 119 -20 c 1,49,-1
 94 -28 l 2,50,51
 40 -46 40 -46 14 -37 c 1,52,53
 -1 -30 -1 -30 0.5 -17 c 128,-1,54
 2 -4 2 -4 21 3 c 0,55,56
 58 17 58 17 113 21 c 1,57,58
 180 46 180 46 208 80 c 0,59,60
 218 92 218 92 219 105 c 1,61,62
 183 112 183 112 158 100 c 0,0,1
EndSplineSet
EndChar

StartChar: ch2
Encoding: 280 3355 121
Width: 817
GlyphClass: 2
Flags: W
LayerCount: 2
Fore
SplineSet
747 174 m 0,0,1
 747 158 747 158 729 154 c 0,2,3
 725 154 725 154 721 154.5 c 128,-1,4
 717 155 717 155 713 155 c 1,5,6
 721 124 721 124 708 92 c 128,-1,7
 695 60 695 60 669 36 c 128,-1,8
 643 12 643 12 607 0 c 128,-1,9
 571 -12 571 -12 537 -4 c 128,-1,10
 503 4 503 4 492.5 20 c 128,-1,11
 482 36 482 36 484 55 c 0,12,13
 488 94 488 94 523 129 c 0,14,15
 563 170 563 170 637 189 c 1,16,17
 588 206 588 206 502 154 c 0,18,19
 468 133 468 133 441 107 c 128,-1,20
 414 81 414 81 408 65.5 c 128,-1,21
 402 50 402 50 401.5 43 c 128,-1,22
 401 36 401 36 402.5 30 c 128,-1,23
 404 24 404 24 407.5 17.5 c 128,-1,24
 411 11 411 11 414 2 c 1,25,26
 419 -2 419 -2 424.5 -3 c 128,-1,27
 430 -4 430 -4 434 -12 c 1,28,29
 442 -36 442 -36 417 -41 c 0,30,31
 405 -43 405 -43 393 -41 c 128,-1,32
 381 -39 381 -39 345 -34 c 0,33,34
 244 -20 244 -20 143 -25 c 1,35,36
 98 -40 98 -40 72 -40 c 2,37,-1
 33 -40 l 2,38,39
 19 -40 19 -40 8 -34 c 1,40,41
 -2 -23 -2 -23 0.5 -13 c 128,-1,42
 3 -3 3 -3 16 2 c 1,43,44
 85 13 85 13 152 17 c 1,45,46
 204 41 204 41 234 90 c 1,47,48
 214 99 214 99 148 62 c 1,49,50
 145 51 145 51 134.5 48.5 c 128,-1,51
 124 46 124 46 113 56 c 0,52,53
 112 58 112 58 111.5 58.5 c 128,-1,54
 111 59 111 59 110 61 c 0,55,56
 102 79 102 79 116 89 c 0,57,58
 193 139 193 139 255 127 c 1,59,60
 269 123 269 123 273 109 c 1,61,62
 283 57 283 57 231 19 c 1,63,64
 258 17 258 17 281 15.5 c 128,-1,65
 304 14 304 14 325.5 10 c 128,-1,66
 347 6 347 6 368 3 c 1,67,68
 352 49 352 49 372 81 c 0,69,70
 395 121 395 121 403.5 128.5 c 128,-1,71
 412 136 412 136 427 150 c 256,72,73
 465 186 465 186 516 207 c 0,74,75
 566 227 566 227 598 232 c 0,76,77
 653 241 653 241 692 195 c 1,78,79
 747 201 747 201 747 174 c 0,0,1
530 41 m 1,80,81
 548 29 548 29 577.5 35.5 c 128,-1,82
 607 42 607 42 632.5 60 c 128,-1,83
 658 78 658 78 672.5 103 c 128,-1,84
 687 128 687 128 675 154 c 1,85,86
 606 146 606 146 558 109 c 0,87,88
 509 72 509 72 530 41 c 1,80,81
EndSplineSet
EndChar

StartChar: ch3
Encoding: 281 3356 122
Width: 457
GlyphClass: 2
Flags: W
LayerCount: 2
Fore
SplineSet
139 48 m 1,0,-1
 140 51 l 1,1,2
 148 68 148 68 152 86 c 128,-1,3
 156 104 156 104 160 115 c 0,4,5
 164 126 164 126 164 130 c 0,6,7
 165 137 165 137 167 145 c 128,-1,8
 169 153 169 153 173.5 171.5 c 128,-1,9
 178 190 178 190 178 203 c 0,10,11
 177 235 177 235 138 202 c 0,12,13
 105 172 105 172 83 142 c 1,14,15
 114 144 114 144 116 107 c 0,16,17
 117 69 117 69 82 22 c 0,18,19
 73 10 73 10 69 3 c 0,20,21
 66 -2 66 -2 62 -6 c 0,22,23
 57 -11 57 -11 40.5 -15.5 c 128,-1,24
 24 -20 24 -20 13 -10 c 1,25,26
 -17 46 -17 46 23 122 c 0,27,28
 53 180 53 180 110 231 c 0,29,30
 157 274 157 274 188 256 c 0,31,32
 218 238 218 238 214 176 c 0,33,34
 213 169 213 169 212 162 c 128,-1,35
 211 155 211 155 209 148 c 1,36,-1
 220 158 l 2,37,38
 252 190 252 190 271 201.5 c 128,-1,39
 290 213 290 213 311.5 220 c 128,-1,40
 333 227 333 227 349.5 223.5 c 128,-1,41
 366 220 366 220 374 203.5 c 128,-1,42
 382 187 382 187 374.5 156.5 c 128,-1,43
 367 126 367 126 344 100.5 c 128,-1,44
 321 75 321 75 308.5 63 c 128,-1,45
 296 51 296 51 292.5 47.5 c 128,-1,46
 289 44 289 44 284 40 c 1,47,48
 296 40 296 40 308 40 c 128,-1,49
 320 40 320 40 329 38.5 c 128,-1,50
 338 37 338 37 350 33.5 c 128,-1,51
 362 30 362 30 374 25 c 0,52,53
 403 13 403 13 423 -4 c 1,54,55
 457 0 457 0 488 0 c 1,56,57
 505 -6 505 -6 505 -21 c 128,-1,58
 505 -36 505 -36 487 -40 c 1,59,-1
 468 -40 l 2,60,61
 457 -40 457 -40 446 -41 c 1,62,63
 446 -58 446 -58 437 -77.5 c 128,-1,64
 428 -97 428 -97 425 -100 c 0,65,66
 387 -135 387 -135 317 -162 c 0,67,68
 234 -194 234 -194 197 -169 c 0,69,70
 154 -139 154 -139 192 -92 c 0,71,72
 208 -73 208 -73 229.5 -58.5 c 128,-1,73
 251 -44 251 -44 266.5 -39 c 128,-1,74
 282 -34 282 -34 292.5 -30.5 c 128,-1,75
 303 -27 303 -27 313 -24 c 0,76,77
 331 -19 331 -19 346 -16 c 128,-1,78
 361 -13 361 -13 363 -12 c 1,79,80
 309 14 309 14 214 -11 c 1,81,82
 211 -13 211 -13 208.5 -15 c 128,-1,83
 206 -17 206 -17 185 -30 c 0,84,85
 99 -84 99 -84 32 -98 c 1,86,87
 24 -96 24 -96 20 -94 c 0,88,89
 15 -91 15 -91 11 -80 c 1,90,91
 10 -70 10 -70 14 -62 c 1,92,93
 98 5 98 5 206 29 c 1,94,95
 215 36 215 36 224 42.5 c 128,-1,96
 233 49 233 49 241 56 c 128,-1,97
 249 63 249 63 268 80 c 0,98,99
 287 98 287 98 304 118 c 0,100,101
 348 170 348 170 336 184 c 0,102,103
 328 194 328 194 298 172 c 0,104,105
 207 104 207 104 176 33 c 1,106,107
 167 20 167 20 156 24 c 0,108,109
 139 30 139 30 139 47 c 2,110,-1
 139 48 l 1,0,-1
403 -53 m 1,111,-1
 399 -46 l 1,112,113
 292 -58 292 -58 244 -96 c 0,114,115
 226 -110 226 -110 218 -130 c 1,116,117
 220 -132 220 -132 220 -134 c 1,118,119
 271 -140 271 -140 326 -120 c 0,120,121
 386 -98 386 -98 403 -53 c 1,111,-1
74 98 m 1,122,123
 65 94 65 94 58 89 c 128,-1,124
 51 84 51 84 50 84 c 0,125,126
 39 56 39 56 42 32 c 1,127,128
 54 46 54 46 61.5 66.5 c 128,-1,129
 69 87 69 87 74 98 c 1,122,123
167 143 m 1,130,-1
 167 145 l 1,131,-1
 167 143 l 1,130,-1
164 130 m 2,132,-1
 165 132 l 2,133,-1
 164 130 l 2,132,-1
EndSplineSet
EndChar

StartChar: ch4
Encoding: 282 3357 123
Width: 913
GlyphClass: 2
Flags: W
LayerCount: 2
Fore
SplineSet
43 9 m 0,0,1
 48 -9 48 -9 35 -17 c 128,-1,2
 22 -25 22 -25 8 -12 c 1,3,4
 -12 28 -12 28 22 76 c 0,5,6
 50 116 50 116 108 152 c 0,7,8
 179 198 179 198 215 194 c 0,9,10
 227 193 227 193 238 192 c 1,11,-1
 239 192 l 1,12,13
 318 268 318 268 374 261 c 0,14,15
 403 258 403 258 414.5 243 c 128,-1,16
 426 228 426 228 427.5 206 c 128,-1,17
 429 184 429 184 422.5 158 c 128,-1,18
 416 132 416 132 408 107 c 0,19,20
 389 44 389 44 394 25 c 1,21,22
 422 37 422 37 447 62 c 128,-1,23
 472 87 472 87 496.5 115.5 c 128,-1,24
 521 144 521 144 547 172.5 c 128,-1,25
 573 201 573 201 604 220 c 0,26,27
 617 227 617 227 628 217 c 0,28,29
 630 214 630 214 633 212 c 0,30,31
 644 203 644 203 642.5 192 c 128,-1,32
 641 181 641 181 635.5 160.5 c 128,-1,33
 630 140 630 140 624 118 c 0,34,35
 610 63 610 63 617 54 c 1,36,37
 627 54 627 54 654 79.5 c 128,-1,38
 681 105 681 105 698.5 124.5 c 128,-1,39
 716 144 716 144 732 162 c 0,40,41
 783 219 783 219 791.5 239.5 c 128,-1,42
 800 260 800 260 813 266 c 0,43,44
 836 275 836 275 843 251 c 0,45,46
 844 250 844 250 844 248 c 0,47,48
 843 232 843 232 830 227 c 0,49,50
 829 226 829 226 820 210 c 128,-1,51
 811 194 811 194 792.5 171.5 c 128,-1,52
 774 149 774 149 753 122.5 c 128,-1,53
 732 96 732 96 708 72 c 0,54,55
 649 13 649 13 605 15 c 0,56,57
 595 16 595 16 587 23 c 1,58,59
 573 56 573 56 578.5 84.5 c 128,-1,60
 584 113 584 113 589 131 c 128,-1,61
 594 149 594 149 598 168 c 1,62,63
 572 143 572 143 548 116.5 c 128,-1,64
 524 90 524 90 510.5 75 c 128,-1,65
 497 60 497 60 491 53 c 128,-1,66
 485 46 485 46 477.5 38 c 128,-1,67
 470 30 470 30 462 22 c 2,68,-1
 451 11 l 1,69,70
 414 -18 414 -18 384 -15 c 0,71,72
 355 -14 355 -14 355 30 c 0,73,74
 355 68 355 68 370 120.5 c 128,-1,75
 385 173 385 173 386.5 183.5 c 128,-1,76
 388 194 388 194 386.5 197 c 128,-1,77
 385 200 385 200 380 215 c 1,78,79
 341 233 341 233 271 168 c 1,80,81
 295 144 295 144 282 92 c 0,82,83
 269 42 269 42 235 8 c 0,84,85
 197 -29 197 -29 166 -7 c 0,86,87
 143 9 143 9 145 48 c 0,88,89
 147 80 147 80 164 104 c 256,90,91
 182 129 182 129 202 153 c 1,92,93
 158 148 158 148 98 96 c 0,94,95
 69 70 69 70 59 56 c 0,96,97
 44 34 44 34 40 18 c 1,98,-1
 42 13 l 2,99,100
 43 9 l 0,0,1
184 48 m 1,101,102
 185 48 185 48 185 40 c 256,103,104
 185 38 185 38 186.5 34.5 c 128,-1,105
 188 31 188 31 189 28 c 1,106,107
 214 41 214 41 234 80 c 0,108,109
 254 120 254 120 243 141 c 1,110,111
 201 96 201 96 190 64 c 0,112,113
 187 56 187 56 184 48 c 1,101,102
EndSplineSet
EndChar

StartChar: nj
Encoding: 283 3358 124
Width: 766
GlyphClass: 2
Flags: W
LayerCount: 2
Fore
SplineSet
216 148 m 1,0,-1
 219 180 l 1,1,2
 219 191 219 191 216.5 199.5 c 128,-1,3
 214 208 214 208 207 207 c 0,4,5
 157 198 157 198 96 127 c 1,6,7
 119 127 119 127 131 115 c 256,8,9
 154 92 154 92 138 50 c 0,10,11
 124 10 124 10 88 -14 c 0,12,13
 50 -39 50 -39 17 -18 c 0,14,15
 -14 3 -14 3 11 65 c 1,16,17
 11 79 11 79 22 92 c 1,18,19
 46 140 46 140 104 192 c 0,20,21
 171 253 171 253 211 248 c 0,22,23
 266 243 266 243 258 168 c 0,24,25
 256 147 256 147 250 125 c 1,26,27
 308 196 308 196 366 224 c 0,28,29
 380 230 380 230 416 233 c 1,30,31
 436 233 436 233 453 224 c 1,32,33
 455 225 455 225 457 225.5 c 128,-1,34
 459 226 459 226 465.5 228.5 c 128,-1,35
 472 231 472 231 494 241 c 0,36,37
 515 250 515 250 540 258 c 0,38,39
 602 277 602 277 630 260 c 0,40,41
 641 252 641 252 652.5 245 c 128,-1,42
 664 238 664 238 677 224.5 c 128,-1,43
 690 211 690 211 694.5 189 c 128,-1,44
 699 167 699 167 695 144 c 0,45,46
 688 103 688 103 665 60 c 0,47,48
 659 47 659 47 647 38 c 128,-1,49
 635 29 635 29 624 18.5 c 128,-1,50
 613 8 613 8 597.5 7 c 128,-1,51
 582 6 582 6 570 2.5 c 128,-1,52
 558 -1 558 -1 551.5 3 c 128,-1,53
 545 7 545 7 543 14 c 0,54,55
 538 31 538 31 553 36.5 c 128,-1,56
 568 42 568 42 579 44 c 128,-1,57
 590 46 590 46 604 53.5 c 128,-1,58
 618 61 618 61 633.5 86.5 c 128,-1,59
 649 112 649 112 654 140 c 0,60,61
 666 208 666 208 614 222 c 0,62,63
 564 236 564 236 482 196 c 1,64,65
 494 183 494 183 502.5 167.5 c 128,-1,66
 511 152 511 152 508 131 c 128,-1,67
 505 110 505 110 493.5 89.5 c 128,-1,68
 482 69 482 69 464 50.5 c 128,-1,69
 446 32 446 32 426 19 c 0,70,71
 367 -18 367 -18 330 8 c 0,72,73
 321 14 321 14 318 16 c 0,74,75
 311 24 311 24 310 34 c 1,76,77
 311 45 311 45 310 56.5 c 128,-1,78
 309 68 309 68 317 89.5 c 128,-1,79
 325 111 325 111 348 140.5 c 128,-1,80
 371 170 371 170 400 192 c 1,81,82
 361 186 361 186 310 134 c 0,83,84
 264 88 264 88 228 22 c 0,85,86
 219 6 219 6 205 -5 c 1,87,88
 191 -13 191 -13 180.5 -5.5 c 128,-1,89
 170 2 170 2 174 18 c 0,90,91
 183 51 183 51 197 82.5 c 128,-1,92
 211 114 211 114 216 148 c 1,0,-1
350 43 m 1,93,94
 373 28 373 28 410 54 c 0,95,96
 444 78 444 78 460 118 c 0,97,98
 477 158 477 158 453 179 c 1,99,100
 411 153 411 153 381.5 117 c 128,-1,101
 352 81 352 81 350 43 c 1,93,94
99 88.5 m 128,-1,103
 99 89 99 89 93.5 87.5 c 128,-1,104
 88 86 88 86 73 73 c 128,-1,105
 58 60 58 60 53 56 c 128,-1,106
 48 52 48 52 47 51 c 0,107,108
 44 37 44 37 44 15 c 1,109,110
 55 13 55 13 69.5 21 c 128,-1,111
 84 29 84 29 94 48.5 c 128,-1,112
 104 68 104 68 101.5 78 c 128,-1,102
 99 88 99 88 99 88.5 c 128,-1,103
EndSplineSet
EndChar

StartChar: t1
Encoding: 284 3359 125
Width: 399
GlyphClass: 2
Flags: W
LayerCount: 2
Fore
SplineSet
272 225 m 256,0,1
 271 225 271 225 262 226.5 c 128,-1,2
 253 228 253 228 221.5 226 c 128,-1,3
 190 224 190 224 156 218 c 0,4,5
 75 203 75 203 49 176 c 1,6,7
 60 165 60 165 76 163 c 128,-1,8
 92 161 92 161 114 154 c 128,-1,9
 136 147 136 147 166 141 c 128,-1,10
 196 135 196 135 224 126 c 0,11,12
 288 105 288 105 324 65 c 0,13,14
 333 55 333 55 327.5 43 c 128,-1,15
 322 31 322 31 317 20 c 128,-1,16
 312 9 312 9 298 -4 c 128,-1,17
 284 -17 284 -17 248 -25 c 0,18,19
 212 -32 212 -32 172 -32 c 0,20,21
 80 -31 80 -31 40 -3 c 0,22,23
 26 7 26 7 21.5 16.5 c 128,-1,24
 17 26 17 26 13.5 39 c 128,-1,25
 10 52 10 52 15 59 c 0,26,27
 20 64 20 64 27 66 c 0,28,29
 45 70 45 70 51 50 c 0,30,31
 56 28 56 28 110 16 c 0,32,33
 153 5 153 5 193 7 c 0,34,35
 263 11 263 11 275 30 c 0,36,37
 279 35 279 35 281 39.5 c 128,-1,38
 283 44 283 44 286 49 c 1,39,40
 261 76 261 76 225.5 87 c 128,-1,41
 190 98 190 98 151 106 c 128,-1,42
 112 114 112 114 74 124 c 128,-1,43
 36 134 36 134 8 159 c 1,44,45
 -5 172 -5 172 4 188 c 0,46,47
 5 190 5 190 15 200.5 c 128,-1,48
 25 211 25 211 36.5 218 c 128,-1,49
 48 225 48 225 83 237 c 0,50,51
 118 250 118 250 158 259 c 0,52,53
 256 281 256 281 292 260 c 1,54,-1
 293 260 l 1,55,56
 298 255 298 255 300 254 c 0,57,58
 312 239 312 239 301.5 228 c 128,-1,59
 291 217 291 217 275 223 c 1,60,61
 273 225 273 225 272 225 c 256,0,1
EndSplineSet
EndChar

StartChar: t2
Encoding: 285 3360 126
Width: 498
GlyphClass: 2
Flags: W
LayerCount: 2
Fore
SplineSet
68 219 m 0,0,1
 80 232 80 232 97 240 c 0,2,3
 137 260 137 260 191 270 c 1,4,5
 193 284 193 284 212 286 c 1,6,7
 238 284 238 284 263.5 282.5 c 128,-1,8
 289 281 289 281 313 273 c 0,9,10
 410 242 410 242 426.5 188.5 c 128,-1,11
 443 135 443 135 363 63 c 0,12,13
 320 23 320 23 226 -4 c 0,14,15
 114 -36 114 -36 50 -6 c 0,16,17
 38 0 38 0 26 6.5 c 128,-1,18
 14 13 14 13 7.5 30 c 128,-1,19
 1 47 1 47 0 66 c 0,20,21
 -2 108 -2 108 8.5 127.5 c 128,-1,22
 19 147 19 147 25.5 164.5 c 128,-1,23
 32 182 32 182 44 194.5 c 128,-1,24
 56 207 56 207 68 219 c 0,0,1
249 225 m 1,25,26
 236 231 236 231 202 231 c 1,27,28
 151 227 151 227 116 204 c 0,29,30
 101 195 101 195 83 174 c 0,31,32
 64 153 64 153 52 128 c 0,33,34
 22 67 22 67 54 37 c 0,35,36
 92 2 92 2 198 30 c 0,37,38
 257 45 257 45 290 63 c 128,-1,39
 323 81 323 81 335 92 c 0,40,41
 395 146 395 146 385 182.5 c 128,-1,42
 375 219 375 219 299 236 c 1,43,-1
 297 236 l 2,44,-1
 299 231 l 0,45,46
 303 224 303 224 293 210 c 1,47,48
 290 208 290 208 286 204 c 2,49,-1
 278 196 l 1,50,51
 262 188 262 188 251.5 198.5 c 128,-1,52
 241 209 241 209 249 225 c 1,25,26
EndSplineSet
EndChar

StartChar: t3
Encoding: 286 3361 127
Width: 747
GlyphClass: 2
Flags: W
LayerCount: 2
Fore
SplineSet
66 110 m 0,0,1
 55 96 55 96 51.5 83 c 128,-1,2
 48 70 48 70 45.5 67.5 c 128,-1,3
 43 65 43 65 43 63 c 1,4,5
 56 64 56 64 62 53 c 128,-1,6
 68 42 68 42 58 28 c 1,7,8
 42 12 42 12 26 13 c 0,9,10
 -3 16 -3 16 1 45 c 0,11,12
 10 122 10 122 92 193 c 0,13,14
 152 246 152 246 190 246 c 0,15,16
 210 246 210 246 224.5 219 c 128,-1,17
 239 192 239 192 225 158 c 0,18,19
 199 96 199 96 198 91 c 0,20,21
 194 62 194 62 194 49 c 1,22,23
 224 48 224 48 294 134 c 0,24,25
 302 144 302 144 364 232 c 1,26,27
 378 238 378 238 388 229 c 1,28,29
 404 218 404 218 408 211 c 0,30,31
 421 192 421 192 413.5 161 c 128,-1,32
 406 130 406 130 406 117 c 128,-1,33
 406 104 406 104 404 92 c 128,-1,34
 402 80 402 80 402 67 c 0,35,36
 403 34 403 34 420 31 c 0,37,38
 479 20 479 20 603 177 c 0,39,40
 637 219 637 219 637 239 c 1,41,42
 620 249 620 249 604 233 c 1,43,44
 588 225 588 225 577.5 235.5 c 128,-1,45
 567 246 567 246 575 262 c 1,46,47
 597 282 597 282 618.5 283 c 128,-1,48
 640 284 640 284 666 270 c 1,49,50
 674 264 674 264 677 254 c 1,51,52
 680 199 680 199 616 123 c 0,53,54
 525 12 525 12 442 -8 c 0,55,56
 398 -19 398 -19 381 9 c 0,57,58
 354 54 354 54 366 136 c 0,59,60
 368 152 368 152 371 173 c 1,61,-1
 344 126 l 2,62,63
 328 102 328 102 301.5 75.5 c 128,-1,64
 275 49 275 49 256 38 c 128,-1,65
 237 27 237 27 196 3 c 0,66,67
 184 -4 184 -4 168.5 3.5 c 128,-1,68
 153 11 153 11 153 12 c 0,69,70
 150 32 150 32 152.5 65.5 c 128,-1,71
 155 99 155 99 163 115 c 0,72,73
 182 150 182 150 185.5 165.5 c 128,-1,74
 189 181 189 181 187 206 c 1,75,76
 129 193 129 193 66 110 c 0,0,1
EndSplineSet
EndChar

StartChar: t4
Encoding: 287 3362 128
Width: 788
GlyphClass: 2
Flags: W
LayerCount: 2
Fore
SplineSet
220 12 m 1,0,-1
 197 18 l 1,1,2
 186 24 186 24 182 38 c 1,3,4
 180 73 180 73 190 109 c 0,5,6
 207 175 207 175 210 207 c 1,7,8
 177 202 177 202 123 146 c 0,9,10
 83 105 83 105 54 59 c 0,11,12
 50 52 50 52 48.5 42 c 128,-1,13
 47 32 47 32 45 22 c 0,14,15
 40 -3 40 -3 27 -9 c 1,16,17
 11 -12 11 -12 4 -1.5 c 128,-1,18
 -3 9 -3 9 3 19 c 1,19,20
 2 41 2 41 6 53 c 0,21,22
 14 84 14 84 76 154 c 0,23,24
 121 206 121 206 155 224.5 c 128,-1,25
 189 243 189 243 207 246 c 128,-1,26
 225 249 225 249 229.5 246.5 c 128,-1,27
 234 244 234 244 244 231.5 c 128,-1,28
 254 219 254 219 253 196.5 c 128,-1,29
 252 174 252 174 245 150 c 128,-1,30
 238 126 238 126 229.5 102 c 128,-1,31
 221 78 221 78 221 57 c 1,32,33
 242 70 242 70 264.5 95.5 c 128,-1,34
 287 121 287 121 309 147.5 c 128,-1,35
 331 174 331 174 349.5 195 c 128,-1,36
 368 216 368 216 377 218 c 0,37,38
 387 221 387 221 400 216 c 1,39,40
 418 204 418 204 406 158 c 0,41,42
 388 91 388 91 389 65.5 c 128,-1,43
 390 40 390 40 404 31 c 128,-1,44
 418 22 418 22 430 21.5 c 128,-1,45
 442 21 442 21 454 25 c 0,46,47
 480 34 480 34 536 75 c 1,48,49
 526 114 526 114 556 161 c 0,50,51
 574 189 574 189 616 228 c 0,52,53
 670 277 670 277 708 250 c 0,54,55
 729 232 729 232 703 184 c 0,56,57
 672 126 672 126 586 61 c 1,58,59
 588 59 588 59 588.5 57 c 128,-1,60
 589 55 589 55 591 53 c 1,61,62
 596 35 596 35 583 27 c 128,-1,63
 570 19 570 19 556 32 c 1,64,-1
 553 38 l 1,65,66
 537 27 537 27 523 18 c 128,-1,67
 509 9 509 9 496 1 c 128,-1,68
 483 -7 483 -7 465 -13 c 0,69,70
 446 -18 446 -18 428 -18 c 0,71,72
 385 -18 385 -18 367 13 c 0,73,74
 341 55 341 55 359 116 c 0,75,76
 364 133 364 133 367 150 c 1,77,78
 351 130 351 130 332 106 c 0,79,80
 314 82 314 82 294 62 c 0,81,82
 246 12 246 12 220 12 c 1,0,-1
674 217 m 1,83,84
 622 196 622 196 588 140 c 0,85,86
 578 122 578 122 575 104 c 1,87,88
 658 172 658 172 674 217 c 1,83,84
EndSplineSet
EndChar

StartChar: nh
Encoding: 288 3363 129
Width: 738
GlyphClass: 2
Flags: W
LayerCount: 2
Fore
SplineSet
173 223 m 1,0,-1
 170 224 l 1,1,2
 143 212 143 212 115.5 188 c 128,-1,3
 88 164 88 164 69 134 c 1,4,5
 91 137 91 137 102.5 126 c 128,-1,6
 114 115 114 115 115.5 98.5 c 128,-1,7
 117 82 117 82 113 63.5 c 128,-1,8
 109 45 109 45 100 27 c 0,9,10
 90 9 90 9 78 -2 c 0,11,12
 49 -30 49 -30 26 -13 c 0,13,14
 -15 16 -15 16 8 85 c 1,15,16
 8 89 8 89 15.5 108.5 c 128,-1,17
 23 128 23 128 42.5 159 c 128,-1,18
 62 190 62 190 84 214 c 0,19,20
 135 269 135 269 172 266 c 0,21,22
 208 262 208 262 216 217 c 0,23,24
 221 189 221 189 211 123 c 1,25,26
 228 149 228 149 248 173 c 128,-1,27
 268 197 268 197 286 199 c 128,-1,28
 304 201 304 201 312 195.5 c 128,-1,29
 320 190 320 190 324 180 c 128,-1,30
 328 170 328 170 328 157.5 c 128,-1,31
 328 145 328 145 327 132 c 1,32,33
 376 181 376 181 405 198 c 128,-1,34
 434 215 434 215 457.5 227.5 c 128,-1,35
 481 240 481 240 507 250 c 0,36,37
 570 273 570 273 601 250 c 0,38,39
 614 241 614 241 628 232.5 c 128,-1,40
 642 224 642 224 650 210 c 0,41,42
 713 87 713 87 575 26 c 0,43,44
 514 -1 514 -1 456 -6 c 1,45,46
 438 -3 438 -3 436 11.5 c 128,-1,47
 434 26 434 26 451 33 c 1,48,49
 510 41 510 41 536 52 c 0,50,51
 587 72 587 72 616 106 c 0,52,53
 638 134 638 134 627 167 c 0,54,55
 616 201 616 201 583 213 c 0,56,57
 533 234 533 234 450 180 c 0,58,59
 399 147 399 147 339 87 c 0,60,61
 329 76 329 76 319.5 66 c 128,-1,62
 310 56 310 56 302 45 c 1,63,64
 299 38 299 38 296.5 31 c 128,-1,65
 294 24 294 24 291.5 17.5 c 128,-1,66
 289 11 289 11 287 5 c 0,67,68
 286 0 286 0 282 -6 c 0,69,70
 278 -13 278 -13 265 -17 c 1,71,-1
 261 -17 l 1,72,73
 243 -14 243 -14 240 4 c 0,74,75
 235 31 235 31 273 76 c 1,76,77
 289 119 289 119 289 153 c 1,78,79
 276 141 276 141 261 117.5 c 128,-1,80
 246 94 246 94 230 70 c 128,-1,81
 214 46 214 46 198.5 27 c 128,-1,82
 183 8 183 8 168 5 c 1,83,84
 151 9 151 9 147 26 c 1,85,86
 151 50 151 50 158.5 74.5 c 128,-1,87
 166 99 166 99 172 124 c 0,88,89
 186 183 186 183 173 223 c 1,0,-1
75 95 m 1,90,91
 64 95 64 95 50 77 c 1,92,93
 52 65 52 65 44 57 c 1,94,95
 43 47 43 47 48 26 c 1,96,97
 71 49 71 49 77 78 c 0,98,99
 79 88 79 88 75 95 c 1,90,91
277 7 m 1,100,101
 275 1 275 1 278 7 c 1,102,-1
 277 7 l 1,100,101
EndSplineSet
EndChar

StartChar: th1
Encoding: 289 3364 130
Width: 651
GlyphClass: 2
Flags: W
LayerCount: 2
Fore
SplineSet
53 57 m 0,0,1
 46 47 46 47 44 38 c 0,2,3
 41 27 41 27 44 9 c 1,4,5
 52 10 52 10 58 4 c 0,6,7
 68 -6 68 -6 64 -16 c 128,-1,8
 60 -26 60 -26 56.5 -29 c 128,-1,9
 53 -32 53 -32 41.5 -34 c 128,-1,10
 30 -36 30 -36 20 -27 c 128,-1,11
 10 -18 10 -18 5 -5 c 0,12,13
 -6 23 -6 23 3 41.5 c 128,-1,14
 12 60 12 60 18.5 72 c 128,-1,15
 25 84 25 84 32.5 99 c 128,-1,16
 40 114 40 114 65 142 c 0,17,18
 90 168 90 168 122 194 c 0,19,20
 199 256 199 256 243 251 c 0,21,22
 275 248 275 248 287 236 c 1,23,24
 386 288 386 288 477 269 c 0,25,26
 522 260 522 260 547.5 234 c 128,-1,27
 573 208 573 208 580 174 c 0,28,29
 586 141 586 141 573 106 c 0,30,31
 546 30 546 30 470 6 c 0,32,33
 459 2 459 2 447 -1 c 128,-1,34
 435 -4 435 -4 428.5 0 c 128,-1,35
 422 4 422 4 420 11 c 0,36,37
 415 28 415 28 430.5 34 c 128,-1,38
 446 40 446 40 454 42 c 0,39,40
 462 43 462 43 470 48 c 0,41,42
 505 64 505 64 526 102 c 0,43,44
 550 143 550 143 538 180 c 0,45,46
 532 199 532 199 510 213 c 128,-1,47
 488 227 488 227 462 232 c 128,-1,48
 436 237 436 237 409 235 c 0,49,50
 356 231 356 231 304 203 c 1,51,52
 312 160 312 160 296 102 c 0,53,54
 281 46 281 46 256 22 c 0,55,56
 210 -23 210 -23 174 -16 c 0,57,58
 160 -13 160 -13 146.5 6.5 c 128,-1,59
 133 26 133 26 135.5 53 c 128,-1,60
 138 80 138 80 150 106 c 0,61,62
 174 161 174 161 214 190 c 0,63,64
 225 198 225 198 239 207 c 1,65,66
 196 206 196 206 140 158 c 0,67,68
 101 124 101 124 65 77 c 1,69,70
 59 67 59 67 53 57 c 0,0,1
265 134.5 m 128,-1,72
 270 159 270 159 268 168 c 128,-1,73
 266 177 266 177 266 180 c 1,74,75
 249 167 249 167 239 159 c 128,-1,76
 229 151 229 151 215 133.5 c 128,-1,77
 201 116 201 116 190 95 c 0,78,79
 163 43 163 43 188 24 c 1,80,81
 220 28 220 28 248 86 c 0,82,71
 260 110 260 110 265 134.5 c 128,-1,72
EndSplineSet
EndChar

StartChar: th2
Encoding: 290 3365 131
Width: 679
GlyphClass: 2
Flags: W
LayerCount: 2
Fore
SplineSet
34 33 m 1,0,1
 53 58 53 58 77 109 c 0,2,3
 114 186 114 186 127 227 c 1,4,5
 122 235 122 235 127 244.5 c 128,-1,6
 132 254 132 254 146 256 c 1,7,-1
 152 256 l 1,8,9
 170 250 170 250 168.5 235.5 c 128,-1,10
 167 221 167 221 160 199 c 0,11,12
 153 176 153 176 141 150 c 0,13,14
 115 87 115 87 87 43 c 1,15,16
 116 46 116 46 142 46 c 128,-1,17
 168 46 168 46 191 43 c 128,-1,18
 214 40 214 40 251 33.5 c 128,-1,19
 288 27 288 27 323 23 c 1,20,21
 303 78 303 78 342 143 c 0,22,23
 376 199 376 199 431 231 c 0,24,25
 445 239 445 239 459.5 243.5 c 128,-1,26
 474 248 474 248 490 253.5 c 128,-1,27
 506 259 506 259 526 257 c 0,28,29
 546 255 546 255 564 246 c 0,30,31
 605 225 605 225 609 187 c 0,32,33
 614 145 614 145 574 95 c 0,34,35
 564 82 564 82 554 69 c 0,36,37
 480 -35 480 -35 313 -17 c 0,38,39
 267 -12 267 -12 236.5 -6 c 128,-1,40
 206 0 206 0 183 3 c 128,-1,41
 160 6 160 6 137 7 c 0,42,43
 84 9 84 9 56 -1 c 1,44,45
 42 -17 42 -17 28 -22 c 1,46,47
 4 -27 4 -27 1 -2 c 0,48,49
 -3 21 -3 21 34 33 c 1,0,1
360 40 m 0,50,51
 363 30 363 30 359 21 c 1,52,53
 424 19 424 19 468 43 c 0,54,55
 522 73 522 73 560 146 c 0,56,57
 578 181 578 181 555 202 c 0,58,59
 535 220 535 220 502 214 c 128,-1,60
 469 208 469 208 440.5 189 c 128,-1,61
 412 170 412 170 391 144 c 0,62,63
 342 84 342 84 360 40 c 0,50,51
EndSplineSet
EndChar

StartChar: th3
Encoding: 291 3366 132
Width: 404
GlyphClass: 2
Flags: W
LayerCount: 2
Fore
SplineSet
267 208 m 1,0,1
 245 233 245 233 179 208 c 0,2,3
 116 181 116 181 76 132 c 0,4,5
 25 70 25 70 42 14 c 1,6,7
 46 9 46 9 46 -1 c 2,8,-1
 46 -5 l 1,9,10
 40 -19 40 -19 27 -20 c 128,-1,11
 14 -21 14 -21 7 -6 c 1,12,13
 -16 56 -16 56 32 132 c 0,14,15
 76 202 76 202 149 240 c 0,16,17
 226 281 226 281 278 254 c 0,18,19
 287 248 287 248 303 227 c 1,20,21
 311 219 311 219 309 209 c 1,22,23
 305 198 305 198 302 186 c 0,24,25
 293 152 293 152 253 117 c 1,26,27
 261 116 261 116 278 110 c 0,28,29
 344 79 344 79 333 40 c 0,30,31
 322 6 322 6 264 -18 c 0,32,33
 210 -40 210 -40 154 -34 c 0,34,35
 92 -28 92 -28 79 14 c 0,36,37
 75 32 75 32 90 38 c 0,38,39
 104 44 104 44 116 29 c 1,40,41
 128 -2 128 -2 198 6 c 0,42,43
 226 10 226 10 252 20 c 128,-1,44
 278 30 278 30 288 41.5 c 128,-1,45
 298 53 298 53 286 64 c 0,46,47
 273 74 273 74 245 78 c 0,48,49
 203 83 203 83 192.5 81 c 128,-1,50
 182 79 182 79 178 79 c 0,51,52
 160 82 160 82 157.5 96 c 128,-1,53
 155 110 155 110 172 117 c 1,54,-1
 172 118 l 1,55,-1
 173 118 l 1,56,57
 181 120 181 120 190 122 c 128,-1,58
 199 124 199 124 212 134 c 128,-1,59
 225 144 225 144 236 156 c 0,60,61
 258 182 258 182 267 208 c 1,0,1
EndSplineSet
EndChar

StartChar: th4
Encoding: 292 3367 133
Width: 569
GlyphClass: 2
Flags: W
LayerCount: 2
Fore
SplineSet
151 255 m 1,0,1
 149 241 149 241 138 235 c 128,-1,2
 127 229 127 229 118 237 c 1,3,4
 92 209 92 209 71 157 c 0,5,6
 31 59 31 59 48 44 c 1,7,8
 80 47 80 47 100.5 65.5 c 128,-1,9
 121 84 121 84 136.5 106.5 c 128,-1,10
 152 129 152 129 166 149.5 c 128,-1,11
 180 170 180 170 200 178 c 1,12,13
 212 180 212 180 218.5 173 c 128,-1,14
 225 166 225 166 224 155 c 1,15,16
 217 132 217 132 211.5 108 c 128,-1,17
 206 84 206 84 200 60 c 1,18,19
 208 48 208 48 214 37 c 1,20,21
 311 46 311 46 397 135 c 0,22,23
 443 182 443 182 450 212 c 0,24,25
 453 224 453 224 457 235 c 1,26,27
 439 263 439 263 418.5 272.5 c 128,-1,28
 398 282 398 282 363 271 c 1,29,30
 343 267 343 267 338 284 c 128,-1,31
 333 301 333 301 352 309 c 1,32,33
 371 314 371 314 395.5 314 c 128,-1,34
 420 314 420 314 442 306 c 0,35,36
 494 287 494 287 499 240 c 0,37,38
 501 222 501 222 492.5 203.5 c 128,-1,39
 484 185 484 185 471 161.5 c 128,-1,40
 458 138 458 138 435 114 c 0,41,42
 413 90 413 90 384 70 c 0,43,44
 341 39 341 39 267 2 c 0,45,46
 253 -5 253 -5 236.5 -3.5 c 128,-1,47
 220 -2 220 -2 204 -4 c 1,48,49
 192 0 192 0 187 5 c 1,50,51
 170 32 170 32 163.5 45.5 c 128,-1,52
 157 59 157 59 158 72 c 1,53,54
 65 -45 65 -45 8 28 c 0,55,56
 -11 54 -11 54 21 138 c 0,57,58
 60 239 60 239 92 266 c 0,59,60
 118 288 118 288 138 280 c 0,61,62
 148 276 148 276 151 255 c 1,0,1
EndSplineSet
EndChar

StartChar: n1
Encoding: 293 3368 134
Width: 612
GlyphClass: 2
Flags: W
LayerCount: 2
Fore
SplineSet
132 231 m 1,0,1
 79 178 79 178 51 103 c 0,2,3
 38 69 38 69 41 55.5 c 128,-1,4
 44 42 44 42 46 37 c 2,5,-1
 51 28 l 1,6,7
 57 22 57 22 57 15 c 0,8,9
 57 -4 57 -4 41 -8 c 0,10,11
 31 -10 31 -10 20 -1 c 1,12,13
 -11 32 -11 32 7 98 c 0,14,15
 23 156 23 156 65 212.5 c 128,-1,16
 107 269 107 269 141 279 c 1,17,18
 154 281 154 281 163 268 c 1,19,20
 176 232 176 232 171 200 c 128,-1,21
 166 168 166 168 160.5 147.5 c 128,-1,22
 155 127 155 127 151 107 c 1,23,24
 172 135 172 135 193.5 162.5 c 128,-1,25
 215 190 215 190 244 210 c 0,26,27
 250 214 250 214 259 222 c 128,-1,28
 268 230 268 230 279 238 c 0,29,30
 308 259 308 259 326.5 266 c 128,-1,31
 345 273 345 273 359 279 c 0,32,33
 373 286 373 286 384 290 c 0,34,35
 407 299 407 299 442 303.5 c 128,-1,36
 477 308 477 308 502.5 292.5 c 128,-1,37
 528 277 528 277 537 249 c 0,38,39
 555 194 555 194 520 122 c 0,40,41
 496 72 496 72 434 45 c 0,42,43
 376 20 376 20 319 24 c 0,44,45
 308 25 308 25 303 31.5 c 128,-1,46
 298 38 298 38 298 45 c 0,47,48
 299 62 299 62 320 64 c 1,49,50
 369 62 369 62 414.5 81 c 128,-1,51
 460 100 460 100 487 144 c 0,52,53
 499 164 499 164 503 189 c 128,-1,54
 507 214 507 214 500.5 233.5 c 128,-1,55
 494 253 494 253 476.5 262.5 c 128,-1,56
 459 272 459 272 432 262.5 c 128,-1,57
 405 253 405 253 382 246 c 0,58,59
 360 238 360 238 340 228 c 0,60,61
 310 213 310 213 266.5 177 c 128,-1,62
 223 141 223 141 193 96.5 c 128,-1,63
 163 52 163 52 132 6 c 0,64,65
 122 -8 122 -8 110 -3 c 128,-1,66
 98 2 98 2 95 17 c 1,67,68
 95 60 95 60 106 105 c 0,69,70
 128 197 128 197 132 231 c 1,0,1
EndSplineSet
EndChar

StartChar: p1
Encoding: 294 3370 135
Width: 544
GlyphClass: 2
Flags: W
LayerCount: 2
Fore
SplineSet
457 300 m 1,0,1
 474 294 474 294 474 280 c 0,2,3
 474 265 474 265 459 261 c 1,4,5
 445 212 445 212 445 157 c 128,-1,6
 445 102 445 102 444.5 73 c 128,-1,7
 444 44 444 44 445.5 33 c 128,-1,8
 447 22 447 22 448 12 c 0,9,10
 450 -13 450 -13 434 -26 c 256,11,12
 414 -41 414 -41 350 -32 c 0,13,14
 336 -30 336 -30 323 -29.5 c 128,-1,15
 310 -29 310 -29 297.5 -28.5 c 128,-1,16
 285 -28 285 -28 273.5 -27 c 128,-1,17
 262 -26 262 -26 249 -25.5 c 128,-1,18
 236 -25 236 -25 215 -23.5 c 128,-1,19
 194 -22 194 -22 179 -21 c 128,-1,20
 164 -20 164 -20 153 -20 c 0,21,22
 126 -19 126 -19 103 -17 c 1,23,24
 85 -14 85 -14 83 1 c 128,-1,25
 81 16 81 16 98 23 c 1,26,27
 126 31 126 31 157.5 52 c 128,-1,28
 189 73 189 73 198.5 85.5 c 128,-1,29
 208 98 208 98 195 103.5 c 128,-1,30
 182 109 182 109 164 103.5 c 128,-1,31
 146 98 146 98 126 88 c 0,32,33
 102 76 102 76 79 60 c 128,-1,34
 56 44 56 44 52.5 39.5 c 128,-1,35
 49 35 49 35 45 25 c 1,36,-1
 44 24 l 1,37,38
 51 11 51 11 41 -2 c 0,39,40
 39 -3 39 -3 38.5 -4 c 128,-1,41
 38 -5 38 -5 32 -8.5 c 128,-1,42
 26 -12 26 -12 17.5 -10 c 128,-1,43
 9 -8 9 -8 3.5 5.5 c 128,-1,44
 -2 19 -2 19 3.5 35 c 128,-1,45
 9 51 9 51 22 65.5 c 128,-1,46
 35 80 35 80 54 92 c 0,47,48
 73 104 73 104 91 114 c 0,49,50
 143 140 143 140 166.5 143 c 128,-1,51
 190 146 190 146 202 144 c 0,52,53
 232 138 232 138 236 111 c 0,54,55
 239 91 239 91 233.5 77 c 128,-1,56
 228 63 228 63 219 50 c 0,57,58
 207 33 207 33 183 17 c 1,59,60
 240 12 240 12 297 7.5 c 128,-1,61
 354 3 354 3 409 8 c 1,62,63
 409 17 409 17 407 26 c 128,-1,64
 405 35 405 35 403.5 52 c 128,-1,65
 402 69 402 69 402 101 c 128,-1,66
 402 133 402 133 404 166 c 0,67,68
 408 239 408 239 426 288 c 1,69,70
 433 300 433 300 447 300 c 2,71,-1
 457 300 l 1,0,1
EndSplineSet
EndChar

StartChar: p2
Encoding: 295 3371 136
Width: 683
GlyphClass: 2
Flags: W
LayerCount: 2
Fore
SplineSet
124 -28 m 2,0,-1
 98 -37 l 1,1,2
 84 -33 84 -33 78 -22 c 1,3,4
 75 -6 75 -6 88 6.5 c 128,-1,5
 101 19 101 19 117 30 c 128,-1,6
 133 41 133 41 145 52 c 128,-1,7
 157 63 157 63 152 77 c 0,8,9
 150 83 150 83 142 79 c 0,10,11
 135 75 135 75 122 70 c 0,12,13
 100 62 100 62 82 48.5 c 128,-1,14
 64 35 64 35 53.5 27.5 c 128,-1,15
 43 20 43 20 41 13 c 1,16,17
 53 -2 53 -2 38 -14 c 0,18,19
 32 -18 32 -18 24 -18.5 c 128,-1,20
 16 -19 16 -19 9 -12 c 1,21,22
 11 -13 11 -13 7 -5 c 0,23,24
 4 2 4 2 2 10 c 0,25,26
 -1 24 -1 24 13 44 c 1,27,28
 42 73 42 73 75 91 c 0,29,30
 143 129 143 129 164.5 116.5 c 128,-1,31
 186 104 186 104 192 91.5 c 128,-1,32
 198 79 198 79 195 66 c 0,33,34
 190 44 190 44 161 15 c 1,35,36
 187 17 187 17 266 14 c 1,37,38
 262 20 262 20 262 25 c 1,39,40
 267 49 267 49 270 66.5 c 128,-1,41
 273 84 273 84 278 99 c 0,42,43
 298 158 298 158 368 199 c 0,44,45
 436 238 436 238 506 244 c 0,46,47
 540 246 540 246 563 232 c 0,48,49
 574 225 574 225 586 218 c 128,-1,50
 598 211 598 211 607 193.5 c 128,-1,51
 616 176 616 176 613.5 154 c 128,-1,52
 611 132 611 132 600 112 c 0,53,54
 581 77 581 77 540 43 c 0,55,56
 474 -12 474 -12 391 -22 c 0,57,58
 319 -31 319 -31 265 -27 c 0,59,60
 191 -22 191 -22 131 -27 c 1,61,-1
 130 -27 l 2,62,63
 128 -27 128 -27 127 -27 c 0,64,65
 126 -28 126 -28 124 -28 c 128,-1,66
 122 -28 122 -28 124 -28 c 2,0,-1
313.5 82 m 128,-1,68
 310 70 310 70 305.5 43.5 c 128,-1,69
 301 17 301 17 297 13 c 1,70,-1
 320 13 l 2,71,72
 395 13 395 13 445 33 c 0,73,74
 490 52 490 52 523 81.5 c 128,-1,75
 556 111 556 111 568.5 134 c 128,-1,76
 581 157 581 157 567 180 c 128,-1,77
 553 203 553 203 521.5 204.5 c 128,-1,78
 490 206 490 206 456 195 c 128,-1,79
 422 184 422 184 391.5 166 c 128,-1,80
 361 148 361 148 347 133 c 128,-1,81
 333 118 333 118 325 106 c 128,-1,67
 317 94 317 94 313.5 82 c 128,-1,68
EndSplineSet
EndChar

StartChar: p3
Encoding: 296 3372 137
Width: 708
GlyphClass: 2
Flags: W
LayerCount: 2
Fore
SplineSet
415 54 m 1,0,1
 450 55 450 55 550 46 c 1,2,3
 545 133 545 133 575 220 c 0,4,5
 585 249 585 249 598 259 c 0,6,7
 611 270 611 270 617 270 c 0,8,9
 626 271 626 271 633 263 c 1,10,11
 646 246 646 246 632.5 234.5 c 128,-1,12
 619 223 619 223 612 205 c 0,13,14
 604 187 604 187 600 167 c 0,15,16
 586 105 586 105 589 85 c 128,-1,17
 592 65 592 65 592 53 c 0,18,19
 594 8 594 8 564 5 c 0,20,21
 543 3 543 3 525.5 7 c 128,-1,22
 508 11 508 11 496.5 12 c 128,-1,23
 485 13 485 13 464 14 c 128,-1,24
 443 15 443 15 421 15 c 0,25,26
 371 15 371 15 339 11 c 1,27,28
 302 -3 302 -3 294 1.5 c 128,-1,29
 286 6 286 6 283 12 c 0,30,31
 275 26 275 26 291 37 c 1,32,33
 290 37 290 37 290 38 c 1,34,35
 293 38 293 38 299 42 c 0,36,37
 309 48 309 48 338 50 c 1,38,39
 382 71 382 71 418 111 c 0,40,41
 459 157 459 157 461 198 c 1,42,43
 445 209 445 209 392 182 c 0,44,45
 333 157 333 157 275 99 c 0,46,47
 260 85 260 85 245 64 c 128,-1,48
 230 43 230 43 210 35 c 1,49,50
 186 29 186 29 183 54 c 1,51,52
 184 63 184 63 189.5 79 c 128,-1,53
 195 95 195 95 201.5 114 c 128,-1,54
 208 133 208 133 214 153.5 c 128,-1,55
 220 174 220 174 222 192 c 0,56,57
 227 233 227 233 205 246 c 1,58,59
 191 256 191 256 159 233 c 0,60,61
 135 218 135 218 89 158 c 0,62,63
 76 141 76 141 65 123 c 1,64,65
 85 130 85 130 103 127 c 128,-1,66
 121 124 121 124 130.5 103.5 c 128,-1,67
 140 83 140 83 134.5 56.5 c 128,-1,68
 129 30 129 30 112 12 c 128,-1,69
 95 -6 95 -6 69.5 -10 c 128,-1,70
 44 -14 44 -14 16 6 c 0,71,72
 -4 22 -4 22 2 68 c 0,73,74
 5 93 5 93 30 137 c 128,-1,75
 55 181 55 181 82 215 c 0,76,77
 148 298 148 298 200 289 c 0,78,79
 244 282 244 282 256 236 c 0,80,81
 265 206 265 206 256 153 c 0,82,83
 255 148 255 148 254 143 c 128,-1,84
 253 138 253 138 251 133 c 1,85,86
 293 173 293 173 336 198 c 0,87,88
 440 260 440 260 479 234 c 0,89,90
 495 223 495 223 497.5 220 c 128,-1,91
 500 217 500 217 502 211 c 1,92,93
 498 119 498 119 415 54 c 1,0,1
70 82 m 0,94,95
 38 72 38 72 38 57 c 128,-1,96
 38 42 38 42 44 36 c 0,97,98
 60 14 60 14 80 38 c 0,99,100
 96 59 96 59 96 80 c 0,101,102
 96 86 96 86 88 86 c 128,-1,103
 80 86 80 86 70 82 c 0,94,95
EndSplineSet
EndChar

